<svg width="375" height="812" viewBox="0 0 375 812" fill="none" xmlns="http://www.w3.org/2000/svg">
<rect x="0.5" y="0.5" width="374" height="811" fill="white"/>
<rect x="0.5" y="0.5" width="374" height="811" stroke="white"/>
<path d="M53.9756 520.372H49.3491V517.942H53.9756C54.7812 517.942 55.4323 517.812 55.9287 517.552C56.4251 517.291 56.7873 516.933 57.0151 516.478C57.2511 516.014 57.3691 515.485 57.3691 514.891C57.3691 514.329 57.2511 513.804 57.0151 513.316C56.7873 512.819 56.4251 512.421 55.9287 512.12C55.4323 511.819 54.7812 511.668 53.9756 511.668H50.2891V527H47.2251V509.227H53.9756C55.3509 509.227 56.5187 509.471 57.479 509.959C58.4474 510.439 59.1839 511.106 59.6885 511.961C60.193 512.807 60.4453 513.776 60.4453 514.866C60.4453 516.014 60.193 516.998 59.6885 517.82C59.1839 518.642 58.4474 519.273 57.479 519.712C56.5187 520.152 55.3509 520.372 53.9756 520.372ZM70.1987 524.351V518.052C70.1987 517.58 70.1133 517.173 69.9424 516.832C69.7715 516.49 69.5111 516.225 69.1611 516.038C68.8193 515.851 68.388 515.757 67.8672 515.757C67.387 515.757 66.972 515.839 66.6221 516.001C66.2721 516.164 65.9995 516.384 65.8042 516.661C65.6089 516.937 65.5112 517.251 65.5112 517.601H62.5815C62.5815 517.08 62.7077 516.575 62.96 516.087C63.2122 515.599 63.5785 515.163 64.0586 514.781C64.5387 514.398 65.1125 514.097 65.7798 513.877C66.4471 513.658 67.1958 513.548 68.0259 513.548C69.0187 513.548 69.8976 513.715 70.6626 514.048C71.4357 514.382 72.042 514.887 72.4814 515.562C72.929 516.229 73.1528 517.068 73.1528 518.077V523.948C73.1528 524.55 73.1935 525.092 73.2749 525.572C73.3644 526.044 73.4906 526.455 73.6533 526.805V527H70.6382C70.4998 526.683 70.39 526.28 70.3086 525.792C70.2354 525.295 70.1987 524.815 70.1987 524.351ZM70.626 518.968L70.6504 520.787H68.5386C67.9933 520.787 67.5132 520.84 67.0981 520.945C66.6831 521.043 66.3372 521.189 66.0605 521.385C65.7839 521.58 65.5763 521.816 65.438 522.093C65.2996 522.369 65.2305 522.683 65.2305 523.033C65.2305 523.383 65.3118 523.704 65.4746 523.997C65.6374 524.282 65.8734 524.506 66.1826 524.668C66.5 524.831 66.8825 524.913 67.3301 524.913C67.9323 524.913 68.4572 524.791 68.9048 524.546C69.3605 524.294 69.7186 523.989 69.979 523.631C70.2394 523.265 70.3778 522.919 70.394 522.593L71.3462 523.899C71.2485 524.233 71.0817 524.591 70.8457 524.974C70.6097 525.356 70.3005 525.722 69.918 526.072C69.5436 526.414 69.092 526.695 68.563 526.915C68.0422 527.134 67.4399 527.244 66.7563 527.244C65.8937 527.244 65.1247 527.073 64.4492 526.731C63.7738 526.382 63.2448 525.914 62.8623 525.328C62.4798 524.734 62.2886 524.062 62.2886 523.313C62.2886 522.614 62.4188 521.995 62.6792 521.458C62.9478 520.913 63.3384 520.457 63.8511 520.091C64.3719 519.725 65.0067 519.448 65.7554 519.261C66.5041 519.065 67.3586 518.968 68.3188 518.968H70.626ZM83.6387 523.423C83.6387 523.13 83.5654 522.866 83.4189 522.63C83.2725 522.386 82.9917 522.166 82.5767 521.971C82.1698 521.775 81.5675 521.596 80.77 521.434C80.0701 521.279 79.4272 521.096 78.8413 520.884C78.2635 520.665 77.7671 520.4 77.3521 520.091C76.937 519.782 76.6156 519.415 76.3877 518.992C76.1598 518.569 76.0459 518.081 76.0459 517.527C76.0459 516.99 76.1639 516.482 76.3999 516.001C76.6359 515.521 76.9736 515.098 77.4131 514.732C77.8525 514.366 78.3856 514.077 79.0122 513.865C79.647 513.654 80.355 513.548 81.1362 513.548C82.243 513.548 83.1911 513.735 83.9805 514.109C84.778 514.476 85.3883 514.976 85.8115 515.611C86.2347 516.237 86.4463 516.945 86.4463 517.735H83.5044C83.5044 517.385 83.4149 517.059 83.2358 516.758C83.0649 516.449 82.8045 516.201 82.4546 516.014C82.1047 515.818 81.6652 515.721 81.1362 515.721C80.6317 515.721 80.2126 515.802 79.8789 515.965C79.5534 516.119 79.3092 516.323 79.1465 516.575C78.9919 516.827 78.9146 517.104 78.9146 517.405C78.9146 517.625 78.9552 517.824 79.0366 518.003C79.1261 518.174 79.2726 518.333 79.4761 518.479C79.6795 518.618 79.9562 518.748 80.3062 518.87C80.6642 518.992 81.1118 519.11 81.6489 519.224C82.658 519.436 83.5247 519.708 84.249 520.042C84.9814 520.368 85.543 520.791 85.9336 521.312C86.3242 521.824 86.5195 522.475 86.5195 523.265C86.5195 523.851 86.3934 524.388 86.1411 524.876C85.897 525.356 85.5389 525.775 85.0669 526.133C84.5949 526.483 84.0293 526.756 83.3701 526.951C82.7191 527.146 81.9867 527.244 81.1729 527.244C79.9766 527.244 78.9634 527.033 78.1333 526.609C77.3032 526.178 76.6725 525.629 76.2412 524.961C75.818 524.286 75.6064 523.586 75.6064 522.862H78.4507C78.4832 523.407 78.6338 523.842 78.9023 524.168C79.179 524.485 79.5208 524.717 79.9277 524.864C80.3428 525.002 80.77 525.071 81.2095 525.071C81.7384 525.071 82.182 525.002 82.54 524.864C82.8981 524.717 83.1707 524.522 83.3579 524.278C83.5451 524.026 83.6387 523.741 83.6387 523.423ZM103.377 524.266V508.25H106.332V527H103.658L103.377 524.266ZM94.7837 520.542V520.286C94.7837 519.285 94.9017 518.374 95.1377 517.552C95.3737 516.722 95.7155 516.01 96.1631 515.416C96.6107 514.813 97.1559 514.354 97.7988 514.036C98.4417 513.711 99.166 513.548 99.9717 513.548C100.769 513.548 101.469 513.702 102.071 514.012C102.674 514.321 103.186 514.764 103.609 515.342C104.033 515.912 104.37 516.596 104.623 517.393C104.875 518.182 105.054 519.061 105.16 520.03V520.848C105.054 521.792 104.875 522.654 104.623 523.436C104.37 524.217 104.033 524.892 103.609 525.462C103.186 526.032 102.669 526.471 102.059 526.78C101.457 527.09 100.753 527.244 99.9473 527.244C99.1497 527.244 98.4295 527.077 97.7866 526.744C97.1519 526.41 96.6107 525.942 96.1631 525.34C95.7155 524.738 95.3737 524.03 95.1377 523.216C94.9017 522.394 94.7837 521.503 94.7837 520.542ZM97.7256 520.286V520.542C97.7256 521.145 97.7785 521.706 97.8843 522.227C97.9982 522.748 98.1732 523.208 98.4092 523.606C98.6452 523.997 98.9504 524.306 99.3247 524.534C99.7072 524.754 100.163 524.864 100.692 524.864C101.359 524.864 101.909 524.717 102.34 524.424C102.771 524.131 103.109 523.737 103.353 523.24C103.605 522.736 103.776 522.174 103.866 521.556V519.346C103.817 518.866 103.715 518.418 103.561 518.003C103.414 517.588 103.215 517.226 102.962 516.917C102.71 516.6 102.397 516.355 102.022 516.185C101.656 516.006 101.221 515.916 100.716 515.916C100.179 515.916 99.7235 516.03 99.3491 516.258C98.9748 516.486 98.6655 516.799 98.4214 517.198C98.1854 517.597 98.0104 518.06 97.8965 518.589C97.7826 519.118 97.7256 519.684 97.7256 520.286ZM115.23 527.244C114.254 527.244 113.371 527.085 112.582 526.768C111.8 526.443 111.133 525.991 110.58 525.413C110.034 524.835 109.615 524.156 109.322 523.375C109.029 522.593 108.883 521.751 108.883 520.848V520.359C108.883 519.326 109.033 518.39 109.334 517.552C109.636 516.714 110.055 515.997 110.592 515.403C111.129 514.801 111.764 514.341 112.496 514.024C113.229 513.707 114.022 513.548 114.876 513.548C115.82 513.548 116.646 513.707 117.354 514.024C118.062 514.341 118.648 514.789 119.112 515.367C119.584 515.936 119.934 516.616 120.162 517.405C120.398 518.195 120.516 519.065 120.516 520.018V521.275H110.311V519.163H117.611V518.931C117.595 518.402 117.489 517.906 117.293 517.442C117.106 516.978 116.817 516.604 116.427 516.319C116.036 516.034 115.515 515.892 114.864 515.892C114.376 515.892 113.941 515.997 113.558 516.209C113.184 516.412 112.87 516.709 112.618 517.1C112.366 517.491 112.171 517.963 112.032 518.516C111.902 519.061 111.837 519.676 111.837 520.359V520.848C111.837 521.425 111.914 521.963 112.069 522.459C112.232 522.947 112.468 523.375 112.777 523.741C113.086 524.107 113.46 524.396 113.9 524.607C114.339 524.811 114.84 524.913 115.401 524.913C116.109 524.913 116.74 524.77 117.293 524.485C117.847 524.201 118.327 523.798 118.734 523.277L120.284 524.778C119.999 525.193 119.629 525.592 119.173 525.975C118.718 526.349 118.16 526.654 117.501 526.89C116.85 527.126 116.093 527.244 115.23 527.244ZM130.221 523.423C130.221 523.13 130.147 522.866 130.001 522.63C129.854 522.386 129.574 522.166 129.159 521.971C128.752 521.775 128.15 521.596 127.352 521.434C126.652 521.279 126.009 521.096 125.423 520.884C124.846 520.665 124.349 520.4 123.934 520.091C123.519 519.782 123.198 519.415 122.97 518.992C122.742 518.569 122.628 518.081 122.628 517.527C122.628 516.99 122.746 516.482 122.982 516.001C123.218 515.521 123.556 515.098 123.995 514.732C124.435 514.366 124.968 514.077 125.594 513.865C126.229 513.654 126.937 513.548 127.718 513.548C128.825 513.548 129.773 513.735 130.562 514.109C131.36 514.476 131.97 514.976 132.394 515.611C132.817 516.237 133.028 516.945 133.028 517.735H130.086C130.086 517.385 129.997 517.059 129.818 516.758C129.647 516.449 129.387 516.201 129.037 516.014C128.687 515.818 128.247 515.721 127.718 515.721C127.214 515.721 126.795 515.802 126.461 515.965C126.135 516.119 125.891 516.323 125.729 516.575C125.574 516.827 125.497 517.104 125.497 517.405C125.497 517.625 125.537 517.824 125.619 518.003C125.708 518.174 125.855 518.333 126.058 518.479C126.262 518.618 126.538 518.748 126.888 518.87C127.246 518.992 127.694 519.11 128.231 519.224C129.24 519.436 130.107 519.708 130.831 520.042C131.563 520.368 132.125 520.791 132.516 521.312C132.906 521.824 133.102 522.475 133.102 523.265C133.102 523.851 132.975 524.388 132.723 524.876C132.479 525.356 132.121 525.775 131.649 526.133C131.177 526.483 130.611 526.756 129.952 526.951C129.301 527.146 128.569 527.244 127.755 527.244C126.559 527.244 125.545 527.033 124.715 526.609C123.885 526.178 123.255 525.629 122.823 524.961C122.4 524.286 122.188 523.586 122.188 522.862H125.033C125.065 523.407 125.216 523.842 125.484 524.168C125.761 524.485 126.103 524.717 126.51 524.864C126.925 525.002 127.352 525.071 127.792 525.071C128.32 525.071 128.764 525.002 129.122 524.864C129.48 524.717 129.753 524.522 129.94 524.278C130.127 524.026 130.221 523.741 130.221 523.423ZM149.349 524.351V518.052C149.349 517.58 149.264 517.173 149.093 516.832C148.922 516.49 148.661 516.225 148.312 516.038C147.97 515.851 147.538 515.757 147.018 515.757C146.537 515.757 146.122 515.839 145.772 516.001C145.423 516.164 145.15 516.384 144.955 516.661C144.759 516.937 144.662 517.251 144.662 517.601H141.732C141.732 517.08 141.858 516.575 142.11 516.087C142.363 515.599 142.729 515.163 143.209 514.781C143.689 514.398 144.263 514.097 144.93 513.877C145.597 513.658 146.346 513.548 147.176 513.548C148.169 513.548 149.048 513.715 149.813 514.048C150.586 514.382 151.192 514.887 151.632 515.562C152.079 516.229 152.303 517.068 152.303 518.077V523.948C152.303 524.55 152.344 525.092 152.425 525.572C152.515 526.044 152.641 526.455 152.804 526.805V527H149.789C149.65 526.683 149.54 526.28 149.459 525.792C149.386 525.295 149.349 524.815 149.349 524.351ZM149.776 518.968L149.801 520.787H147.689C147.144 520.787 146.664 520.84 146.249 520.945C145.833 521.043 145.488 521.189 145.211 521.385C144.934 521.58 144.727 521.816 144.588 522.093C144.45 522.369 144.381 522.683 144.381 523.033C144.381 523.383 144.462 523.704 144.625 523.997C144.788 524.282 145.024 524.506 145.333 524.668C145.65 524.831 146.033 524.913 146.48 524.913C147.083 524.913 147.608 524.791 148.055 524.546C148.511 524.294 148.869 523.989 149.129 523.631C149.39 523.265 149.528 522.919 149.544 522.593L150.497 523.899C150.399 524.233 150.232 524.591 149.996 524.974C149.76 525.356 149.451 525.722 149.068 526.072C148.694 526.414 148.242 526.695 147.713 526.915C147.193 527.134 146.59 527.244 145.907 527.244C145.044 527.244 144.275 527.073 143.6 526.731C142.924 526.382 142.395 525.914 142.013 525.328C141.63 524.734 141.439 524.062 141.439 523.313C141.439 522.614 141.569 521.995 141.83 521.458C142.098 520.913 142.489 520.457 143.001 520.091C143.522 519.725 144.157 519.448 144.906 519.261C145.654 519.065 146.509 518.968 147.469 518.968H149.776ZM158.297 516.612V527H155.355V513.792H158.126L158.297 516.612ZM157.772 519.908L156.82 519.896C156.828 518.96 156.958 518.101 157.21 517.32C157.471 516.539 157.829 515.867 158.285 515.306C158.749 514.744 159.302 514.313 159.945 514.012C160.588 513.702 161.304 513.548 162.093 513.548C162.728 513.548 163.302 513.637 163.814 513.816C164.335 513.987 164.779 514.268 165.145 514.659C165.519 515.049 165.804 515.558 166 516.185C166.195 516.803 166.292 517.564 166.292 518.467V527H163.338V518.455C163.338 517.82 163.245 517.32 163.058 516.954C162.879 516.579 162.614 516.315 162.264 516.16C161.922 515.997 161.495 515.916 160.982 515.916C160.478 515.916 160.026 516.022 159.627 516.233C159.229 516.445 158.891 516.734 158.614 517.1C158.346 517.466 158.138 517.889 157.992 518.37C157.845 518.85 157.772 519.362 157.772 519.908ZM172.213 516.612V527H169.271V513.792H172.042L172.213 516.612ZM171.688 519.908L170.736 519.896C170.744 518.96 170.874 518.101 171.126 517.32C171.387 516.539 171.745 515.867 172.201 515.306C172.665 514.744 173.218 514.313 173.861 514.012C174.504 513.702 175.22 513.548 176.009 513.548C176.644 513.548 177.218 513.637 177.73 513.816C178.251 513.987 178.695 514.268 179.061 514.659C179.435 515.049 179.72 515.558 179.916 516.185C180.111 516.803 180.208 517.564 180.208 518.467V527H177.254V518.455C177.254 517.82 177.161 517.32 176.974 516.954C176.795 516.579 176.53 516.315 176.18 516.16C175.838 515.997 175.411 515.916 174.898 515.916C174.394 515.916 173.942 516.022 173.543 516.233C173.145 516.445 172.807 516.734 172.53 517.1C172.262 517.466 172.054 517.889 171.908 518.37C171.761 518.85 171.688 519.362 171.688 519.908ZM182.65 520.542V520.262C182.65 519.31 182.788 518.427 183.065 517.613C183.342 516.791 183.74 516.079 184.261 515.477C184.79 514.866 185.433 514.394 186.19 514.061C186.955 513.719 187.818 513.548 188.778 513.548C189.746 513.548 190.609 513.719 191.366 514.061C192.131 514.394 192.778 514.866 193.307 515.477C193.836 516.079 194.238 516.791 194.515 517.613C194.792 518.427 194.93 519.31 194.93 520.262V520.542C194.93 521.495 194.792 522.378 194.515 523.191C194.238 524.005 193.836 524.717 193.307 525.328C192.778 525.93 192.135 526.402 191.378 526.744C190.621 527.077 189.763 527.244 188.802 527.244C187.834 527.244 186.967 527.077 186.202 526.744C185.445 526.402 184.802 525.93 184.273 525.328C183.744 524.717 183.342 524.005 183.065 523.191C182.788 522.378 182.65 521.495 182.65 520.542ZM185.592 520.262V520.542C185.592 521.137 185.653 521.698 185.775 522.227C185.897 522.756 186.088 523.22 186.349 523.619C186.609 524.017 186.943 524.331 187.35 524.559C187.757 524.786 188.241 524.9 188.802 524.9C189.347 524.9 189.819 524.786 190.218 524.559C190.625 524.331 190.959 524.017 191.219 523.619C191.48 523.22 191.671 522.756 191.793 522.227C191.923 521.698 191.988 521.137 191.988 520.542V520.262C191.988 519.676 191.923 519.122 191.793 518.602C191.671 518.073 191.476 517.605 191.207 517.198C190.947 516.791 190.613 516.473 190.206 516.246C189.807 516.01 189.331 515.892 188.778 515.892C188.224 515.892 187.744 516.01 187.337 516.246C186.939 516.473 186.609 516.791 186.349 517.198C186.088 517.605 185.897 518.073 185.775 518.602C185.653 519.122 185.592 519.676 185.592 520.262ZM200.313 516.612V527H197.372V513.792H200.143L200.313 516.612ZM199.789 519.908L198.836 519.896C198.845 518.96 198.975 518.101 199.227 517.32C199.487 516.539 199.846 515.867 200.301 515.306C200.765 514.744 201.319 514.313 201.961 514.012C202.604 513.702 203.32 513.548 204.11 513.548C204.745 513.548 205.318 513.637 205.831 513.816C206.352 513.987 206.795 514.268 207.162 514.659C207.536 515.049 207.821 515.558 208.016 516.185C208.211 516.803 208.309 517.564 208.309 518.467V527H205.355V518.455C205.355 517.82 205.261 517.32 205.074 516.954C204.895 516.579 204.631 516.315 204.281 516.16C203.939 515.997 203.512 515.916 202.999 515.916C202.494 515.916 202.043 516.022 201.644 516.233C201.245 516.445 200.908 516.734 200.631 517.1C200.362 517.466 200.155 517.889 200.008 518.37C199.862 518.85 199.789 519.362 199.789 519.908ZM216.708 524.9C217.188 524.9 217.619 524.807 218.001 524.62C218.392 524.424 218.705 524.156 218.941 523.814C219.186 523.472 219.32 523.077 219.344 522.63H222.115C222.099 523.484 221.847 524.262 221.358 524.961C220.87 525.661 220.223 526.219 219.417 526.634C218.612 527.041 217.721 527.244 216.744 527.244C215.735 527.244 214.856 527.073 214.107 526.731C213.359 526.382 212.736 525.901 212.24 525.291C211.743 524.681 211.369 523.977 211.117 523.179C210.873 522.382 210.75 521.527 210.75 520.616V520.188C210.75 519.277 210.873 518.423 211.117 517.625C211.369 516.819 211.743 516.111 212.24 515.501C212.736 514.891 213.359 514.415 214.107 514.073C214.856 513.723 215.731 513.548 216.732 513.548C217.79 513.548 218.718 513.759 219.515 514.183C220.313 514.598 220.939 515.18 221.395 515.928C221.859 516.669 222.099 517.531 222.115 518.516H219.344C219.32 518.028 219.198 517.588 218.978 517.198C218.766 516.799 218.465 516.482 218.075 516.246C217.692 516.01 217.232 515.892 216.695 515.892C216.101 515.892 215.609 516.014 215.218 516.258C214.828 516.494 214.522 516.819 214.303 517.234C214.083 517.641 213.924 518.101 213.827 518.614C213.737 519.118 213.692 519.643 213.692 520.188V520.616C213.692 521.161 213.737 521.69 213.827 522.203C213.916 522.715 214.071 523.175 214.291 523.582C214.518 523.981 214.828 524.302 215.218 524.546C215.609 524.782 216.105 524.9 216.708 524.9ZM230.196 527.244C229.22 527.244 228.337 527.085 227.547 526.768C226.766 526.443 226.099 525.991 225.545 525.413C225 524.835 224.581 524.156 224.288 523.375C223.995 522.593 223.849 521.751 223.849 520.848V520.359C223.849 519.326 223.999 518.39 224.3 517.552C224.601 516.714 225.021 515.997 225.558 515.403C226.095 514.801 226.729 514.341 227.462 514.024C228.194 513.707 228.988 513.548 229.842 513.548C230.786 513.548 231.612 513.707 232.32 514.024C233.028 514.341 233.614 514.789 234.078 515.367C234.55 515.936 234.9 516.616 235.128 517.405C235.364 518.195 235.482 519.065 235.482 520.018V521.275H225.277V519.163H232.577V518.931C232.56 518.402 232.455 517.906 232.259 517.442C232.072 516.978 231.783 516.604 231.393 516.319C231.002 516.034 230.481 515.892 229.83 515.892C229.342 515.892 228.906 515.997 228.524 516.209C228.15 516.412 227.836 516.709 227.584 517.1C227.332 517.491 227.136 517.963 226.998 518.516C226.868 519.061 226.803 519.676 226.803 520.359V520.848C226.803 521.425 226.88 521.963 227.035 522.459C227.197 522.947 227.433 523.375 227.743 523.741C228.052 524.107 228.426 524.396 228.866 524.607C229.305 524.811 229.806 524.913 230.367 524.913C231.075 524.913 231.706 524.77 232.259 524.485C232.813 524.201 233.293 523.798 233.7 523.277L235.25 524.778C234.965 525.193 234.595 525.592 234.139 525.975C233.683 526.349 233.126 526.654 232.467 526.89C231.816 527.126 231.059 527.244 230.196 527.244ZM245.187 523.423C245.187 523.13 245.113 522.866 244.967 522.63C244.82 522.386 244.54 522.166 244.125 521.971C243.718 521.775 243.115 521.596 242.318 521.434C241.618 521.279 240.975 521.096 240.389 520.884C239.811 520.665 239.315 520.4 238.9 520.091C238.485 519.782 238.163 519.415 237.936 518.992C237.708 518.569 237.594 518.081 237.594 517.527C237.594 516.99 237.712 516.482 237.948 516.001C238.184 515.521 238.521 515.098 238.961 514.732C239.4 514.366 239.933 514.077 240.56 513.865C241.195 513.654 241.903 513.548 242.684 513.548C243.791 513.548 244.739 513.735 245.528 514.109C246.326 514.476 246.936 514.976 247.359 515.611C247.783 516.237 247.994 516.945 247.994 517.735H245.052C245.052 517.385 244.963 517.059 244.784 516.758C244.613 516.449 244.352 516.201 244.002 516.014C243.653 515.818 243.213 515.721 242.684 515.721C242.18 515.721 241.76 515.802 241.427 515.965C241.101 516.119 240.857 516.323 240.694 516.575C240.54 516.827 240.462 517.104 240.462 517.405C240.462 517.625 240.503 517.824 240.584 518.003C240.674 518.174 240.82 518.333 241.024 518.479C241.227 518.618 241.504 518.748 241.854 518.87C242.212 518.992 242.66 519.11 243.197 519.224C244.206 519.436 245.073 519.708 245.797 520.042C246.529 520.368 247.091 520.791 247.481 521.312C247.872 521.824 248.067 522.475 248.067 523.265C248.067 523.851 247.941 524.388 247.689 524.876C247.445 525.356 247.087 525.775 246.615 526.133C246.143 526.483 245.577 526.756 244.918 526.951C244.267 527.146 243.535 527.244 242.721 527.244C241.524 527.244 240.511 527.033 239.681 526.609C238.851 526.178 238.22 525.629 237.789 524.961C237.366 524.286 237.154 523.586 237.154 522.862H239.999C240.031 523.407 240.182 523.842 240.45 524.168C240.727 524.485 241.069 524.717 241.476 524.864C241.891 525.002 242.318 525.071 242.757 525.071C243.286 525.071 243.73 525.002 244.088 524.864C244.446 524.717 244.719 524.522 244.906 524.278C245.093 524.026 245.187 523.741 245.187 523.423ZM259.823 516.331V532.078H256.881V513.792H259.591L259.823 516.331ZM268.429 520.274V520.53C268.429 521.491 268.315 522.382 268.087 523.204C267.867 524.017 267.538 524.729 267.098 525.34C266.667 525.942 266.134 526.41 265.499 526.744C264.864 527.077 264.132 527.244 263.302 527.244C262.48 527.244 261.76 527.094 261.141 526.792C260.531 526.483 260.014 526.048 259.591 525.486C259.168 524.925 258.826 524.266 258.565 523.509C258.313 522.744 258.134 521.906 258.028 520.994V520.005C258.134 519.037 258.313 518.158 258.565 517.369C258.826 516.579 259.168 515.9 259.591 515.33C260.014 514.76 260.531 514.321 261.141 514.012C261.751 513.702 262.464 513.548 263.277 513.548C264.107 513.548 264.844 513.711 265.487 514.036C266.13 514.354 266.671 514.809 267.11 515.403C267.55 515.989 267.879 516.697 268.099 517.527C268.319 518.349 268.429 519.265 268.429 520.274ZM265.487 520.53V520.274C265.487 519.664 265.43 519.098 265.316 518.577C265.202 518.048 265.023 517.584 264.779 517.186C264.535 516.787 264.221 516.478 263.839 516.258C263.465 516.03 263.013 515.916 262.484 515.916C261.963 515.916 261.515 516.006 261.141 516.185C260.767 516.355 260.453 516.596 260.201 516.905C259.949 517.214 259.754 517.576 259.615 517.991C259.477 518.398 259.379 518.842 259.322 519.322V521.69C259.42 522.276 259.587 522.813 259.823 523.301C260.059 523.79 260.392 524.18 260.824 524.473C261.263 524.758 261.825 524.9 262.508 524.9C263.037 524.9 263.489 524.786 263.863 524.559C264.238 524.331 264.543 524.017 264.779 523.619C265.023 523.212 265.202 522.744 265.316 522.215C265.43 521.686 265.487 521.124 265.487 520.53ZM270.37 520.542V520.262C270.37 519.31 270.508 518.427 270.785 517.613C271.061 516.791 271.46 516.079 271.981 515.477C272.51 514.866 273.153 514.394 273.91 514.061C274.675 513.719 275.537 513.548 276.498 513.548C277.466 513.548 278.329 513.719 279.085 514.061C279.85 514.394 280.497 514.866 281.026 515.477C281.555 516.079 281.958 516.791 282.235 517.613C282.512 518.427 282.65 519.31 282.65 520.262V520.542C282.65 521.495 282.512 522.378 282.235 523.191C281.958 524.005 281.555 524.717 281.026 525.328C280.497 525.93 279.854 526.402 279.098 526.744C278.341 527.077 277.482 527.244 276.522 527.244C275.554 527.244 274.687 527.077 273.922 526.744C273.165 526.402 272.522 525.93 271.993 525.328C271.464 524.717 271.061 524.005 270.785 523.191C270.508 522.378 270.37 521.495 270.37 520.542ZM273.312 520.262V520.542C273.312 521.137 273.373 521.698 273.495 522.227C273.617 522.756 273.808 523.22 274.068 523.619C274.329 524.017 274.662 524.331 275.069 524.559C275.476 524.786 275.96 524.9 276.522 524.9C277.067 524.9 277.539 524.786 277.938 524.559C278.345 524.331 278.679 524.017 278.939 523.619C279.199 523.22 279.391 522.756 279.513 522.227C279.643 521.698 279.708 521.137 279.708 520.542V520.262C279.708 519.676 279.643 519.122 279.513 518.602C279.391 518.073 279.195 517.605 278.927 517.198C278.666 516.791 278.333 516.473 277.926 516.246C277.527 516.01 277.051 515.892 276.498 515.892C275.944 515.892 275.464 516.01 275.057 516.246C274.658 516.473 274.329 516.791 274.068 517.198C273.808 517.605 273.617 518.073 273.495 518.602C273.373 519.122 273.312 519.676 273.312 520.262ZM293.062 523.887V513.792H296.017V527H293.233L293.062 523.887ZM293.478 521.141L294.466 521.116C294.466 522.003 294.369 522.821 294.173 523.57C293.978 524.31 293.677 524.957 293.27 525.511C292.863 526.056 292.342 526.483 291.708 526.792C291.073 527.094 290.312 527.244 289.425 527.244C288.782 527.244 288.192 527.151 287.655 526.963C287.118 526.776 286.654 526.487 286.263 526.097C285.881 525.706 285.584 525.197 285.372 524.571C285.16 523.944 285.055 523.195 285.055 522.325V513.792H287.997V522.349C287.997 522.829 288.054 523.232 288.167 523.558C288.281 523.875 288.436 524.131 288.631 524.327C288.827 524.522 289.055 524.66 289.315 524.742C289.575 524.823 289.852 524.864 290.145 524.864C290.983 524.864 291.642 524.701 292.123 524.375C292.611 524.042 292.957 523.594 293.16 523.033C293.372 522.471 293.478 521.84 293.478 521.141ZM301.986 516.307V527H299.044V513.792H301.852L301.986 516.307ZM306.026 513.707L306.002 516.441C305.823 516.408 305.628 516.384 305.416 516.368C305.213 516.351 305.009 516.343 304.806 516.343C304.301 516.343 303.858 516.417 303.475 516.563C303.093 516.701 302.771 516.905 302.511 517.173C302.258 517.434 302.063 517.751 301.925 518.125C301.786 518.5 301.705 518.919 301.681 519.383L301.009 519.432C301.009 518.602 301.091 517.833 301.253 517.125C301.416 516.417 301.66 515.794 301.986 515.257C302.319 514.72 302.735 514.301 303.231 514C303.736 513.698 304.317 513.548 304.977 513.548C305.156 513.548 305.347 513.564 305.55 513.597C305.762 513.629 305.921 513.666 306.026 513.707ZM123.971 537.25V556H121.017V537.25H123.971ZM133.016 556.244C132.04 556.244 131.157 556.085 130.367 555.768C129.586 555.443 128.919 554.991 128.365 554.413C127.82 553.835 127.401 553.156 127.108 552.375C126.815 551.593 126.668 550.751 126.668 549.848V549.359C126.668 548.326 126.819 547.39 127.12 546.552C127.421 545.714 127.84 544.997 128.377 544.403C128.915 543.801 129.549 543.341 130.282 543.024C131.014 542.707 131.808 542.548 132.662 542.548C133.606 542.548 134.432 542.707 135.14 543.024C135.848 543.341 136.434 543.789 136.898 544.367C137.37 544.936 137.72 545.616 137.948 546.405C138.184 547.195 138.302 548.065 138.302 549.018V550.275H128.097V548.163H135.396V547.931C135.38 547.402 135.274 546.906 135.079 546.442C134.892 545.978 134.603 545.604 134.212 545.319C133.822 545.034 133.301 544.892 132.65 544.892C132.162 544.892 131.726 544.997 131.344 545.209C130.969 545.412 130.656 545.709 130.404 546.1C130.152 546.491 129.956 546.963 129.818 547.516C129.688 548.061 129.623 548.676 129.623 549.359V549.848C129.623 550.425 129.7 550.963 129.854 551.459C130.017 551.947 130.253 552.375 130.562 552.741C130.872 553.107 131.246 553.396 131.686 553.607C132.125 553.811 132.625 553.913 133.187 553.913C133.895 553.913 134.526 553.77 135.079 553.485C135.632 553.201 136.113 552.798 136.52 552.277L138.07 553.778C137.785 554.193 137.415 554.592 136.959 554.975C136.503 555.349 135.946 555.654 135.287 555.89C134.636 556.126 133.879 556.244 133.016 556.244ZM149.764 545.478V556H146.822V542.792H149.593L149.764 545.478ZM149.288 548.908L148.287 548.896C148.287 547.984 148.401 547.142 148.629 546.369C148.857 545.596 149.19 544.924 149.63 544.354C150.069 543.777 150.615 543.333 151.266 543.024C151.925 542.707 152.686 542.548 153.548 542.548C154.151 542.548 154.7 542.637 155.196 542.816C155.701 542.987 156.136 543.26 156.502 543.634C156.877 544.009 157.162 544.489 157.357 545.075C157.56 545.661 157.662 546.369 157.662 547.199V556H154.72V547.455C154.72 546.812 154.623 546.308 154.427 545.941C154.24 545.575 153.967 545.315 153.609 545.16C153.259 544.997 152.84 544.916 152.352 544.916C151.799 544.916 151.327 545.022 150.936 545.233C150.554 545.445 150.24 545.734 149.996 546.1C149.752 546.466 149.573 546.889 149.459 547.37C149.345 547.85 149.288 548.362 149.288 548.908ZM157.479 548.126L156.1 548.432C156.1 547.634 156.209 546.881 156.429 546.173C156.657 545.457 156.987 544.831 157.418 544.293C157.857 543.748 158.399 543.321 159.042 543.012C159.684 542.702 160.421 542.548 161.251 542.548C161.926 542.548 162.529 542.641 163.058 542.829C163.595 543.008 164.05 543.292 164.425 543.683C164.799 544.074 165.084 544.582 165.279 545.209C165.475 545.827 165.572 546.576 165.572 547.455V556H162.618V547.443C162.618 546.776 162.521 546.259 162.325 545.893C162.138 545.526 161.869 545.274 161.52 545.136C161.17 544.989 160.75 544.916 160.262 544.916C159.806 544.916 159.404 545.001 159.054 545.172C158.712 545.335 158.423 545.567 158.187 545.868C157.951 546.161 157.772 546.499 157.65 546.881C157.536 547.264 157.479 547.679 157.479 548.126ZM168.038 549.542V549.262C168.038 548.31 168.176 547.427 168.453 546.613C168.73 545.791 169.129 545.079 169.649 544.477C170.178 543.866 170.821 543.394 171.578 543.061C172.343 542.719 173.206 542.548 174.166 542.548C175.134 542.548 175.997 542.719 176.754 543.061C177.519 543.394 178.166 543.866 178.695 544.477C179.224 545.079 179.627 545.791 179.903 546.613C180.18 547.427 180.318 548.31 180.318 549.262V549.542C180.318 550.495 180.18 551.378 179.903 552.191C179.627 553.005 179.224 553.717 178.695 554.328C178.166 554.93 177.523 555.402 176.766 555.744C176.009 556.077 175.151 556.244 174.19 556.244C173.222 556.244 172.355 556.077 171.59 555.744C170.833 555.402 170.191 554.93 169.662 554.328C169.133 553.717 168.73 553.005 168.453 552.191C168.176 551.378 168.038 550.495 168.038 549.542ZM170.98 549.262V549.542C170.98 550.137 171.041 550.698 171.163 551.227C171.285 551.756 171.476 552.22 171.737 552.619C171.997 553.017 172.331 553.331 172.738 553.559C173.145 553.786 173.629 553.9 174.19 553.9C174.736 553.9 175.208 553.786 175.606 553.559C176.013 553.331 176.347 553.017 176.607 552.619C176.868 552.22 177.059 551.756 177.181 551.227C177.311 550.698 177.376 550.137 177.376 549.542V549.262C177.376 548.676 177.311 548.122 177.181 547.602C177.059 547.073 176.864 546.605 176.595 546.198C176.335 545.791 176.001 545.473 175.594 545.246C175.195 545.01 174.719 544.892 174.166 544.892C173.613 544.892 173.132 545.01 172.726 545.246C172.327 545.473 171.997 545.791 171.737 546.198C171.476 546.605 171.285 547.073 171.163 547.602C171.041 548.122 170.98 548.676 170.98 549.262ZM185.726 545.478V556H182.784V542.792H185.555L185.726 545.478ZM185.25 548.908L184.249 548.896C184.249 547.984 184.363 547.142 184.591 546.369C184.819 545.596 185.152 544.924 185.592 544.354C186.031 543.777 186.576 543.333 187.228 543.024C187.887 542.707 188.648 542.548 189.51 542.548C190.112 542.548 190.662 542.637 191.158 542.816C191.663 542.987 192.098 543.26 192.464 543.634C192.839 544.009 193.124 544.489 193.319 545.075C193.522 545.661 193.624 546.369 193.624 547.199V556H190.682V547.455C190.682 546.812 190.584 546.308 190.389 545.941C190.202 545.575 189.929 545.315 189.571 545.16C189.221 544.997 188.802 544.916 188.314 544.916C187.761 544.916 187.289 545.022 186.898 545.233C186.515 545.445 186.202 545.734 185.958 546.1C185.714 546.466 185.535 546.889 185.421 547.37C185.307 547.85 185.25 548.362 185.25 548.908ZM193.441 548.126L192.062 548.432C192.062 547.634 192.171 546.881 192.391 546.173C192.619 545.457 192.949 544.831 193.38 544.293C193.819 543.748 194.361 543.321 195.003 543.012C195.646 542.702 196.383 542.548 197.213 542.548C197.888 542.548 198.491 542.641 199.02 542.829C199.557 543.008 200.012 543.292 200.387 543.683C200.761 544.074 201.046 544.582 201.241 545.209C201.437 545.827 201.534 546.576 201.534 547.455V556H198.58V547.443C198.58 546.776 198.482 546.259 198.287 545.893C198.1 545.526 197.831 545.274 197.481 545.136C197.132 544.989 196.712 544.916 196.224 544.916C195.768 544.916 195.366 545.001 195.016 545.172C194.674 545.335 194.385 545.567 194.149 545.868C193.913 546.161 193.734 546.499 193.612 546.881C193.498 547.264 193.441 547.679 193.441 548.126ZM210.384 556.244C209.408 556.244 208.525 556.085 207.735 555.768C206.954 555.443 206.287 554.991 205.733 554.413C205.188 553.835 204.769 553.156 204.476 552.375C204.183 551.593 204.037 550.751 204.037 549.848V549.359C204.037 548.326 204.187 547.39 204.488 546.552C204.789 545.714 205.208 544.997 205.746 544.403C206.283 543.801 206.917 543.341 207.65 543.024C208.382 542.707 209.176 542.548 210.03 542.548C210.974 542.548 211.8 542.707 212.508 543.024C213.216 543.341 213.802 543.789 214.266 544.367C214.738 544.936 215.088 545.616 215.316 546.405C215.552 547.195 215.67 548.065 215.67 549.018V550.275H205.465V548.163H212.765V547.931C212.748 547.402 212.643 546.906 212.447 546.442C212.26 545.978 211.971 545.604 211.581 545.319C211.19 545.034 210.669 544.892 210.018 544.892C209.53 544.892 209.094 544.997 208.712 545.209C208.338 545.412 208.024 545.709 207.772 546.1C207.52 546.491 207.324 546.963 207.186 547.516C207.056 548.061 206.991 548.676 206.991 549.359V549.848C206.991 550.425 207.068 550.963 207.223 551.459C207.385 551.947 207.621 552.375 207.931 552.741C208.24 553.107 208.614 553.396 209.054 553.607C209.493 553.811 209.994 553.913 210.555 553.913C211.263 553.913 211.894 553.77 212.447 553.485C213.001 553.201 213.481 552.798 213.888 552.277L215.438 553.778C215.153 554.193 214.783 554.592 214.327 554.975C213.871 555.349 213.314 555.654 212.655 555.89C212.004 556.126 211.247 556.244 210.384 556.244ZM220.882 545.612V556H217.94V542.792H220.711L220.882 545.612ZM220.357 548.908L219.405 548.896C219.413 547.96 219.544 547.101 219.796 546.32C220.056 545.539 220.414 544.867 220.87 544.306C221.334 543.744 221.887 543.313 222.53 543.012C223.173 542.702 223.889 542.548 224.679 542.548C225.313 542.548 225.887 542.637 226.4 542.816C226.921 542.987 227.364 543.268 227.73 543.659C228.105 544.049 228.39 544.558 228.585 545.185C228.78 545.803 228.878 546.564 228.878 547.467V556H225.924V547.455C225.924 546.82 225.83 546.32 225.643 545.954C225.464 545.579 225.2 545.315 224.85 545.16C224.508 544.997 224.081 544.916 223.568 544.916C223.063 544.916 222.612 545.022 222.213 545.233C221.814 545.445 221.476 545.734 221.2 546.1C220.931 546.466 220.724 546.889 220.577 547.37C220.431 547.85 220.357 548.362 220.357 548.908ZM237.936 542.792V544.94H230.489V542.792H237.936ZM232.638 539.557H235.58V552.35C235.58 552.757 235.637 553.07 235.75 553.29C235.873 553.502 236.039 553.644 236.251 553.717C236.463 553.791 236.711 553.827 236.996 553.827C237.199 553.827 237.394 553.815 237.582 553.791C237.769 553.766 237.919 553.742 238.033 553.717L238.045 555.963C237.801 556.037 237.516 556.102 237.191 556.159C236.874 556.216 236.507 556.244 236.092 556.244C235.417 556.244 234.819 556.126 234.298 555.89C233.777 555.646 233.37 555.251 233.077 554.706C232.784 554.161 232.638 553.437 232.638 552.533V539.557Z" fill="#414141"/>
<g clip-path="url(#clip0_812_1576)">
<path d="M245.282 415.896H239.034L236.06 384.783H245.282V415.896Z" fill="#9E616A"/>
<path d="M248.579 429.872H244.099L243.299 424.41L241.251 429.872H229.367C228.798 429.872 228.243 429.637 227.784 429.201C227.325 428.765 226.987 428.151 226.817 427.449C226.647 426.747 226.656 425.994 226.842 425.298C227.028 424.603 227.381 424.003 227.85 423.585L237.339 415.123V409.602L247.321 410.371L248.579 429.872Z" fill="#2F2E41"/>
<path d="M282.4 405.716L277.386 410.529L260.62 387.853L268.02 380.749L282.4 405.716Z" fill="#9E616A"/>
<path d="M291.505 414.391L287.91 417.842L284.744 414.076L285.624 420.037L276.088 429.192C275.631 429.631 275.078 429.869 274.508 429.873C273.938 429.877 273.383 429.645 272.922 429.213C272.462 428.78 272.12 428.168 271.948 427.467C271.776 426.766 271.782 426.013 271.965 425.316L275.669 411.215L273.117 406.784L281.482 399.712L291.505 414.391Z" fill="#2F2E41"/>
<path d="M252.556 255.368C252.556 255.368 264.41 268.591 258.94 306.285L252.263 343.22L274.039 389.862L267.096 400.768L238.786 350.283L228.528 319.214L225.649 263.919L252.556 255.368Z" fill="#2F2E41"/>
<path d="M234.182 328.068L233.469 342.324L235.651 403.077L245.918 400.768L247.88 357.513L234.182 328.068Z" fill="#2F2E41"/>
<path d="M102.423 423.211L108.011 423.211L110.668 395.387L102.423 395.387L102.423 423.211Z" fill="#FFB6B6"/>
<path d="M100.998 420.856L102.571 420.856L108.711 417.632L112.001 420.855H112.002C113.862 420.855 115.645 421.809 116.96 423.507C118.275 425.205 119.014 427.507 119.014 429.908V430.202L100.999 430.203L100.998 420.856Z" fill="#2F2E41"/>
<path d="M124.075 418.666L129.525 420.254L136.865 393.87L128.821 391.525L124.075 418.666Z" fill="#FFB6B6"/>
<path d="M123.087 415.962L124.621 416.41L131.16 415.011L133.82 419.091L133.82 419.091C135.634 419.62 137.211 421.058 138.204 423.088C139.197 425.118 139.525 427.574 139.115 429.916L139.065 430.203L121.492 425.081L123.087 415.962Z" fill="#2F2E41"/>
<path d="M95.3471 253.111C92.7276 263.311 93.0045 274.383 95.9768 286.267L97.2473 353.173C97.2473 353.173 95.3543 397.05 101.463 412.489H110.322L114.708 349.166L115.259 306.664L134.252 342.522L122.155 411.454L133.058 412.712L152.689 337.905L128.469 265.329L95.3471 253.111Z" fill="#2F2E41"/>
<path d="M197.512 224.056C204.288 216.172 214.367 212.208 222.822 216.629C214.149 222.845 207.459 232.822 203.936 244.794C202.59 249.417 201.466 254.74 198.155 257.215C196.096 258.756 193.533 258.831 191.223 258.087C188.914 257.344 186.797 255.853 184.708 254.378L184.114 254.36C186.781 243.098 190.736 231.94 197.512 224.056Z" fill="#E6E6E6"/>
<path d="M222.774 216.868C215.287 218.118 208.294 222.381 202.79 229.054C201.585 230.463 200.56 232.108 199.753 233.93C199.01 235.737 198.656 237.768 198.727 239.811C198.764 241.718 198.972 243.664 198.649 245.549C198.473 246.511 198.141 247.414 197.675 248.198C197.209 248.983 196.62 249.632 195.947 250.102C194.292 251.33 192.395 251.717 190.529 252.012C188.457 252.34 186.301 252.638 184.508 254.139C184.29 254.32 184.085 253.874 184.302 253.693C187.422 251.083 191.37 252.032 194.725 250.29C196.29 249.477 197.675 248.051 198.166 245.893C198.594 244.007 198.381 242 198.331 240.07C198.239 238.078 198.526 236.087 199.168 234.271C199.901 232.402 200.875 230.708 202.049 229.262C204.65 225.951 207.639 223.188 210.905 221.076C214.623 218.638 218.636 217.04 222.771 216.349C223.027 216.307 223.029 216.826 222.774 216.868Z" fill="white"/>
<path d="M204.464 226.77C203.723 225.426 203.375 223.785 203.484 222.141C203.593 220.496 204.151 218.955 205.059 217.793C205.243 217.559 205.534 217.917 205.349 218.152C204.502 219.232 203.983 220.668 203.884 222.2C203.785 223.731 204.113 225.258 204.81 226.504C204.961 226.776 204.615 227.04 204.464 226.77Z" fill="white"/>
<path d="M198.61 238.847C201.183 239.436 203.833 238.751 206.033 236.929C206.25 236.748 206.456 237.194 206.239 237.374C203.947 239.265 201.188 239.971 198.512 239.351C198.256 239.291 198.356 238.788 198.61 238.847Z" fill="white"/>
<path d="M214.655 219.325C214.858 219.923 215.173 220.445 215.571 220.847C215.97 221.248 216.439 221.516 216.937 221.625C217.193 221.68 217.093 222.183 216.839 222.129C216.289 222.004 215.771 221.708 215.33 221.266C214.889 220.824 214.539 220.249 214.31 219.591C214.285 219.532 214.278 219.462 214.29 219.396C214.303 219.33 214.335 219.272 214.38 219.235C214.426 219.201 214.48 219.19 214.532 219.207C214.583 219.224 214.628 219.266 214.655 219.325Z" fill="white"/>
<path d="M232.131 254.648C231.971 254.619 231.811 254.591 231.648 254.565C229.491 254.196 227.314 254.053 225.139 254.139C224.971 254.142 224.801 254.148 224.633 254.158C219.395 254.436 214.242 255.967 209.437 258.674C207.526 259.753 205.681 261.018 203.918 262.459C201.484 264.449 198.967 266.856 196.246 267.668C195.963 267.757 195.676 267.823 195.387 267.866L184.144 255.297C184.13 255.252 184.113 255.21 184.098 255.165L183.632 254.69C183.718 254.607 183.81 254.524 183.897 254.442C183.947 254.393 184 254.348 184.05 254.3C184.084 254.269 184.119 254.238 184.148 254.207C184.16 254.197 184.171 254.186 184.18 254.179C184.21 254.148 184.24 254.124 184.267 254.097C184.778 253.63 185.292 253.167 185.809 252.708C185.811 252.705 185.811 252.705 185.816 252.704C189.731 249.158 193.959 246.224 198.41 243.964C198.543 243.899 198.679 243.83 198.817 243.771C200.822 242.809 202.884 242.06 204.983 241.531C206.133 241.246 207.293 241.037 208.46 240.904C211.474 240.568 214.511 240.845 217.458 241.727C223.334 243.486 228.709 247.652 231.892 254.148C231.973 254.315 232.052 254.478 232.131 254.648Z" fill="#E6E6E6"/>
<path d="M231.983 254.804C225.421 249.981 217.85 247.95 210.344 248.999C208.725 249.188 207.139 249.705 205.645 250.531C204.209 251.397 202.979 252.743 202.083 254.43C201.223 255.981 200.482 257.696 199.345 258.951C198.756 259.581 198.07 260.044 197.332 260.309C196.594 260.573 195.821 260.633 195.064 260.485C193.171 260.179 191.475 259.013 189.848 257.799C188.041 256.45 186.18 255.012 184.049 254.816C183.79 254.793 183.834 254.277 184.092 254.3C187.8 254.641 190.51 258.469 194.001 259.686C195.63 260.254 197.401 260.191 198.799 258.85C200.021 257.677 200.786 255.909 201.646 254.328C202.502 252.666 203.66 251.3 205.019 250.349C206.475 249.427 208.043 248.832 209.655 248.589C213.276 247.967 216.951 248.085 220.544 248.937C224.648 249.881 228.598 251.724 232.222 254.387C232.446 254.551 232.205 254.968 231.983 254.804Z" fill="white"/>
<path d="M212.745 248.477C212.78 246.827 213.268 245.247 214.122 244.019C214.975 242.79 216.139 241.994 217.406 241.771C217.663 241.727 217.727 242.24 217.471 242.284C216.291 242.488 215.206 243.23 214.413 244.376C213.62 245.522 213.17 246.997 213.145 248.533C213.139 248.867 212.74 248.809 212.745 248.477Z" fill="white"/>
<path d="M202.439 253.569C204.219 256.039 206.655 257.553 209.261 257.807C209.519 257.832 209.475 258.348 209.217 258.323C206.506 258.052 203.974 256.47 202.126 253.895C201.95 253.649 202.264 253.325 202.439 253.569Z" fill="white"/>
<path d="M224.354 250.454C224.238 251.089 224.245 251.751 224.376 252.381C224.507 253.012 224.757 253.59 225.103 254.064C225.282 254.307 224.967 254.631 224.79 254.39C224.409 253.863 224.134 253.224 223.988 252.528C223.842 251.833 223.831 251.101 223.955 250.399C223.962 250.331 223.989 250.27 224.03 250.227C224.071 250.184 224.123 250.163 224.176 250.168C224.229 250.176 224.277 250.211 224.311 250.264C224.344 250.318 224.36 250.386 224.354 250.454Z" fill="white"/>
<path d="M34.662 422.706C34.1343 425.262 32.7475 427.391 31.0733 428.942C30.8003 429.195 30.52 429.43 30.2361 429.651C30.1488 429.717 30.0614 429.787 29.9704 429.849C29.8721 429.924 29.7739 429.994 29.6756 430.06H21.8029C21.6609 429.689 21.5226 429.313 21.3843 428.942C18.0103 419.788 15.6408 409.91 16.0448 399.849C16.2051 395.946 16.8401 392.101 17.9266 388.453C20.0886 381.183 24.034 374.891 29.4609 371.724C29.5955 371.644 29.7375 371.564 29.8758 371.489C29.8321 371.691 29.7884 371.888 29.7448 372.09C29.1626 374.798 28.7511 377.563 28.5145 380.356C28.4927 380.572 28.4745 380.789 28.4599 381.009C27.9429 387.747 28.402 394.55 29.8139 401.07C29.8176 401.085 29.8212 401.103 29.8248 401.117C30.1342 402.56 30.4933 403.981 30.9022 405.38C31.2225 406.484 31.5683 407.574 31.9468 408.646C33.5264 413.143 35.6447 417.936 34.662 422.706Z" fill="#7FB77E"/>
<path d="M29.9741 371.7C29.8976 371.832 29.8212 371.959 29.7448 372.09C28.1461 374.826 26.7886 377.782 25.6974 380.906C25.6392 381.061 25.5846 381.216 25.5372 381.376C24.042 385.738 23.0818 390.373 22.691 395.117C22.6868 395.149 22.6843 395.182 22.6837 395.215C22.5927 396.324 22.5381 397.443 22.5163 398.561C22.4353 400.657 22.611 402.757 23.0368 404.783C23.425 406.437 24.1052 407.952 25.024 409.21C25.115 409.336 25.206 409.463 25.3043 409.586C25.3771 409.684 25.4572 409.783 25.5336 409.877C26.2688 410.784 27.0732 411.625 27.7648 412.598C28.0817 413.034 28.368 413.506 28.6201 414.007C29.0225 414.849 29.2824 415.79 29.3828 416.77C29.4831 417.75 29.4217 418.746 29.2024 419.694C28.7074 422.071 27.5755 424.078 26.4181 425.991C25.8393 426.949 25.2424 427.917 24.7256 428.942C24.5363 429.308 24.3616 429.679 24.2015 430.06H23.7429C23.8958 429.679 24.0632 429.308 24.2452 428.942C25.5737 426.24 27.4627 423.918 28.4418 420.944C29.1042 418.937 29.3044 416.663 28.4672 414.694C28.2219 414.121 27.925 413.588 27.5828 413.105C26.9167 412.133 26.1196 411.301 25.3953 410.422C25.2133 410.201 25.035 409.976 24.8639 409.741C23.957 408.551 23.2571 407.125 22.8111 405.558C22.306 403.568 22.0672 401.482 22.105 399.388C22.105 398.054 22.1596 396.71 22.2615 395.375C22.2724 395.206 22.287 395.032 22.3016 394.858C23.0459 386.46 25.5179 378.472 29.4609 371.724C29.5337 371.592 29.6101 371.465 29.6865 371.338C29.843 371.075 30.1306 371.442 29.9741 371.7Z" fill="white"/>
<path d="M22.4484 395.42C21.1878 395.146 20.0434 394.303 19.2197 393.041C18.396 391.779 17.9466 390.18 17.9519 388.529C17.9526 388.462 17.9735 388.398 18.0102 388.35C18.0469 388.302 18.0965 388.274 18.1486 388.273C18.2007 388.272 18.2513 388.296 18.2896 388.342C18.3278 388.388 18.3509 388.451 18.3539 388.518C18.3468 390.055 18.7655 391.544 19.5344 392.718C20.3033 393.891 21.3717 394.671 22.5468 394.916C22.8021 394.97 22.7023 395.473 22.4484 395.42Z" fill="white"/>
<path d="M24.923 409.304C27.0648 407.371 28.5637 404.467 29.1207 401.171C29.1757 400.844 29.5655 400.971 29.5106 401.298C28.9259 404.726 27.3614 407.745 25.1291 409.75C24.9162 409.941 24.7113 409.494 24.923 409.304Z" fill="white"/>
<path d="M25.577 380.851C26.0477 381.088 26.5566 381.171 27.0581 381.091C27.5595 381.011 28.0378 380.772 28.45 380.395C28.6609 380.2 28.8656 380.647 28.6561 380.84C28.1992 381.254 27.6707 381.518 27.1169 381.607C26.563 381.697 26.0005 381.61 25.4786 381.354C25.4279 381.336 25.3845 381.293 25.3575 381.234C25.3304 381.176 25.3216 381.106 25.3329 381.039C25.3462 380.973 25.3793 380.916 25.425 380.88C25.4707 380.845 25.5253 380.835 25.577 380.851Z" fill="white"/>
<path d="M57.2793 389.872C57.1519 389.999 57.0208 390.126 56.8935 390.258C55.1654 391.965 53.5477 393.851 52.0563 395.897C51.9398 396.052 51.8233 396.212 51.7105 396.371L51.7069 396.376C48.1705 401.332 45.3743 407.09 43.4592 413.359L43.4483 413.401C43.4447 413.415 43.441 413.425 43.4374 413.439C42.6783 415.948 42.0663 418.528 41.6066 421.155C41.1626 423.721 40.7986 426.47 40.1034 428.942C39.9979 429.322 39.8814 429.698 39.7576 430.06H23.5754C23.63 429.689 23.6883 429.313 23.7465 428.942C24.5697 423.497 25.8562 418.186 27.5828 413.105C27.641 412.936 27.6992 412.767 27.7648 412.598C28.6561 410.088 29.7041 407.675 30.8986 405.385L30.8988 405.383L30.8996 405.381L30.9008 405.38L30.9022 405.38C31.5581 404.13 32.2627 402.924 33.0132 401.766C34.9598 398.776 37.2592 396.2 39.8268 394.135C39.8414 394.12 39.8596 394.111 39.8741 394.097C44.9843 390.004 51.0408 388.054 56.8316 389.741H56.8352C56.9844 389.783 57.13 389.825 57.2793 389.872Z" fill="#7FB77E"/>
<path d="M57.2611 390.121C57.1373 390.164 57.0136 390.211 56.8935 390.258C54.3426 391.199 51.8805 392.502 49.5521 394.144C49.4357 394.224 49.3192 394.308 49.2027 394.393C45.9851 396.711 43.0643 399.658 40.5438 403.129C40.5418 403.131 40.5406 403.135 40.5402 403.138C40.5111 403.176 40.4783 403.218 40.4528 403.256C39.8705 404.064 39.31 404.905 38.7786 405.77C37.7391 407.382 36.9015 409.194 36.2963 411.141C35.8338 412.763 35.6705 414.503 35.8195 416.221C35.8304 416.395 35.8486 416.564 35.8668 416.738C35.8813 416.874 35.8959 417.01 35.9141 417.151C36.1543 419.036 36.5692 420.925 36.4528 422.847C36.3819 423.832 36.1504 424.786 35.7733 425.647C35.3963 426.508 34.8824 427.256 34.2653 427.842C33.8458 428.261 33.3975 428.629 32.9259 428.942C32.2516 429.39 31.549 429.765 30.8258 430.06H29.3954C29.5883 429.99 29.7775 429.919 29.9704 429.849C30.655 429.599 31.3271 429.296 31.9832 428.942C32.358 428.739 32.7227 428.507 33.0751 428.246C34.5383 427.161 35.7576 425.497 36.0124 423.274C36.2344 421.329 35.8049 419.383 35.5501 417.48C35.5065 417.151 35.4664 416.827 35.4446 416.503C35.2708 414.855 35.3763 413.178 35.754 411.587C36.2777 409.604 37.0606 407.751 38.0688 406.108C38.6925 405.039 39.3582 404.011 40.0634 403.03C40.1507 402.903 40.2417 402.776 40.3364 402.649C42.9098 399.154 45.8813 396.186 49.1481 393.848H49.1518C51.5808 392.102 54.1578 390.724 56.8316 389.741H56.8352C56.9553 389.694 57.0791 389.647 57.1992 389.604C57.4503 389.52 57.5086 390.032 57.2611 390.121Z" fill="white"/>
<path d="M40.1924 403.208C39.3133 402.01 38.7927 400.448 38.7236 398.799C38.6545 397.151 39.0414 395.525 39.8152 394.212C39.9725 393.946 40.299 394.25 40.1415 394.515C39.4192 395.737 39.0589 397.251 39.1257 398.786C39.1924 400.32 39.6818 401.774 40.5056 402.883C40.6844 403.124 40.3701 403.448 40.1924 403.208Z" fill="white"/>
<path d="M35.6935 416.218C38.305 416.34 40.856 415.186 42.838 412.987C43.0342 412.769 43.286 413.173 43.09 413.391C41.0242 415.675 38.3676 416.868 35.6502 416.734C35.3912 416.721 35.4359 416.205 35.6935 416.218Z" fill="white"/>
<path d="M49.4839 394.008C49.7492 394.564 50.1172 395.025 50.5547 395.351C50.9923 395.677 51.4857 395.858 51.9907 395.877C52.2497 395.886 52.2048 396.402 51.9475 396.393C51.3896 396.369 50.8448 396.168 50.3607 395.809C49.8767 395.45 49.4681 394.944 49.1707 394.334C49.1389 394.279 49.1244 394.211 49.1301 394.144C49.1357 394.076 49.1612 394.013 49.2013 393.969C49.2429 393.926 49.2959 393.906 49.3489 393.914C49.4018 393.921 49.4503 393.955 49.4839 394.008Z" fill="white"/>
<path d="M182.11 209.358C181.737 209.992 181.26 210.513 180.714 210.884C180.168 211.254 179.565 211.466 178.948 211.504C178.332 211.541 177.716 211.404 177.146 211.101C176.575 210.798 176.062 210.337 175.644 209.751L161.886 217.477L163.226 207.561L176.085 201.745C176.895 200.903 177.915 200.474 178.953 200.539C179.991 200.603 180.974 201.157 181.717 202.096C182.46 203.034 182.91 204.292 182.982 205.63C183.055 206.969 182.745 208.295 182.11 209.358Z" fill="#FFB8B8"/>
<path d="M172.929 212.454L140.973 230.832L140.905 230.8L104.483 214.043C101.77 212.212 99.702 209.112 98.7018 205.377C97.7016 201.642 97.8452 197.554 99.1031 193.951C99.8004 191.96 100.816 190.183 102.084 188.736C103.352 187.289 104.842 186.204 106.458 185.555C108.074 184.905 109.778 184.704 111.458 184.966C113.138 185.228 114.756 185.946 116.205 187.073L143.31 208.153L169.592 203.755L172.929 212.454Z" fill="#E6E6E6"/>
<path d="M330 430.441C330 430.514 329.989 430.587 329.968 430.655C329.946 430.723 329.914 430.785 329.874 430.837C329.834 430.889 329.786 430.93 329.733 430.958C329.68 430.986 329.624 431 329.567 431H16.4455C16.3306 431 16.2204 430.941 16.1392 430.836C16.058 430.731 16.0124 430.589 16.0124 430.441C16.0124 430.292 16.058 430.15 16.1392 430.045C16.2204 429.941 16.3306 429.882 16.4455 429.882H329.567C329.624 429.881 329.68 429.896 329.733 429.924C329.786 429.952 329.834 429.993 329.874 430.045C329.914 430.097 329.946 430.159 329.968 430.227C329.989 430.294 330 430.367 330 430.441Z" fill="#CCCCCC"/>
<path d="M130.048 267.472L97.8347 260.819C96.9898 260.47 96.2135 259.888 95.559 259.115C94.9046 258.342 94.3875 257.395 94.0433 256.339C93.699 255.284 93.5358 254.144 93.5647 252.999C93.5937 251.855 93.8142 250.732 94.2111 249.707L95.672 245.934L95.1045 206.298C95.0361 201.142 96.0206 196.054 97.9589 191.546C99.8972 187.037 102.721 183.267 106.146 180.615L109.288 178.19L110.875 172.985L125.514 173.446L125.557 180.272L130.799 191.066L130.799 191.11L130.47 249.857L129.025 255.92L131.21 262.972L130.048 267.472Z" fill="#E6E6E6"/>
<path d="M119.535 166.512C126.881 166.512 132.836 158.824 132.836 149.339C132.836 139.855 126.881 132.166 119.535 132.166C112.189 132.166 106.234 139.855 106.234 149.339C106.234 158.824 112.189 166.512 119.535 166.512Z" fill="#FFB8B8"/>
<path d="M105.685 153.083C105.288 150.925 105.47 147.888 105.694 145.716C106.282 140.02 108.732 134.605 112.455 131.397C113.16 130.705 113.999 130.275 114.88 130.152C115.761 130.105 116.715 130.714 116.986 131.797C117.208 131.082 117.54 130.433 117.964 129.891C118.388 129.349 118.893 128.924 119.448 128.644C120.564 128.092 121.764 127.883 122.953 128.034C125.259 128.28 127.469 129.326 129.351 131.063C131.233 132.799 132.715 135.161 133.641 137.898C133.996 138.987 134.988 134.962 135.439 135.992C135.852 137.062 136.574 137.881 137.449 138.273C138.331 138.591 138.689 143.282 139.036 142.188C139.306 142.997 139.412 143.88 139.346 144.756C139.28 145.632 139.043 146.472 138.657 147.198C138.272 147.924 137.75 148.512 137.141 148.908C136.532 149.303 135.856 149.493 135.174 149.46C134.277 149.417 133.418 148.991 132.531 148.807C129.359 148.151 125.994 151.121 125.316 155.175C125.073 154.003 124.686 152.888 124.168 151.876C123.905 151.372 123.553 150.957 123.14 150.664C122.728 150.372 122.267 150.21 121.797 150.194C120.895 150.238 120.101 150.999 119.516 151.887C118.93 152.775 118.49 153.81 117.9 154.693C116.17 157.284 113.829 163.326 111.362 162.885C109.415 162.537 106.226 156.029 105.685 153.083Z" fill="#2F2E41"/>
<path d="M199.938 228.818C200.032 228.035 199.907 227.235 199.587 226.559C199.266 225.883 198.771 225.376 198.189 225.127L162.369 209.724C162.026 209.576 161.662 209.522 161.302 209.566L152.324 210.662L147.172 211.293L137.666 212.453C137.092 212.524 136.552 212.839 136.132 213.348C135.711 213.858 135.433 214.533 135.342 215.268L130.515 254.195C130.424 254.954 130.536 255.731 130.833 256.397C131.129 257.063 131.593 257.579 132.147 257.859L168.341 275.896C168.511 275.982 168.687 276.043 168.867 276.079C169.13 276.134 169.397 276.136 169.659 276.087L193.047 271.611C193.598 271.508 194.109 271.178 194.504 270.67C194.899 270.163 195.157 269.504 195.239 268.792L199.938 228.818Z" fill="white"/>
<path d="M132.968 255.116L169.161 273.153C169.214 273.179 169.272 273.188 169.328 273.178L192.712 268.703C192.781 268.691 192.846 268.65 192.895 268.586C192.945 268.522 192.977 268.439 192.987 268.35L197.689 228.375C197.7 228.277 197.684 228.178 197.644 228.094C197.604 228.01 197.543 227.946 197.471 227.914L197.23 227.808L161.649 212.514C161.633 212.507 161.616 212.502 161.599 212.499C161.571 212.492 161.543 212.49 161.515 212.493L139.617 215.169L137.879 215.379C137.808 215.389 137.741 215.429 137.689 215.492C137.637 215.555 137.602 215.639 137.59 215.731L132.764 254.656C132.753 254.751 132.766 254.849 132.803 254.932C132.84 255.016 132.898 255.081 132.968 255.116Z" fill="#7FB77E"/>
<path d="M139.617 215.169L161.515 212.493C161.543 212.49 161.571 212.492 161.599 212.499C161.616 212.502 161.633 212.507 161.649 212.514L197.23 227.808L187.844 229.091L184.332 229.569L174.337 230.932C174.308 230.934 174.279 230.934 174.249 230.931C174.232 230.924 174.214 230.917 174.193 230.91L139.617 215.169Z" fill="#2F2E41"/>
<path d="M132.147 257.861L168.34 275.898C168.511 275.983 168.688 276.042 168.868 276.076C169.13 276.132 169.398 276.137 169.661 276.089L193.045 271.614C193.597 271.511 194.108 271.18 194.503 270.672C194.898 270.164 195.156 269.505 195.239 268.793L199.938 228.818C200.007 228.228 199.955 227.626 199.786 227.071C199.762 226.997 199.738 226.924 199.71 226.854C199.524 226.348 199.24 225.911 198.886 225.586C198.673 225.389 198.438 225.234 198.189 225.128L198.147 225.108L162.371 209.724C162.225 209.664 162.076 209.617 161.924 209.584C161.718 209.546 161.508 209.541 161.3 209.568L152.324 210.661L147.173 211.295L137.664 212.454C137.276 212.501 136.9 212.661 136.566 212.923C136.54 212.939 136.515 212.958 136.492 212.98C136.476 212.994 136.46 213.009 136.445 213.026C136.153 213.283 135.905 213.614 135.716 213.999C135.526 214.384 135.4 214.814 135.343 215.265L130.513 254.195C130.422 254.955 130.534 255.732 130.831 256.398C131.128 257.065 131.592 257.581 132.147 257.861ZM135.984 215.4C136.043 214.934 136.203 214.498 136.446 214.145C136.52 214.031 136.602 213.928 136.692 213.835C136.938 213.579 137.228 213.404 137.538 213.326C137.599 213.31 137.661 213.298 137.723 213.292L153.732 211.34L161.363 210.402C161.415 210.394 161.462 210.395 161.51 210.392C161.625 210.389 161.741 210.4 161.855 210.425C161.96 210.443 162.063 210.474 162.162 210.52L197.98 225.923C198.008 225.936 198.033 225.949 198.061 225.961C198.387 226.118 198.673 226.387 198.889 226.739C199.059 227.008 199.183 227.321 199.254 227.656C199.324 227.992 199.339 228.343 199.297 228.687L194.594 268.666C194.532 269.199 194.339 269.693 194.044 270.074C193.748 270.455 193.366 270.703 192.953 270.782L169.565 275.256C169.231 275.318 168.889 275.268 168.574 275.11L132.38 257.078C131.965 256.867 131.619 256.48 131.396 255.981C131.174 255.482 131.09 254.9 131.158 254.331L135.984 215.4Z" fill="#3F3D56"/>
<path d="M136.367 213.238C136.386 213.167 136.42 213.105 136.465 213.057C136.479 213.041 136.495 213.028 136.511 213.015C136.527 213.008 136.542 212.995 136.557 212.988C136.63 212.95 136.711 212.948 136.784 212.983L137.538 213.326L174.341 230.088L182.955 228.913L187.775 228.257L197.977 226.862L198.889 226.739L199.066 226.713C199.143 226.704 199.219 226.73 199.282 226.786C199.346 226.842 199.392 226.925 199.413 227.02C199.418 227.042 199.421 227.065 199.422 227.088C199.43 227.178 199.414 227.269 199.378 227.347C199.342 227.426 199.287 227.486 199.222 227.521C199.193 227.536 199.163 227.547 199.132 227.552L197.891 227.72L187.844 229.091L184.332 229.569L174.337 230.932C174.308 230.934 174.279 230.934 174.249 230.931C174.232 230.924 174.214 230.917 174.193 230.91L136.692 213.835L136.565 213.777C136.536 213.765 136.509 213.745 136.485 213.72C136.428 213.666 136.386 213.591 136.365 213.504C136.344 213.417 136.344 213.324 136.367 213.238Z" fill="#3F3D56"/>
<path d="M168.967 276.199C168.882 276.181 168.806 276.121 168.756 276.032C168.705 275.942 168.684 275.831 168.697 275.721L173.98 230.452C173.993 230.341 174.039 230.242 174.109 230.176C174.178 230.11 174.265 230.082 174.35 230.099L174.353 230.1C174.438 230.117 174.514 230.177 174.565 230.266C174.615 230.356 174.636 230.467 174.624 230.577L169.34 275.847C169.327 275.957 169.281 276.056 169.211 276.122C169.142 276.188 169.055 276.216 168.97 276.199L168.967 276.199Z" fill="#3F3D56"/>
<path d="M182.36 273.327L178.846 273.806L182.956 228.912C182.956 228.912 187.65 227.815 187.775 228.254C187.852 228.517 182.393 273.039 182.36 273.327Z" fill="#3F3D56"/>
<path d="M136.566 213.777L136.471 234.25L164.543 248.06L174.624 230.577L136.566 213.777Z" fill="#3F3D56"/>
<path d="M198.89 226.739C198.655 226.358 198.339 226.075 197.981 225.923L162.164 210.52C162.064 210.476 161.96 210.444 161.855 210.423C161.741 210.398 161.625 210.387 161.509 210.39L161.567 209.921L161.926 209.586L170.431 201.635L198.836 212.874L198.885 225.587L198.89 226.739Z" fill="#3F3D56"/>
<path d="M137.996 246.643C138.037 246.648 138.077 246.659 138.115 246.675L149.105 251.335C149.242 251.393 149.356 251.52 149.422 251.687C149.487 251.854 149.498 252.047 149.453 252.225C149.408 252.402 149.31 252.55 149.181 252.634C149.052 252.718 148.902 252.733 148.764 252.675L137.775 248.015C137.647 247.96 137.539 247.847 137.472 247.697C137.405 247.547 137.383 247.37 137.41 247.201C137.438 247.031 137.513 246.88 137.621 246.777C137.729 246.674 137.863 246.626 137.996 246.643Z" fill="white"/>
<path d="M182.336 332.528C184.749 332.528 186.704 330.003 186.704 326.889C186.704 323.774 184.749 321.25 182.336 321.25C179.924 321.25 177.969 323.774 177.969 326.889C177.969 330.003 179.924 332.528 182.336 332.528Z" fill="#F2F2F2"/>
<path d="M70.961 353.204C73.3732 353.204 75.3287 350.679 75.3287 347.565C75.3287 344.451 73.3732 341.926 70.961 341.926C68.5488 341.926 66.5933 344.451 66.5933 347.565C66.5933 350.679 68.5488 353.204 70.961 353.204Z" fill="#F2F2F2"/>
<path d="M161.954 166.645C164.366 166.645 166.322 164.12 166.322 161.006C166.322 157.891 164.366 155.366 161.954 155.366C159.542 155.366 157.586 157.891 157.586 161.006C157.586 164.12 159.542 166.645 161.954 166.645Z" fill="#F2F2F2"/>
<path d="M169.12 254.936C168.554 255.254 167.941 255.407 167.324 255.386C166.707 255.364 166.101 255.168 165.549 254.812C164.997 254.455 164.512 253.947 164.129 253.322C163.746 252.698 163.473 251.972 163.33 251.197L148.403 249.25L153.328 241.446L166.748 244.492C167.773 244.269 168.825 244.538 169.706 245.25C170.587 245.962 171.235 247.066 171.527 248.354C171.82 249.641 171.736 251.022 171.292 252.235C170.849 253.449 170.076 254.41 169.12 254.936Z" fill="#FFB8B8"/>
<path d="M159.939 251.841L125.104 247.697L125.056 247.626L99.6322 210.015C97.959 206.705 97.329 202.695 97.8713 198.805C98.4135 194.916 100.087 191.441 102.549 189.092C103.911 187.796 105.47 186.887 107.124 186.425C108.778 185.963 110.489 185.958 112.144 186.411C113.8 186.864 115.362 187.765 116.728 189.054C118.095 190.343 119.234 191.991 120.072 193.89L135.731 229.39L160.323 242.147L159.939 251.841Z" fill="#E6E6E6"/>
<path d="M247.374 179.512C246.508 171.319 245.423 162.523 240.948 156.609C239.528 154.732 237.828 153.247 235.951 152.241C234.074 151.236 232.059 150.731 230.027 150.758C227.995 150.786 225.989 151.344 224.128 152.399C222.268 153.455 220.593 154.985 219.203 156.9C215.945 161.387 214.506 167.687 214.375 173.835C214.243 179.984 215.303 186.063 216.48 192.023C222.706 192.184 228.886 190.613 234.601 187.418C236.03 186.617 237.436 185.712 238.945 185.216C240.455 184.72 241.531 185.968 242.936 186.839L243.706 184.933C244.337 186.449 246.292 186 247 184.542C247.709 183.084 247.554 181.217 247.374 179.512Z" fill="#2F2E41"/>
<path d="M222.694 225.239L197.261 225.941C196.87 225.07 196.292 224.363 195.596 223.908C194.9 223.453 194.117 223.269 193.342 223.378C192.566 223.487 191.832 223.885 191.229 224.523C190.625 225.161 190.179 226.012 189.943 226.972C189.707 227.932 189.692 228.959 189.901 229.93C190.109 230.9 190.531 231.772 191.116 232.438C191.701 233.104 192.423 233.536 193.195 233.682C193.967 233.828 194.755 233.681 195.463 233.26C198.836 233.507 225.226 238.343 226.8 235.227C228.398 232.064 236.927 220.9 236.927 220.9L230.371 208.85L222.694 225.239Z" fill="#9E616A"/>
<path d="M228.891 187.617C235.491 187.617 240.841 180.71 240.841 172.189C240.841 163.669 235.491 156.762 228.891 156.762C222.292 156.762 216.942 163.669 216.942 172.189C216.942 180.71 222.292 187.617 228.891 187.617Z" fill="#9E616A"/>
<path d="M248.03 201.874C246.622 198.255 245.938 193.785 242.936 192.612C240.908 191.82 232.709 193.007 230.861 194.344C227.788 196.569 230.573 200.737 228.76 204.637C226.789 208.877 221.433 217.386 219.462 221.626C218.107 224.54 222.671 233.096 221.938 236.361C221.206 239.627 221.17 243.292 222.418 246.285C223.535 248.964 221.919 251.334 223.043 254.009C224.211 256.791 225.645 267.192 224.557 270.028L223.829 272.847C231.053 273.395 237.127 262.253 244.306 261.08C246.089 260.788 247.94 260.407 249.409 259.071C251.574 257.103 252.429 253.531 252.964 250.183C255.538 233.82 253.801 216.816 248.03 201.874Z" fill="#7FB77E"/>
<path d="M258.86 240.079C257.854 236.533 256.033 221.03 256.033 221.03L244.631 220.599L250.206 238.349L234.995 265.84C234.995 265.84 235.023 265.901 235.074 266.009C234.275 265.843 233.455 265.993 232.722 266.439C231.99 266.884 231.378 267.605 230.968 268.507C230.558 269.409 230.368 270.45 230.424 271.493C230.479 272.536 230.778 273.533 231.279 274.354C231.781 275.175 232.463 275.781 233.236 276.093C234.009 276.406 234.837 276.409 235.612 276.104C236.387 275.798 237.072 275.198 237.578 274.382C238.084 273.565 238.387 272.57 238.448 271.528C238.504 271.569 238.57 271.584 238.633 271.57C238.697 271.556 238.755 271.514 238.797 271.45C240.489 268.708 259.866 243.625 258.86 240.079Z" fill="#9E616A"/>
<path d="M260.019 230.288C258.973 224.586 257.919 218.853 256.154 213.453C254.39 208.054 251.864 202.954 248.312 199.306C247.176 198.14 245.907 197.11 244.483 196.748C243.059 196.385 241.455 196.791 240.455 198.149C238.855 200.321 239.336 203.809 239.923 206.71C241.653 215.262 243.384 223.815 245.114 232.368C250.111 231.684 255.108 231 260.106 230.316L260.019 230.288Z" fill="#7FB77E"/>
<path d="M243.533 174.329C243.093 170.597 242.633 166.834 241.6 163.32C240.566 159.805 238.899 156.514 236.509 154.523C232.724 151.371 227.824 151.979 223.58 153.792C220.299 155.194 217.095 157.325 214.781 160.752C212.467 164.178 211.167 169.066 212.028 173.546C216.554 172.165 221.081 170.784 225.607 169.404L225.112 169.856C226.598 170.813 227.896 172.194 228.907 173.895C229.918 175.596 230.615 177.573 230.946 179.674C231.27 181.8 231.224 183.993 230.81 186.094C230.397 188.195 229.627 190.151 228.557 191.82C231.644 190.406 234.731 188.992 237.818 187.578C239.724 186.706 241.763 185.7 242.893 183.462C244.203 180.866 243.898 177.426 243.533 174.329Z" fill="#2F2E41"/>
</g>
<defs>
<clipPath id="clip0_812_1576">
<rect width="314" height="303" fill="white" transform="translate(16 128)"/>
</clipPath>
</defs>
</svg>
