<svg width="210" height="210" viewBox="0 0 210 210" fill="none" xmlns="http://www.w3.org/2000/svg">
<path d="M104.6 204.142C159.252 204.142 203.555 178.563 203.555 147.01C203.555 115.457 159.252 89.8779 104.6 89.8779C49.9486 89.8779 5.64478 115.457 5.64478 147.01C5.64478 178.563 49.9486 204.142 104.6 204.142Z" fill="#F0F0F0"/>
<path d="M161.433 166.834C154.944 163.088 154.944 157.014 161.433 153.267C167.922 149.521 178.442 149.521 184.931 153.267C191.42 157.014 191.42 163.088 184.931 166.834C178.442 170.581 167.922 170.581 161.433 166.834Z" fill="#E0E0E0"/>
<path d="M29.45 167.354L12.3812 157.499C11.419 156.943 11.419 156.043 12.3812 155.487L111.665 98.1658C112.627 97.6101 114.187 97.6101 115.149 98.1658L132.219 108.02C133.181 108.576 133.181 109.477 132.219 110.032L32.9348 167.354C31.9725 167.91 30.4122 167.91 29.45 167.354Z" fill="#E0E0E0"/>
<path d="M90.8042 149.79L105.478 141.306C106.99 140.433 107.747 139.288 107.747 138.144C107.747 136.999 107.753 136.103 107.753 136.103L92.5283 127.518C91.7214 127.052 91.0675 125.919 91.0675 124.988V106.896L65.4379 121.706L65.437 139.797C65.437 140.729 66.091 141.862 66.8978 142.327L79.8489 149.79C82.8741 151.537 87.7789 151.537 90.8042 149.79Z" fill="#7FB77E"/>
<g opacity="0.6">
<path d="M90.8042 149.79L105.478 141.306C106.99 140.433 107.747 139.288 107.747 138.144C107.747 136.999 107.753 136.103 107.753 136.103L92.5283 127.518C91.7214 127.052 91.0675 125.919 91.0675 124.988V106.896L65.4379 121.706L65.437 139.797C65.437 140.729 66.091 141.862 66.8978 142.327L79.8489 149.79C82.8741 151.537 87.7789 151.537 90.8042 149.79Z" fill="black"/>
</g>
<path opacity="0.3" d="M71.5912 143.002V145.034L66.8939 142.327C66.0925 141.863 65.4348 140.733 65.4348 139.797V121.708L70.3177 118.891C70.419 120.13 70.5286 121.412 70.6298 122.661L67.206 124.643V138.777C67.206 139.713 67.8553 140.843 68.665 141.307L71.5912 143.002Z" fill="black"/>
<path d="M67.2051 138.78C67.2051 139.711 67.859 140.844 68.6658 141.31L79.8471 147.75C82.8723 149.497 87.7775 149.498 90.8028 147.752L105.484 139.268C108.51 137.522 108.51 134.691 105.485 132.944L94.2963 126.499C93.4895 126.033 92.8356 124.901 92.8356 123.969L92.8352 109.833L67.2051 124.643V138.78Z" fill="#7FB77E"/>
<path opacity="0.3" d="M67.2051 138.78C67.2051 139.711 67.859 140.844 68.6658 141.31L79.8471 147.75C82.8723 149.497 87.7775 149.498 90.8028 147.752L105.484 139.268C108.51 137.522 108.51 134.691 105.485 132.944L94.2963 126.499C93.4895 126.033 92.8356 124.901 92.8356 123.969L92.8352 109.833L67.2051 124.643V138.78Z" fill="#92E3A9"/>
<path opacity="0.5" d="M97.2713 128.219V128.217L94.296 126.499C93.4892 126.033 92.8352 124.9 92.8352 123.969V109.833L67.2047 124.643V138.78C67.2047 139.711 67.8587 140.844 68.6655 141.31L71.5891 142.998L97.2713 128.219Z" fill="black"/>
<path d="M107.75 136.104C107.75 136.104 107.75 136.998 107.75 138.145C107.75 139.292 106.991 140.43 105.482 141.308L90.8057 149.787C89.355 150.63 87.4747 151.052 85.5771 151.086V149.053C87.4747 149.028 89.355 148.59 90.8057 147.755L105.482 139.266C106.991 138.398 107.75 137.251 107.75 136.104Z" fill="#7FB77E"/>
<path opacity="0.5" d="M107.75 136.104C107.75 136.104 107.75 136.998 107.75 138.145C107.75 139.292 106.991 140.43 105.482 141.308L90.8057 149.787C89.355 150.63 87.4747 151.052 85.5771 151.086V149.053C87.4747 149.028 89.355 148.59 90.8057 147.755L105.482 139.266C106.991 138.398 107.75 137.251 107.75 136.104Z" fill="black"/>
<path d="M26.0532 156.351C26.9991 156.897 28.5837 156.867 29.5921 156.285C42.1926 149.01 116.112 106.334 128.711 99.0602C129.719 98.478 130.536 97.0622 130.536 95.898V15.7141C130.536 14.5499 129.769 13.163 128.823 12.617C127.878 12.071 126.293 12.1 125.285 12.6825L26.1675 69.9075C25.159 70.4897 24.3417 71.9055 24.3417 73.0701L24.3405 153.254C24.3405 154.418 25.107 155.804 26.0532 156.351Z" fill="#7FB77E"/>
<path d="M29.592 156.283L128.71 99.0583C129.719 98.4762 130.536 97.0604 130.536 95.8957V15.7118C130.536 14.5476 129.719 14.0755 128.71 14.6576L29.5932 71.8826C28.5848 72.4647 27.7675 73.8806 27.7675 75.0452L27.7662 155.229C27.7662 156.393 28.584 156.865 29.592 156.283Z" fill="#7FB77E"/>
<path opacity="0.5" d="M29.592 156.283L128.71 99.0583C129.719 98.4762 130.536 97.0604 130.536 95.8957V15.7118C130.536 14.5476 129.719 14.0755 128.71 14.6576L29.5932 71.8826C28.5848 72.4647 27.7675 73.8806 27.7675 75.0452L27.7662 155.229C27.7662 156.393 28.584 156.865 29.592 156.283Z" fill="black"/>
<path d="M29.3232 158.367C28.3114 158.814 26.9116 158.797 26.0514 158.299C25.1068 157.751 24.3395 156.368 24.3395 155.196V147.895L27.7633 149.877V157.178C27.7633 158.24 28.4378 158.721 29.3232 158.367Z" fill="#7FB77E"/>
<path opacity="0.5" d="M29.3232 158.367C28.3114 158.814 26.9116 158.797 26.0514 158.299C25.1068 157.751 24.3395 156.368 24.3395 155.196V147.895L27.7633 149.877V157.178C27.7633 158.24 28.4378 158.721 29.3232 158.367Z" fill="black"/>
<path d="M27.7633 149.877L27.7662 157.175C27.7662 158.339 28.584 158.811 29.592 158.229L128.71 101.005C129.719 100.422 130.536 99.0066 130.536 97.842V90.5281L27.7633 149.877Z" fill="#7FB77E"/>
<path opacity="0.3" d="M27.7662 149.861V157.175C27.7662 158.339 28.584 158.811 29.592 158.229L128.71 101.005C129.719 100.422 130.536 99.0066 130.536 97.842V90.5281L27.7662 149.861Z" fill="black"/>
<path d="M31.1909 140.717L31.1918 76.1821C31.1918 75.4836 31.6823 74.634 32.2871 74.2845L126.013 20.1717C126.618 19.8223 127.108 20.1058 127.108 20.8043L127.111 85.341C127.111 86.0395 126.621 86.8892 126.016 87.2386L32.2867 141.35C31.6815 141.699 31.1909 141.416 31.1909 140.717Z" fill="#7FB77E"/>
<path d="M31.1909 140.717L31.1918 76.1821C31.1918 75.4836 31.6823 74.634 32.2871 74.2845L126.013 20.1717C126.618 19.8223 127.108 20.1058 127.108 20.8043L127.111 85.341C127.111 86.0395 126.621 86.8892 126.016 87.2386L32.2867 141.35C31.6815 141.699 31.1909 141.416 31.1909 140.717Z" fill="#263238"/>
<path d="M79.1499 122.525C78.2037 123.071 77.4368 124.4 77.4368 125.492C77.4368 126.585 78.2041 127.027 79.1504 126.481C80.0966 125.934 80.8635 124.606 80.8635 123.514C80.8631 122.422 80.0962 121.979 79.1499 122.525Z" fill="#7FB77E"/>
<path opacity="0.7" d="M28.303 73.2388C27.9742 73.8121 27.7717 74.4614 27.7633 75.0435V149.877L24.3395 147.895L24.3416 73.0699C24.3416 72.4882 24.5503 71.8389 24.8792 71.2656L28.303 73.2388Z" fill="black"/>
<path opacity="0.3" d="M130.518 15.4115C130.388 14.4703 129.628 14.1292 128.709 14.6559L29.5933 71.8843C29.0922 72.1736 28.639 72.6659 28.3022 73.24L24.8779 71.2627C25.2106 70.6969 25.6637 70.1963 26.169 69.9069L125.284 12.6827C126.295 12.0998 127.875 12.0695 128.825 12.6181C129.689 13.1145 130.401 14.3191 130.518 15.4115Z" fill="black"/>
<path d="M135.867 25.2786C135.628 25.1354 135.303 25.1404 134.936 25.3525L41.4066 79.3586C40.6997 79.7669 40.1268 80.7581 40.1268 81.5741L40.1277 145.716C40.1277 146.213 40.3406 146.653 40.6669 146.828C40.8761 146.94 41.9753 147.58 42.3016 147.755C42.5108 147.868 42.7665 147.872 43.0429 147.712L136.568 93.6848C137.276 93.2779 137.849 92.2867 137.849 91.4706V27.0178C137.849 26.597 137.697 26.3055 137.453 26.1774C137.223 26.0573 136.102 25.4197 135.867 25.2786Z" fill="#7FB77E"/>
<path d="M42.6203 147.626C42.2629 147.626 41.9727 147.185 41.9727 146.643V82.5014C41.9727 81.7664 42.5103 80.8348 43.147 80.4669L136.675 26.4608C136.841 26.3646 137.002 26.3142 137.141 26.3142C137.453 26.3142 137.639 26.5771 137.639 27.0177V91.4709C137.639 92.2059 137.101 93.1366 136.464 93.5029L42.9378 147.53C42.8278 147.594 42.7211 147.626 42.6203 147.626Z" fill="#FAFAFA"/>
<path d="M137.141 26.5242C137.392 26.5242 137.429 26.8334 137.429 27.0177V91.4709C137.429 92.14 136.939 92.9871 136.358 93.3215L42.8337 147.349C42.7556 147.394 42.6838 147.416 42.6203 147.416C42.3868 147.416 42.1823 147.055 42.1823 146.643V82.5014C42.1823 81.832 42.672 80.984 43.2516 80.6492L136.78 26.6427C136.949 26.5448 137.07 26.5242 137.141 26.5242ZM137.141 26.1042C136.97 26.1042 136.775 26.1605 136.57 26.279L43.042 80.2855C42.3356 80.6933 41.7627 81.6858 41.7627 82.5014V146.643C41.7627 147.289 42.121 147.836 42.6208 147.836C42.7531 147.836 42.8954 147.798 43.0433 147.713L136.569 93.6852C137.276 93.2782 137.849 92.287 137.849 91.4709V27.0177C137.849 26.439 137.561 26.1042 137.141 26.1042Z" fill="#E0E0E0"/>
<path d="M40.6653 146.827C40.8039 146.901 41.7988 147.468 42.2348 147.716C41.9408 147.507 41.7858 147.147 41.764 146.642V86.6867L40.126 85.7283V145.716C40.126 146.212 40.3393 146.654 40.6653 146.827Z" fill="#F0F0F0"/>
<path d="M137.849 27.0081C137.844 26.2 137.274 25.8728 136.57 26.279L43.042 80.2855C42.3356 80.6933 41.7627 81.6858 41.7627 82.5014L41.764 86.6867L137.849 31.2073V27.0081Z" fill="#85C48B"/>
<g opacity="0.4">
<path d="M136.569 26.2786L43.0433 80.2847C42.693 80.4901 42.3713 80.8362 42.1419 81.2343L40.5161 80.2927C40.7454 79.8983 41.0604 79.5556 41.4061 79.3582L134.935 25.3521C135.302 25.1387 135.628 25.1354 135.865 25.2765C136.095 25.4172 137.157 26.0211 137.427 26.1656C137.201 26.0573 136.899 26.0896 136.569 26.2786Z" fill="white"/>
</g>
<path opacity="0.15" d="M40.126 85.7326L40.1268 81.5725C40.1268 81.1579 40.2789 80.6993 40.5162 80.2927L42.1458 81.2302C41.9085 81.6325 41.7636 82.0874 41.7636 82.5015V86.686L40.126 85.7326Z" fill="black"/>
<path d="M118.125 75.3578L62.1079 107.699C61.5917 107.997 61.173 108.722 61.173 109.318V125.377C61.173 125.973 61.5917 126.698 62.1087 126.995L63.7455 127.937C64.2621 128.234 65.0996 128.233 65.6157 127.935L121.625 95.5984C122.141 95.3002 122.56 94.5753 122.561 93.9793L122.567 77.9156C122.568 77.3196 122.149 76.5951 121.632 76.2977L119.996 75.3561C119.479 75.0592 118.641 75.06 118.125 75.3578Z" fill="#7FB77E"/>
<path opacity="0.5" d="M122.56 77.7642C122.495 77.2808 122.102 77.1036 121.632 77.3757L65.6165 109.716C65.3574 109.863 65.1243 110.122 64.9559 110.415L61.4497 108.39C61.6181 108.101 61.8512 107.846 62.1062 107.699L118.125 75.3589C118.639 75.0611 119.477 75.0565 119.995 75.3547L121.632 76.2959C122.106 76.5681 122.499 77.2031 122.56 77.7642Z" fill="white"/>
<path d="M65.457 128.011C64.9387 128.231 64.2134 128.205 63.7472 127.937L62.1108 126.996C61.5926 126.698 61.1738 125.973 61.1738 125.377V109.319C61.1738 109.016 61.2818 108.684 61.4502 108.391L64.9564 110.416C64.7837 110.709 64.68 111.037 64.68 111.336V127.398C64.6796 127.933 65.0164 128.179 65.457 128.011Z" fill="#263238"/>
<path d="M65.6153 109.718L121.632 77.3761C122.149 77.0779 122.567 77.3198 122.567 77.9158L122.56 93.9796C122.56 94.5755 122.141 95.3004 121.625 95.5986L65.6153 127.936C65.0992 128.234 64.6804 127.992 64.6804 127.396V111.337C64.6808 110.74 65.0992 110.016 65.6153 109.718Z" fill="#7FB77E"/>
<path d="M103.275 83.9324L62.1058 107.7C61.8513 107.847 61.6182 108.101 61.4493 108.391L64.9555 110.416C65.1239 110.122 65.357 109.863 65.6162 109.717L106.775 85.9534L103.275 83.9324Z" fill="#455A64"/>
<path d="M106.775 85.9539L65.6153 109.717C65.0992 110.016 64.6804 110.741 64.6804 111.337V127.396C64.6804 127.992 65.0987 128.234 65.6153 127.935L106.775 104.172V85.9539Z" fill="#37474F"/>
<path d="M75.1082 107.762L96.3463 95.4992C97.2271 94.9906 97.9406 95.3518 97.9406 96.306C97.9406 97.2598 97.2266 98.4455 96.3459 98.9541L75.1094 111.215C74.2287 111.724 73.5143 111.363 73.5143 110.409C73.5139 109.455 74.2274 108.27 75.1082 107.762Z" fill="#7FB77E"/>
<path d="M79.4602 111.82C79.4841 111.806 79.5051 111.81 79.5223 111.831C79.54 111.852 79.5488 111.883 79.5488 111.926V114.318C79.5488 114.559 79.529 114.787 79.4891 115.005C79.4505 115.222 79.3913 115.423 79.3119 115.609C79.2334 115.794 79.1347 115.959 79.0171 116.103C78.8986 116.247 78.7621 116.364 78.6067 116.453C78.4492 116.544 78.3115 116.585 78.1947 116.578C78.0775 116.569 77.9797 116.518 77.9011 116.424C77.8222 116.329 77.7638 116.195 77.7251 116.023C77.6873 115.851 77.6676 115.644 77.6676 115.403V113.012C77.6676 112.969 77.6764 112.927 77.6941 112.886C77.7113 112.845 77.7319 112.817 77.7562 112.803L78.0225 112.65C78.0464 112.635 78.067 112.639 78.0851 112.66C78.1023 112.681 78.1111 112.713 78.1111 112.755V115.118C78.1111 115.277 78.1233 115.406 78.1472 115.505C78.1708 115.605 78.2052 115.677 78.2485 115.724C78.2921 115.771 78.3451 115.793 78.4064 115.791C78.4677 115.788 78.5345 115.766 78.6067 115.724C78.679 115.683 78.7457 115.627 78.8083 115.558C78.8709 115.489 78.9238 115.406 78.9679 115.309C79.0116 115.212 79.046 115.099 79.0712 114.972C79.0964 114.845 79.1086 114.701 79.1086 114.542V112.18C79.1086 112.137 79.1174 112.096 79.1347 112.054C79.1523 112.013 79.1729 111.985 79.1977 111.971L79.4602 111.82Z" fill="#FAFAFA"/>
<path d="M81.1074 114.083C81.1074 114.041 81.0999 114.009 81.0843 113.991C81.0692 113.972 81.0423 113.963 81.0041 113.962C80.9659 113.96 80.9146 113.966 80.8516 113.98C80.7878 113.993 80.7072 114.009 80.6089 114.027C80.5123 114.043 80.4329 114.04 80.3695 114.019C80.3056 113.997 80.2552 113.958 80.217 113.903C80.1788 113.847 80.1519 113.775 80.1364 113.684C80.1213 113.593 80.1137 113.49 80.1137 113.374C80.1137 113.257 80.1288 113.133 80.1595 113.002C80.1901 112.872 80.2342 112.747 80.2922 112.626C80.3506 112.505 80.4207 112.393 80.5039 112.29C80.587 112.188 80.6824 112.106 80.7895 112.044C80.8966 111.983 80.9923 111.948 81.0768 111.943C81.1612 111.937 81.2326 111.952 81.2918 111.988C81.3506 112.024 81.3964 112.078 81.4291 112.151C81.4619 112.223 81.4804 112.304 81.485 112.395C81.4871 112.437 81.4787 112.479 81.4602 112.52C81.4417 112.562 81.4203 112.59 81.396 112.603L81.1435 112.749C81.1112 112.768 81.086 112.772 81.0696 112.76C81.0532 112.748 81.0356 112.734 81.0159 112.718C80.9961 112.703 80.9701 112.694 80.9369 112.691C80.9046 112.689 80.855 112.706 80.7895 112.744C80.7235 112.782 80.666 112.833 80.6156 112.896C80.5652 112.961 80.5396 113.038 80.5396 113.127C80.5396 113.169 80.5459 113.202 80.5581 113.224C80.5698 113.246 80.5925 113.26 80.6265 113.263C80.6605 113.267 80.708 113.264 80.7681 113.255C80.8281 113.245 80.9058 113.23 81.0024 113.21C81.1969 113.172 81.3342 113.208 81.414 113.319C81.4938 113.43 81.5341 113.603 81.5341 113.836C81.5341 113.953 81.5178 114.076 81.485 114.206C81.4522 114.335 81.4044 114.462 81.3422 114.586C81.2796 114.709 81.2036 114.823 81.1125 114.928C81.0217 115.033 80.9193 115.119 80.8059 115.184C80.6895 115.251 80.5879 115.285 80.4988 115.288C80.4102 115.29 80.335 115.271 80.2746 115.228C80.2128 115.186 80.1662 115.125 80.1334 115.047C80.1007 114.969 80.083 114.884 80.0805 114.792C80.0784 114.75 80.0868 114.708 80.1053 114.667C80.1238 114.625 80.1448 114.597 80.1691 114.583L80.422 114.437C80.4547 114.419 80.4791 114.418 80.4959 114.435C80.5119 114.453 80.5308 114.473 80.5513 114.497C80.5719 114.52 80.6009 114.534 80.6383 114.54C80.6752 114.545 80.7311 114.527 80.8059 114.484C80.8386 114.465 80.8726 114.441 80.9075 114.413C80.9424 114.385 80.9751 114.354 81.0045 114.319C81.0335 114.285 81.0583 114.247 81.0784 114.207C81.0973 114.167 81.1074 114.125 81.1074 114.083Z" fill="#FAFAFA"/>
<path d="M81.9629 112.94C81.9629 112.723 81.9814 112.507 82.0188 112.293C82.0561 112.079 82.1099 111.881 82.1796 111.699C82.2498 111.516 82.3342 111.356 82.4337 111.216C82.5333 111.077 82.6441 110.973 82.7668 110.902C82.889 110.831 82.9999 110.806 83.0998 110.828C83.199 110.851 83.2838 110.909 83.3539 111.003C83.4237 111.097 83.4778 111.223 83.5165 111.381C83.5543 111.541 83.574 111.719 83.574 111.917V112.179C83.574 112.222 83.5652 112.265 83.5476 112.305C83.5303 112.346 83.5098 112.374 83.485 112.388L82.3892 113.021C82.3892 113.111 82.4001 113.183 82.4207 113.239C82.4413 113.295 82.469 113.337 82.5043 113.363C82.5391 113.389 82.5799 113.401 82.6257 113.397C82.6714 113.394 82.7189 113.379 82.7668 113.351C82.8365 113.311 82.8932 113.266 82.9373 113.215C82.981 113.164 83.0171 113.112 83.0457 113.056C83.0696 113.011 83.0893 112.978 83.1049 112.958C83.12 112.937 83.141 112.92 83.1675 112.905L83.43 112.753C83.4535 112.74 83.4749 112.743 83.4938 112.762C83.5123 112.783 83.5207 112.815 83.5182 112.859C83.5161 112.915 83.4993 112.995 83.4678 113.099C83.4363 113.203 83.3884 113.313 83.325 113.432C83.2615 113.55 83.1834 113.665 83.0906 113.777C82.9978 113.889 82.8898 113.98 82.7676 114.051C82.645 114.122 82.5341 114.148 82.4346 114.13C82.335 114.112 82.2502 114.053 82.1805 113.953C82.1103 113.854 82.057 113.718 82.0196 113.547C81.9818 113.376 81.9629 113.174 81.9629 112.94ZM82.7672 111.601C82.7034 111.638 82.6496 111.686 82.6047 111.745C82.5597 111.804 82.5219 111.868 82.4913 111.938C82.4606 112.009 82.4375 112.08 82.4207 112.154C82.4043 112.228 82.3938 112.295 82.3892 112.356L83.1309 111.928C83.1267 111.872 83.1183 111.816 83.1066 111.758C83.0948 111.701 83.0751 111.654 83.0473 111.617C83.02 111.581 82.9835 111.56 82.939 111.552C82.894 111.545 82.8369 111.561 82.7672 111.601Z" fill="#FAFAFA"/>
<path d="M84.8933 110.432C84.7622 110.508 84.6677 110.615 84.6094 110.751C84.5514 110.888 84.5224 111.072 84.5224 111.305V112.822C84.5224 112.865 84.5136 112.907 84.4964 112.948C84.4787 112.989 84.4582 113.017 84.4334 113.03L84.1847 113.174C84.1608 113.188 84.1398 113.185 84.1222 113.164C84.1045 113.143 84.0957 113.111 84.0957 113.068V110.35C84.0957 110.308 84.1045 110.265 84.1222 110.224C84.1394 110.183 84.1604 110.156 84.1847 110.141L84.4334 109.998C84.4577 109.984 84.4783 109.988 84.4964 110.009C84.5136 110.029 84.5224 110.061 84.5224 110.104V110.238C84.5791 110.112 84.64 110.005 84.7047 109.917C84.769 109.829 84.8534 109.755 84.9588 109.694L85.1062 109.609C85.1302 109.596 85.1507 109.599 85.1688 109.62C85.186 109.641 85.1948 109.673 85.1948 109.715V110.1C85.1948 110.143 85.186 110.185 85.1688 110.226C85.1512 110.268 85.1306 110.296 85.1062 110.309L84.8933 110.432Z" fill="#FAFAFA"/>
<path d="M88.0265 110.228C88.0504 110.214 88.071 110.218 88.089 110.239C88.1063 110.259 88.1151 110.292 88.1151 110.334V110.749C88.1151 110.791 88.1063 110.833 88.089 110.874C88.0714 110.915 88.0508 110.943 88.0265 110.957L86.5892 111.787C86.5649 111.801 86.5447 111.797 86.5267 111.776C86.5094 111.755 86.5006 111.723 86.5006 111.681V107.912C86.5006 107.87 86.5094 107.828 86.5267 107.787C86.5443 107.746 86.5644 107.718 86.5892 107.704L86.8551 107.551C86.879 107.537 86.9 107.541 86.9177 107.562C86.9353 107.583 86.9441 107.614 86.9441 107.657V110.853L88.0265 110.228Z" fill="#FAFAFA"/>
<path d="M89.3155 107.121C89.4361 107.051 89.5448 107.021 89.6423 107.032C89.7397 107.041 89.8241 107.084 89.8947 107.16C89.9661 107.235 90.0228 107.338 90.0652 107.47C90.1081 107.6 90.1333 107.754 90.1396 107.928C90.1417 107.962 90.1429 108.006 90.1429 108.061C90.1429 108.114 90.1429 108.169 90.1429 108.223C90.1429 108.278 90.1429 108.331 90.1429 108.384C90.1429 108.436 90.1417 108.481 90.1396 108.517C90.1307 108.701 90.106 108.883 90.064 109.062C90.0224 109.242 89.9661 109.41 89.8947 109.565C89.8237 109.721 89.7393 109.86 89.6423 109.982C89.5448 110.105 89.4361 110.2 89.3155 110.27C89.1954 110.339 89.0866 110.37 88.9892 110.36C88.8922 110.35 88.8077 110.308 88.7372 110.234C88.6658 110.161 88.6095 110.058 88.5679 109.927C88.5263 109.795 88.5007 109.642 88.4919 109.468C88.4898 109.435 88.4885 109.392 88.4873 109.34C88.4864 109.288 88.4856 109.236 88.4856 109.181C88.4856 109.126 88.4864 109.072 88.4873 109.016C88.4885 108.961 88.4898 108.916 88.4919 108.88C88.4986 108.697 88.5234 108.516 88.5658 108.335C88.6087 108.155 88.6658 107.986 88.7372 107.828C88.8082 107.67 88.8922 107.531 88.9892 107.409C89.0866 107.286 89.1954 107.191 89.3155 107.121ZM89.7133 108.204C89.7065 108.087 89.6906 107.997 89.665 107.931C89.6398 107.866 89.6091 107.821 89.5713 107.796C89.5343 107.77 89.494 107.762 89.4503 107.77C89.4067 107.777 89.3613 107.794 89.3155 107.821C89.2702 107.847 89.2252 107.882 89.1815 107.925C89.1379 107.967 89.0971 108.023 89.0602 108.091C89.0232 108.16 88.9913 108.241 88.9665 108.335C88.9417 108.429 88.9258 108.539 88.919 108.662C88.9169 108.695 88.9153 108.735 88.9144 108.782C88.9132 108.829 88.9123 108.878 88.9123 108.929C88.9123 108.979 88.9132 109.028 88.9144 109.076C88.9153 109.124 88.9169 109.161 88.919 109.187C88.9258 109.304 88.9417 109.395 88.9665 109.46C88.9913 109.525 89.0232 109.57 89.0602 109.595C89.0971 109.62 89.1379 109.629 89.1815 109.621C89.2252 109.614 89.2702 109.596 89.3155 109.57C89.3613 109.544 89.4067 109.509 89.4503 109.466C89.494 109.423 89.5343 109.368 89.5713 109.3C89.6087 109.232 89.6398 109.15 89.665 109.056C89.6902 108.962 89.7061 108.853 89.7133 108.728C89.7149 108.701 89.7162 108.662 89.7162 108.613C89.7162 108.564 89.7162 108.514 89.7162 108.464C89.7162 108.414 89.7162 108.365 89.7162 108.319C89.7162 108.272 89.7149 108.234 89.7133 108.204Z" fill="#FAFAFA"/>
<path d="M91.4252 109.577C91.4718 109.551 91.5184 109.511 91.5667 109.458C91.6146 109.405 91.6583 109.34 91.6973 109.263C91.7368 109.186 91.7692 109.098 91.7944 109C91.8196 108.901 91.8322 108.796 91.8322 108.683V108.467C91.8145 108.512 91.7918 108.563 91.7629 108.62C91.7347 108.678 91.6999 108.736 91.6595 108.794C91.6192 108.853 91.5718 108.909 91.5188 108.963C91.4651 109.018 91.4042 109.064 91.3366 109.103C91.2269 109.166 91.1278 109.186 91.0396 109.161C90.9506 109.137 90.8754 109.079 90.8132 108.988C90.7507 108.898 90.7015 108.781 90.6658 108.636C90.6297 108.492 90.6091 108.331 90.6045 108.155C90.6024 108.097 90.6016 108.031 90.6016 107.953C90.6016 107.875 90.6024 107.807 90.6045 107.747C90.6091 107.565 90.6293 107.382 90.6658 107.195C90.7015 107.009 90.7511 106.835 90.8132 106.673C90.8758 106.51 90.9506 106.365 91.0396 106.239C91.1278 106.112 91.2269 106.017 91.3366 105.954C91.4042 105.915 91.4651 105.89 91.5188 105.883C91.5718 105.876 91.6192 105.878 91.6595 105.889C91.6999 105.9 91.7347 105.919 91.7629 105.944C91.7914 105.968 91.8141 105.993 91.8322 106.018V105.883C91.8322 105.841 91.8406 105.799 91.8582 105.758C91.8754 105.716 91.896 105.689 91.9208 105.675L92.1698 105.531C92.1938 105.517 92.2148 105.521 92.2324 105.542C92.2501 105.562 92.2589 105.595 92.2589 105.637V108.373C92.2589 108.843 92.1845 109.241 92.0371 109.565C91.8897 109.89 91.6856 110.127 91.4248 110.277C91.3135 110.342 91.2101 110.375 91.1148 110.378C91.0199 110.38 90.9371 110.358 90.8674 110.311C90.7973 110.264 90.7418 110.197 90.6998 110.11C90.6587 110.023 90.6352 109.922 90.631 109.808C90.6284 109.767 90.6368 109.725 90.6557 109.683C90.6738 109.641 90.6952 109.613 90.7196 109.599L90.9426 109.471C90.9733 109.453 90.9993 109.457 91.0211 109.481C91.043 109.505 91.0619 109.528 91.077 109.551C91.1051 109.601 91.1442 109.633 91.1933 109.647C91.2437 109.662 91.3206 109.638 91.4252 109.577ZM91.0316 107.541C91.0249 107.654 91.0249 107.763 91.0316 107.869C91.0447 108.113 91.0888 108.27 91.1631 108.337C91.237 108.406 91.3282 108.408 91.4348 108.347C91.5419 108.284 91.6322 108.176 91.7057 108.021C91.7792 107.866 91.8212 107.68 91.8322 107.464C91.8364 107.403 91.8389 107.328 91.8389 107.239C91.8389 107.149 91.8364 107.077 91.8322 107.021C91.8212 106.825 91.7792 106.69 91.7057 106.615C91.6322 106.541 91.5419 106.535 91.4348 106.597C91.3277 106.658 91.2366 106.767 91.1631 106.921C91.0888 107.074 91.0451 107.282 91.0316 107.541Z" fill="#FAFAFA"/>
<path d="M93.2299 103.811C93.2538 103.797 93.2748 103.801 93.292 103.821C93.3097 103.842 93.3185 103.875 93.3185 103.917V104.372C93.3185 104.415 93.3097 104.457 93.292 104.498C93.2748 104.539 93.2538 104.567 93.2299 104.581L92.948 104.744C92.9241 104.757 92.9031 104.754 92.8855 104.733C92.8678 104.712 92.859 104.68 92.859 104.637V104.182C92.859 104.14 92.8678 104.097 92.8855 104.056C92.9027 104.016 92.9237 103.987 92.948 103.974L93.2299 103.811ZM93.3025 107.753C93.3025 107.796 93.2937 107.838 93.2761 107.879C93.2588 107.92 93.2378 107.948 93.2135 107.962L92.9648 108.105C92.9409 108.119 92.9199 108.116 92.9023 108.095C92.8846 108.074 92.8758 108.042 92.8758 107.999V105.281C92.8758 105.239 92.8846 105.196 92.9023 105.156C92.9195 105.115 92.9405 105.087 92.9648 105.073L93.2135 104.929C93.2374 104.915 93.2584 104.919 93.2761 104.94C93.2937 104.96 93.3025 104.992 93.3025 105.035V107.753Z" fill="#FAFAFA"/>
<path d="M95.5201 106.473C95.5201 106.515 95.5113 106.558 95.4945 106.599C95.4768 106.64 95.4563 106.667 95.4319 106.681L95.1824 106.825C95.1585 106.839 95.1379 106.835 95.1198 106.814C95.1022 106.794 95.0938 106.762 95.0938 106.719V105.237C95.0938 105.004 95.0636 104.835 95.0018 104.73C94.9405 104.626 94.8468 104.61 94.7196 104.683C94.6037 104.75 94.5125 104.873 94.4457 105.051C94.379 105.23 94.3458 105.436 94.3458 105.669V107.151C94.3458 107.193 94.337 107.236 94.3197 107.276C94.3021 107.318 94.2815 107.346 94.2572 107.359L94.0081 107.503C93.9842 107.517 93.9627 107.513 93.9455 107.492C93.9279 107.472 93.9191 107.439 93.9191 107.397V104.679C93.9191 104.636 93.9279 104.594 93.9455 104.553C93.9627 104.512 93.9837 104.484 94.0081 104.47L94.2572 104.327C94.2811 104.312 94.3017 104.316 94.3197 104.337C94.337 104.358 94.3458 104.39 94.3458 104.433V104.567C94.4029 104.433 94.4693 104.311 94.5461 104.201C94.6226 104.09 94.7133 104.005 94.8187 103.945C94.9518 103.867 95.0636 103.84 95.153 103.862C95.2429 103.884 95.3147 103.942 95.3693 104.034C95.4243 104.127 95.463 104.25 95.4861 104.402C95.5088 104.554 95.5201 104.722 95.5201 104.904V106.473Z" fill="#FAFAFA"/>
<path d="M116.707 94.2489L112.628 96.6042L113.26 90.8821C112.772 90.6243 112.461 89.9892 112.461 89.0778C112.461 87.4528 113.449 85.5654 114.667 84.8614C115.886 84.1579 116.874 84.9047 116.874 86.5297C116.874 87.4411 116.563 88.4352 116.075 89.2567L116.707 94.2489Z" fill="#455A64"/>
<path d="M116.707 94.2488L113.117 92.1761L112.628 96.6042L116.707 94.2488Z" fill="#37474F"/>
<path d="M114.668 84.8615C113.87 85.3218 113.174 86.2899 112.786 87.3588L116.076 89.258V89.2572C116.564 88.4357 116.875 87.442 116.875 86.5301C116.874 84.9052 115.886 84.158 114.668 84.8615Z" fill="#37474F"/>
<path d="M94.8345 65.8157C93.4392 65.008 91.5114 65.1227 89.3808 66.3528C85.1224 68.8119 81.6704 74.7915 81.6713 79.7088C81.6717 82.1763 82.5415 83.9063 83.946 84.7077C84.3114 84.9164 86.2946 86.0702 86.663 86.2831C88.0582 87.0895 89.9852 86.9744 92.1146 85.7451C96.3725 83.2864 99.8241 77.3069 99.8241 72.3891C99.8241 69.9317 98.9614 68.2059 97.5674 67.4003" fill="#E2B558"/>
<path d="M92.1132 67.9371C87.8552 70.3971 84.4028 76.3757 84.4037 81.2927C84.4041 86.21 87.8565 88.2034 92.1145 85.7447C96.3724 83.286 99.8286 77.3065 99.824 72.3887C99.8198 67.4722 96.3674 65.4789 92.1132 67.9371Z" fill="#E2B558"/>
<path d="M96.3707 78.8469V79.4081C95.2728 81.2821 93.77 82.9138 92.1136 83.8676C90.4541 84.8244 88.9547 84.929 87.8564 84.3183V83.1557C87.8564 80.9108 89.3806 78.2699 91.3252 77.1443L92.4445 76.5C93.4382 75.9263 94.4013 75.8528 95.159 76.2912C95.9322 76.7369 96.3707 77.6663 96.3707 78.8469Z" fill="#E2B558"/>
<path opacity="0.4" d="M94.8344 65.8157L97.5673 67.3995C96.1712 66.5915 94.2434 66.7057 92.114 67.9363C89.3256 69.5478 86.8829 72.6684 85.5288 76.0112L82.7959 74.4257C84.15 71.0829 86.5914 67.9623 89.3811 66.3521C91.5117 65.1231 93.4395 65.0081 94.8344 65.8157Z" fill="white"/>
<path opacity="0.2" d="M86.5599 86.2231C86.0786 85.945 84.2827 84.8992 83.945 84.7069C82.5405 83.9059 81.6703 82.1759 81.6703 79.7089L84.4032 81.2944C84.4049 83.6909 85.2264 85.3931 86.5599 86.2231Z" fill="black"/>
<path opacity="0.1" d="M82.7961 74.426L85.529 76.0115C84.8146 77.7738 84.4038 79.5971 84.4038 81.2926V81.2939L81.6709 79.7084C81.6709 78.0116 82.0829 76.1871 82.7961 74.426Z" fill="black"/>
<path d="M91.1442 76.2387C90.8771 76.2387 90.628 76.1745 90.4025 76.0455C89.8829 75.7452 89.5969 75.1509 89.5969 74.3727C89.5969 72.9476 90.5638 71.2722 91.799 70.5595V70.5582C92.4706 70.1689 93.1266 70.1206 93.6499 70.4205C94.1695 70.7208 94.4555 71.3151 94.4555 72.0933C94.4555 73.5184 93.4886 75.1938 92.2547 75.9065C91.8716 76.127 91.4945 76.2387 91.1442 76.2387Z" fill="white"/>
<path d="M95.159 76.2921C94.4013 75.8536 93.4382 75.9271 92.4445 76.5008L91.3252 77.1451C89.3806 78.2707 87.8564 80.9113 87.8564 83.1566V84.3191C88.9543 84.9294 90.4541 84.8252 92.1136 83.8685C93.7696 82.9147 95.2724 81.283 96.3707 79.4089V78.8478C96.3707 77.6663 95.9322 76.7369 95.159 76.2921Z" fill="white"/>
<path d="M181.505 148.952C181.505 148.952 182.062 144.047 184.502 140.24C186.942 136.433 190.295 134.057 193.423 133.81C196.551 133.562 199.078 136.44 195.73 138.417C192.383 140.393 186.437 142.41 183.7 149.802L181.505 148.952Z" fill="#7FB77E"/>
<path opacity="0.1" d="M181.505 148.952C181.505 148.952 182.062 144.047 184.502 140.24C186.942 136.433 190.295 134.057 193.423 133.81C196.551 133.562 199.078 136.44 195.73 138.417C192.383 140.393 186.437 142.41 183.7 149.802L181.505 148.952Z" fill="black"/>
<path d="M182.422 147.678C182.411 147.676 182.4 147.673 182.389 147.669C182.303 147.634 182.262 147.537 182.297 147.451C185.598 139.321 191.882 135.926 194.744 135.267C194.834 135.246 194.924 135.303 194.945 135.392C194.965 135.483 194.909 135.572 194.82 135.593C192.016 136.238 185.856 139.574 182.606 147.577C182.576 147.651 182.498 147.692 182.422 147.678Z" fill="white"/>
<path d="M199.132 147.774C198.849 148.413 198.152 148.745 197.503 149.007C196.858 149.265 196.15 149.549 195.8 150.152C195.094 151.372 196.253 153.086 195.495 154.274C195.177 154.772 194.585 155.034 194.004 155.138C193.52 155.229 193.029 155.228 192.538 155.269C192.303 155.264 192.069 155.248 191.842 155.215C191.169 155.118 190.44 155.086 189.824 155.43C188.854 155.975 188.556 157.199 187.968 158.143C187.262 159.272 186.014 160.012 184.703 160.19C184.267 160.248 183.457 160.327 183.013 160.079C182.978 160.06 182.95 160.042 182.922 160.021C182.919 160.02 182.916 160.017 182.914 160.013C182.853 159.944 182.776 159.857 182.743 159.809C182.735 159.801 182.731 159.791 182.726 159.781C182.554 159.148 182.835 158.49 182.846 157.837C182.847 157.796 182.847 157.757 182.845 157.718C182.818 156.959 182.797 156.204 182.778 155.447C182.743 154.053 182.727 152.657 182.737 151.261C182.747 150.355 182.637 149.363 183.021 148.51C183.445 147.571 184.501 147.551 184.9 146.63C185.06 146.262 185.145 145.869 185.299 145.498C185.761 144.409 186.879 143.627 188.063 143.569C189.905 143.475 191.559 144.967 193.4 144.831C193.877 144.794 194.341 144.649 194.811 144.562C196.303 144.283 198.028 144.708 198.867 145.971C199.219 146.499 199.389 147.195 199.132 147.774Z" fill="#7FB77E"/>
<path d="M182.576 156.878C182.571 156.877 182.567 156.876 182.563 156.875C182.479 156.853 182.429 156.767 182.452 156.683C184.998 147.13 195.063 145.75 197.418 145.92C197.503 145.927 197.569 146.001 197.563 146.088C197.557 146.174 197.481 146.239 197.395 146.233C195.092 146.067 185.247 147.418 182.755 156.764C182.734 156.844 182.655 156.893 182.576 156.878Z" fill="white"/>
<path d="M193.759 152.037C193.728 152.032 193.699 152.017 193.675 151.993C193.65 151.968 191.083 149.437 186.826 150.064C186.74 150.075 186.66 150.017 186.648 149.931C186.635 149.845 186.695 149.765 186.78 149.753C191.202 149.103 193.872 151.745 193.899 151.772C193.96 151.834 193.96 151.933 193.898 151.994C193.86 152.032 193.807 152.046 193.759 152.037Z" fill="white"/>
<path d="M158.388 33.6025L159.725 34.1166V31.172C159.725 28.8376 161.587 28.2782 163.608 29.445C165.629 30.6121 167.268 33.4505 167.268 35.7849V36.2124C167.727 36.0293 168.319 36.1003 168.967 36.4745C170.422 37.3145 171.601 39.3569 171.601 41.0365V41.231L173.464 42.307C174.422 42.8602 175.199 44.2054 175.199 45.3113C175.199 46.4176 174.422 46.8657 173.464 46.3126L158.387 37.6081C157.429 37.0549 156.653 35.7101 156.653 34.6038C156.654 33.4975 157.43 33.0494 158.388 33.6025Z" fill="#E6E6E6"/>
<path d="M176.277 31.2749L178.7 32.6739C178.687 32.5655 178.679 32.4584 178.679 32.353V31.6512C178.679 30.4021 179.556 29.8956 180.638 30.5201C181.076 30.773 181.479 31.1741 181.805 31.6428C181.983 30.072 183.215 29.4869 184.712 30.3513C186.33 31.2858 187.643 33.5584 187.643 35.427V36.4774C187.643 36.9617 187.553 37.3691 187.394 37.6941L189.407 38.8563C190.007 39.2028 190.494 40.0453 190.494 40.7383C190.494 41.4313 190.007 41.7123 189.407 41.3658L176.276 33.7848C175.676 33.4383 175.19 32.5958 175.19 31.9028C175.19 31.2093 175.676 30.9284 176.277 31.2749Z" fill="#E6E6E6"/>
<path d="M166.895 95.0174C165.131 97.9998 163.433 100.591 162.242 101.833C159.979 102.885 154.663 104.503 152.583 104.774C152.214 104.822 151.843 104.728 151.538 104.528C150.721 103.992 150.088 103.905 149.226 103.607C148.551 103.373 148.265 103.051 148.138 103.173C147.975 103.331 147.798 103.779 148.209 104.243C148.415 104.476 148.792 104.731 149.277 105.042C149.277 105.042 147.79 105.439 146.461 105.091C144.661 104.618 143.811 105.484 145.028 107.439C145.464 108.139 147.181 109.26 150.661 108.957C151.663 108.87 153.11 108.786 154.358 108.52C157.695 107.808 161.404 107.118 163.685 106.436C164.26 106.265 165.288 105.599 165.9 104.901C169.736 100.528 171.007 97.4126 172.688 94.581L172.543 89.9539C169.824 89.8694 168.37 92.5213 166.895 95.0174Z" fill="#FFA8A7"/>
<path d="M173.012 89.8695C173.012 89.8695 170.638 89.3646 168.853 91.6478C166.986 94.0371 163.684 99.7756 163.684 99.7756C163.684 99.7756 164.768 102.653 167.682 103.126L172.364 96.8016C172.364 96.8016 174.581 92.4239 173.012 89.8695Z" fill="#455A64"/>
<path d="M183.135 154.365H180.083V159.807H183.135V154.365Z" fill="#FFA8A7"/>
<path d="M172.552 154.075L169.502 154.184L169.349 148.425L172.552 148.315V154.075Z" fill="#FFA8A7"/>
<path d="M183.565 107.246C183.565 110.281 183.118 134.713 183.118 134.713C183.189 135.586 183.975 137.197 183.805 140.552C183.574 145.11 183.266 157.087 183.266 157.087C183.266 157.087 181.784 157.988 179.867 157.156C179.867 157.156 177.392 140.373 176.846 135.857C176.368 131.915 175.146 118.838 175.146 118.838L173.491 134.269C173.491 134.269 174.054 136.62 173.87 139.322C173.727 141.411 172.746 152.291 172.746 152.291C172.746 152.291 171.309 153.306 169.221 152.572C169.221 152.572 167.485 136.186 167.45 134.269C167.409 132.084 168.465 107.213 168.465 107.213L183.565 107.246Z" fill="#37474F"/>
<path d="M180.083 158.238V157.784C179.791 157.916 179.112 160.613 177.901 161.763C176.938 162.678 175.625 163.734 175.291 164.754C174.943 165.815 177.12 166.4 178.019 166.234C179.064 166.041 180.876 165.275 181.33 164.564C181.785 163.854 181.998 162.805 182.367 162.285C182.737 161.764 183.589 161.183 183.788 160.58C183.898 160.249 183.768 159.524 183.614 158.912C183.472 158.35 183.319 157.731 183.135 157.784C183.134 157.853 183.135 158.131 183.135 158.131C182.913 158.387 182.3 158.64 181.609 158.668C181.163 158.685 180.079 158.593 180.083 158.238Z" fill="#263238"/>
<path d="M169.469 153.204C169.311 153.21 169.182 153.442 168.832 153.837C168.41 154.313 167.719 154.827 167.037 155.182C165.894 155.778 163.672 156.695 162.666 157.167C162.038 157.462 162.067 158.252 162.717 158.702C163.366 159.152 164.934 159.476 166.817 159.037C167.842 158.798 169.178 157.812 170.023 157.865C170.868 157.918 172.449 157.906 173.073 157.458C173.696 157.01 173.447 156.054 173.27 155.232C173.078 154.334 172.837 152.936 172.552 152.997V153.306C172.185 153.885 170.291 154.121 169.485 153.694L169.469 153.204Z" fill="#263238"/>
<path d="M175.146 118.838C175.146 118.838 172.706 118.122 170.896 116.299C170.896 116.299 171.716 117.899 174.155 119.387L173.633 133.168L175.146 118.838Z" fill="#263238"/>
<path d="M181.856 90.3247C181.856 90.3247 184.366 90.9056 184.196 95.4559L183.668 102.704L183.683 113.582C181.438 116.125 171.488 115.939 168.081 113.378C168.081 113.378 168.467 100.505 168.697 95.5516C168.861 92.0299 169.671 90.2571 173.132 89.869L177.388 90.0563L181.856 90.3247Z" fill="#7FB77E"/>
<path d="M178.649 80.8647C178.649 83.4788 176.615 85.5977 174.105 85.5977C171.596 85.5977 170.11 83.4204 169.561 80.8647C168.556 76.1905 171.596 76.1317 174.105 76.1317C176.615 76.1317 178.649 78.2506 178.649 80.8647Z" fill="#263238"/>
<path d="M180.967 82.7794C180.967 82.7794 180.271 86.1898 179.991 86.7501C179.712 87.3104 179.134 87.4696 179.134 87.4696L179.182 85.0705L180.967 82.7794Z" fill="#263238"/>
<path d="M180.093 77.8936C180.093 77.8936 180.593 77.7684 181.124 78.5979C181.579 79.309 181.682 80.9062 180.968 82.7794L179.655 82.9365L180.093 77.8936Z" fill="#263238"/>
<path d="M180.576 78.5841L182.186 78.6139C182.225 78.1519 181.897 77.771 181.452 77.7626C181.008 77.7546 180.615 78.1221 180.576 78.5841Z" fill="#263238"/>
<path d="M180.773 78.2027L181.966 77.0557C181.671 76.7146 181.166 76.6949 180.836 77.0116C180.507 77.3278 180.478 77.8612 180.773 78.2027Z" fill="#263238"/>
<path d="M179.261 82.9374C179.524 83.1012 179.9 82.5745 180.224 82.2204C180.549 81.8668 181.568 81.5325 182.097 82.6929C182.636 83.8752 181.725 84.9996 180.967 85.3763C179.613 86.0496 179.182 85.0705 179.182 85.0705L179.073 90.4726C177.164 93.4252 172.84 93.3189 174.394 90.3298L174.399 88.6855C174.399 88.6855 173.096 88.8913 172.46 88.7892C171.403 88.6191 170.738 87.7501 170.417 86.5578C169.901 84.643 169.706 83.0965 170.143 79.3308C170.622 75.2031 175.232 75.1602 177.72 76.7919C180.21 78.424 179.261 82.9374 179.261 82.9374Z" fill="#FFA8A7"/>
<path d="M173.515 78.6865C174.616 78.5765 175.705 78.3526 176.808 78.2712C177.047 78.2535 177.291 78.243 177.523 78.3056C178.368 78.5341 178.259 79.5169 178.393 80.2036C178.624 81.3859 178.816 83.3901 179.261 83.3989C179.393 83.4015 179.897 82.5316 180.224 82.2208C180.437 82.0197 180.473 81.5858 180.518 81.3174C180.602 80.8273 180.648 80.3304 180.685 79.8352C180.717 79.4161 180.759 78.9893 180.757 78.5685C180.755 78.0964 180.765 77.616 180.647 77.1548C180.541 76.7361 180.345 76.4227 180.059 76.0964C180.031 76.0649 180.003 76.0338 179.975 76.0032C179.431 75.4177 178.739 74.9788 178.003 74.6755C176.948 74.2404 175.804 74.067 174.669 73.9506C173.533 73.8343 172.389 73.7713 171.27 73.5411C171.205 73.5277 171.135 73.5142 171.073 73.5378C170.976 73.5751 170.933 73.6881 170.913 73.7902C170.815 74.3084 171.048 74.8754 171.483 75.1741C170.722 75.2345 169.849 74.8381 169.115 74.6394C168.992 74.6058 168.852 74.5743 168.742 74.6407C168.666 74.6865 168.622 74.7705 168.595 74.8545C168.533 75.0493 168.547 75.2598 168.574 75.4626C168.656 76.062 168.861 76.6541 169.23 77.1329C169.762 77.8222 170.637 78.4438 171.5 78.6168C172.182 78.7542 172.818 78.7558 173.515 78.6865Z" fill="#263238"/>
<path d="M174.399 88.6859C174.399 88.6859 176.759 88.1908 177.584 87.7338C178.137 87.428 178.592 86.898 178.725 86.5582C178.725 86.5582 178.571 87.2878 178.077 87.9446C177.474 88.7481 174.399 89.3399 174.399 89.3399V88.6859Z" fill="#F28F8F"/>
<path d="M174.966 82.3228C174.966 82.6055 175.178 82.834 175.439 82.8335C175.7 82.8327 175.912 82.603 175.912 82.3203C175.912 82.0376 175.7 81.8092 175.439 81.8096C175.178 81.8104 174.966 82.0402 174.966 82.3228Z" fill="#263238"/>
<path d="M175.726 80.2829L176.738 80.8646C176.887 80.5617 176.782 80.1858 176.502 80.0254C176.222 79.865 175.875 79.98 175.726 80.2829Z" fill="#263238"/>
<path d="M174.612 85.7261L173.533 86.1482C173.639 86.4707 173.968 86.6375 174.266 86.5207C174.565 86.4044 174.72 86.0486 174.612 85.7261Z" fill="#F28F8F"/>
<path d="M170.627 80.7164L171.549 79.9763C171.361 79.7012 171.002 79.6437 170.747 79.8482C170.493 80.0523 170.438 80.4413 170.627 80.7164Z" fill="#263238"/>
<path d="M171.032 82.1826C171.032 82.4653 171.244 82.6937 171.505 82.6929C171.766 82.6921 171.978 82.4623 171.978 82.1797C171.978 81.897 171.766 81.6685 171.505 81.6689C171.244 81.6702 171.032 81.8999 171.032 82.1826Z" fill="#263238"/>
<path d="M173.563 81.787L173.508 84.7749L171.813 84.3859L173.563 81.787Z" fill="#F28F8F"/>
<path d="M133.272 106.796L135.903 105.277L136.946 104.014L134.315 105.533L133.272 106.796Z" fill="#7FB77E"/>
<path opacity="0.4" d="M133.272 106.796L135.903 105.277L136.946 104.014L134.315 105.533L133.272 106.796Z" fill="black"/>
<path d="M140.432 110.929L143.062 109.411L145.262 107.464L142.63 108.983L140.432 110.929Z" fill="#7FB77E"/>
<path opacity="0.4" d="M140.432 110.929L143.062 109.411L145.262 107.464L142.63 108.983L140.432 110.929Z" fill="black"/>
<path d="M162.802 116.178C163.378 116.912 163.799 117.99 163.889 119.041C163.312 118.308 162.892 117.23 162.802 116.178ZM168.918 116.258C168.033 110.23 164.795 104.267 160.934 102.039C159.082 100.968 157.368 100.929 155.995 101.732C155.593 101.965 154.103 102.825 153.516 103.162C153.469 103.188 153.421 103.213 153.378 103.244C153.27 103.304 153.162 103.373 153.058 103.446C152.86 103.585 152.67 103.74 152.489 103.917C152.462 103.939 152.436 103.969 152.407 103.995C152.329 104.073 152.251 104.159 152.178 104.245C152.087 104.349 151.996 104.457 151.914 104.569C151.742 104.798 151.578 105.044 151.431 105.312C151.357 105.441 151.284 105.579 151.215 105.722L129.578 93.2307L126.949 94.7461V96.4215L127.173 96.5508L127.38 96.6718V97.0258L126.949 97.2762V98.2518L130.126 104.979L133.27 106.797L134.315 105.532L137.087 107.19L138.68 109.919L140.433 110.929L142.631 108.982L145.329 110.541L146.236 114.28L150.757 116.888C150.986 117.846 151.275 118.784 151.612 119.699C151.642 119.794 151.677 119.889 151.716 119.993C153.218 123.944 155.61 127.324 158.305 128.883C158.65 129.082 158.987 129.246 159.319 129.371C159.51 129.449 159.699 129.509 159.885 129.561C160.054 129.608 160.222 129.647 160.39 129.673C160.947 129.772 161.487 129.768 161.992 129.669C162.066 129.651 162.139 129.634 162.212 129.617C162.316 129.596 162.419 129.565 162.519 129.526C162.597 129.496 162.674 129.466 162.752 129.436C162.834 129.405 162.916 129.366 162.994 129.323C163.072 129.289 163.145 129.25 163.219 129.207C163.257 129.185 163.296 129.163 163.331 129.142C163.348 129.138 163.365 129.125 163.383 129.112C163.983 128.766 165.464 127.911 165.866 127.682C167.865 126.525 169.16 123.593 169.16 119.448C169.16 118.395 169.078 117.324 168.918 116.258Z" fill="#7FB77E"/>
<path d="M162.03 121.263C160.992 120.663 160.151 118.882 160.151 117.284C160.151 115.686 160.992 114.876 162.03 115.476C163.068 116.075 163.91 117.856 163.91 119.454C163.909 121.052 163.068 121.862 162.03 121.263ZM166.289 117.773C165.404 111.75 162.165 105.787 158.305 103.559C156.517 102.527 154.864 102.45 153.516 103.162C153.469 103.188 153.422 103.214 153.378 103.244C153.27 103.304 153.162 103.373 153.059 103.447C152.86 103.585 152.67 103.74 152.489 103.918C152.463 103.939 152.437 103.969 152.407 103.995C152.329 104.073 152.251 104.159 152.178 104.246C152.087 104.349 151.996 104.457 151.915 104.569C151.742 104.798 151.578 105.044 151.431 105.312C151.358 105.441 151.284 105.58 151.215 105.722C150.857 106.456 150.572 107.311 150.382 108.278L126.949 94.7465V96.4218L127.174 96.5512L127.381 96.6722V97.0262L126.949 97.2765V98.2522L130.127 104.979L133.27 106.797L134.315 105.532L137.087 107.19L138.68 109.919L140.433 110.929L142.631 108.982L145.33 110.541L146.237 114.28L150.757 116.888C150.986 117.847 151.276 118.784 151.613 119.699C151.643 119.794 151.677 119.889 151.716 119.993C153.219 123.944 155.611 127.325 158.305 128.883C158.651 129.082 158.987 129.246 159.32 129.371C159.51 129.449 159.7 129.509 159.886 129.561C160.054 129.609 160.223 129.648 160.391 129.673C160.948 129.772 161.488 129.768 161.993 129.669C162.066 129.652 162.14 129.635 162.213 129.617C162.317 129.596 162.42 129.566 162.52 129.527C162.597 129.496 162.675 129.466 162.753 129.436C162.835 129.406 162.917 129.367 162.995 129.324C163.072 129.289 163.146 129.25 163.219 129.207C163.258 129.186 163.297 129.164 163.331 129.142C163.349 129.138 163.366 129.125 163.383 129.112C165.3 127.903 166.531 125.015 166.531 120.969C166.531 119.915 166.444 118.844 166.289 117.773Z" fill="#7FB77E"/>
<path opacity="0.4" d="M163.909 119.453C163.909 121.051 163.067 121.863 162.031 121.262C160.99 120.662 160.148 118.883 160.148 117.286C160.148 115.689 160.991 114.877 162.031 115.477C162.307 115.636 162.571 115.878 162.799 116.181C162.89 117.23 163.313 118.309 163.888 119.044C163.905 119.181 163.909 119.319 163.909 119.453Z" fill="black"/>
<path opacity="0.4" d="M168.66 119.449C168.66 123.439 167.437 126.108 165.731 127.18C166.57 125.593 167.03 123.465 167.03 120.969C167.03 119.888 166.942 118.793 166.783 117.702L166.783 117.701C166.332 114.63 165.281 111.575 163.849 109C162.421 106.432 160.59 104.302 158.555 103.127C157.722 102.646 156.901 102.353 156.111 102.243C156.164 102.213 156.209 102.187 156.246 102.166L156.246 102.166L156.247 102.165C157.43 101.473 158.949 101.47 160.684 102.473L160.684 102.473C162.509 103.526 164.228 105.491 165.605 107.967C166.978 110.437 167.989 113.377 168.423 116.331L168.424 116.332C168.58 117.375 168.66 118.421 168.66 119.449Z" fill="white" stroke="#7FB77E"/>
<path d="M166.53 120.968C166.53 125.014 165.3 127.903 163.382 129.112C163.983 128.767 165.464 127.911 165.865 127.683C167.864 126.525 169.16 123.593 169.16 119.448C169.16 119.296 169.154 119.141 169.151 118.988C168.247 119.509 167.334 120.036 166.521 120.506C166.524 120.661 166.53 120.815 166.53 120.968Z" fill="#7FB77E"/>
<path opacity="0.1" d="M166.53 120.968C166.53 125.014 165.3 127.903 163.382 129.112C163.983 128.767 165.464 127.911 165.865 127.683C167.864 126.525 169.16 123.593 169.16 119.448C169.16 119.296 169.154 119.141 169.151 118.988C168.247 119.509 167.334 120.036 166.521 120.506C166.524 120.661 166.53 120.815 166.53 120.968Z" fill="black"/>
<path opacity="0.15" d="M150.477 110.006V110.861L126.949 97.2766L127.381 97.0263V96.6722L150.477 110.006Z" fill="black"/>
<path opacity="0.15" d="M150.477 110.36V110.861L126.949 97.2766L127.381 97.0263V97.0221L150.477 110.36Z" fill="black"/>
<path opacity="0.15" d="M161.714 127.339C164.994 126.333 166.126 120.541 164.242 114.403C162.359 108.266 158.173 104.106 154.893 105.113C151.613 106.119 150.481 111.911 152.365 118.049C154.248 124.186 158.434 128.346 161.714 127.339Z" stroke="black" stroke-miterlimit="10"/>
<path opacity="0.4" d="M151.215 105.722C150.857 106.457 150.572 107.311 150.382 108.279L126.949 94.7466L129.579 93.2312L151.215 105.722Z" fill="white"/>
<path d="M181.652 107.038C182.881 104.714 184.282 99.4979 184.98 96.8653C185.97 93.1261 184.367 90.7732 182.547 90.6787C181.405 90.8526 177.657 104.492 177.657 104.492C177.242 104.824 171.537 107.715 169.704 108.442C169.379 108.571 169.018 108.565 168.689 108.446C167.809 108.124 167.209 108.185 166.348 108.099C165.674 108.031 165.332 107.791 165.247 107.936C165.138 108.121 165.087 108.585 165.578 108.93C165.825 109.104 166.233 109.259 166.753 109.443C166.753 109.443 165.779 109.781 164.479 109.752C162.717 109.713 162.083 110.479 163.449 112.265C164.306 113.383 165.682 113.736 168.783 112.664C169.677 112.355 170.887 111.754 172.013 111.345C174.343 110.499 174.941 110.407 176.729 109.806C179.309 108.937 181.107 108.069 181.652 107.038Z" fill="#FFA8A7"/>
<path d="M181.856 90.3247C182.928 90.4713 183.967 90.7136 184.59 91.5797C185.214 92.4457 185.733 93.6671 185.11 97.022C184.487 100.377 183.204 103.941 183.204 103.941C183.204 103.941 180.711 105.007 178.059 102.304L179.88 95.2563C179.88 95.2563 180.192 90.6783 181.856 90.3247Z" fill="#455A64"/>
</svg>
