<svg width="375" height="812" viewBox="0 0 375 812" fill="none" xmlns="http://www.w3.org/2000/svg">
<g clip-path="url(#clip0_574_847)">
<rect width="375" height="812" fill="white"/>
<path d="M131.821 518C131.371 518 131.021 517.883 130.771 517.65C130.538 517.4 130.421 517.05 130.421 516.6V501.775C130.421 501.325 130.538 500.983 130.771 500.75C131.021 500.5 131.371 500.375 131.821 500.375H140.946C141.296 500.375 141.563 500.467 141.746 500.65C141.929 500.817 142.021 501.067 142.021 501.4C142.021 501.75 141.929 502.017 141.746 502.2C141.563 502.383 141.296 502.475 140.946 502.475H132.921V508H140.396C140.763 508 141.029 508.092 141.196 508.275C141.379 508.458 141.471 508.717 141.471 509.05C141.471 509.4 141.379 509.667 141.196 509.85C141.029 510.017 140.763 510.1 140.396 510.1H132.921V515.9H140.946C141.296 515.9 141.563 515.992 141.746 516.175C141.929 516.358 142.021 516.617 142.021 516.95C142.021 517.3 141.929 517.567 141.746 517.75C141.563 517.917 141.296 518 140.946 518H131.821ZM149.373 518.175C149.023 518.175 148.715 518.083 148.448 517.9C148.198 517.717 147.99 517.433 147.823 517.05L143.648 507.35C143.515 507.05 143.465 506.767 143.498 506.5C143.531 506.233 143.656 506.025 143.873 505.875C144.09 505.708 144.381 505.625 144.748 505.625C145.065 505.625 145.315 505.7 145.498 505.85C145.681 506 145.848 506.258 145.998 506.625L149.773 515.925H149.073L152.923 506.625C153.073 506.258 153.24 506 153.423 505.85C153.623 505.7 153.898 505.625 154.248 505.625C154.548 505.625 154.781 505.708 154.948 505.875C155.131 506.025 155.24 506.233 155.273 506.5C155.323 506.75 155.281 507.025 155.148 507.325L150.923 517.05C150.773 517.433 150.565 517.717 150.298 517.9C150.031 518.083 149.723 518.175 149.373 518.175ZM163.142 518.225C161.808 518.225 160.658 517.975 159.692 517.475C158.742 516.958 158 516.233 157.467 515.3C156.95 514.35 156.692 513.225 156.692 511.925C156.692 510.658 156.95 509.55 157.467 508.6C157.983 507.65 158.692 506.908 159.592 506.375C160.492 505.842 161.517 505.575 162.667 505.575C163.517 505.575 164.275 505.717 164.942 506C165.608 506.267 166.175 506.667 166.642 507.2C167.125 507.717 167.483 508.35 167.717 509.1C167.967 509.85 168.092 510.692 168.092 511.625C168.092 511.908 168.008 512.125 167.842 512.275C167.675 512.408 167.425 512.475 167.092 512.475H158.692V510.925H166.392L165.967 511.275C165.967 510.442 165.842 509.733 165.592 509.15C165.358 508.567 165 508.125 164.517 507.825C164.05 507.508 163.467 507.35 162.767 507.35C161.983 507.35 161.317 507.533 160.767 507.9C160.233 508.267 159.825 508.775 159.542 509.425C159.258 510.075 159.117 510.833 159.117 511.7V511.85C159.117 513.317 159.458 514.425 160.142 515.175C160.842 515.908 161.85 516.275 163.167 516.275C163.667 516.275 164.192 516.208 164.742 516.075C165.308 515.942 165.842 515.717 166.342 515.4C166.625 515.233 166.875 515.158 167.092 515.175C167.325 515.192 167.508 515.267 167.642 515.4C167.792 515.533 167.883 515.7 167.917 515.9C167.95 516.1 167.917 516.308 167.817 516.525C167.717 516.725 167.542 516.908 167.292 517.075C166.725 517.458 166.067 517.75 165.317 517.95C164.567 518.133 163.842 518.225 163.142 518.225ZM163.667 504.05C163.533 504.25 163.367 504.367 163.167 504.4C162.983 504.433 162.8 504.4 162.617 504.3C162.433 504.2 162.3 504.058 162.217 503.875C162.15 503.692 162.167 503.492 162.267 503.275L164.292 499.35C164.425 499.083 164.592 498.908 164.792 498.825C165.008 498.742 165.225 498.733 165.442 498.8C165.675 498.85 165.867 498.95 166.017 499.1C166.183 499.25 166.283 499.442 166.317 499.675C166.35 499.892 166.292 500.108 166.142 500.325L163.667 504.05ZM172.094 518.175C171.694 518.175 171.386 518.067 171.169 517.85C170.953 517.617 170.844 517.3 170.844 516.9V506.9C170.844 506.483 170.953 506.167 171.169 505.95C171.386 505.733 171.686 505.625 172.069 505.625C172.469 505.625 172.769 505.733 172.969 505.95C173.186 506.167 173.294 506.483 173.294 506.9V508.85L173.019 508.4C173.386 507.467 173.961 506.767 174.744 506.3C175.528 505.817 176.428 505.575 177.444 505.575C178.411 505.575 179.211 505.758 179.844 506.125C180.494 506.475 180.978 507.017 181.294 507.75C181.611 508.467 181.769 509.375 181.769 510.475V516.9C181.769 517.3 181.661 517.617 181.444 517.85C181.228 518.067 180.919 518.175 180.519 518.175C180.103 518.175 179.786 518.067 179.569 517.85C179.353 517.617 179.244 517.3 179.244 516.9V510.625C179.244 509.575 179.036 508.808 178.619 508.325C178.219 507.842 177.586 507.6 176.719 507.6C175.703 507.6 174.886 507.917 174.269 508.55C173.669 509.183 173.369 510.033 173.369 511.1V516.9C173.369 517.75 172.944 518.175 172.094 518.175ZM190.974 518.225C189.64 518.225 188.49 517.975 187.524 517.475C186.574 516.958 185.832 516.233 185.299 515.3C184.782 514.35 184.524 513.225 184.524 511.925C184.524 510.658 184.782 509.55 185.299 508.6C185.815 507.65 186.524 506.908 187.424 506.375C188.324 505.842 189.349 505.575 190.499 505.575C191.349 505.575 192.107 505.717 192.774 506C193.44 506.267 194.007 506.667 194.474 507.2C194.957 507.717 195.315 508.35 195.549 509.1C195.799 509.85 195.924 510.692 195.924 511.625C195.924 511.908 195.84 512.125 195.674 512.275C195.507 512.408 195.257 512.475 194.924 512.475H186.524V510.925H194.224L193.799 511.275C193.799 510.442 193.674 509.733 193.424 509.15C193.19 508.567 192.832 508.125 192.349 507.825C191.882 507.508 191.299 507.35 190.599 507.35C189.815 507.35 189.149 507.533 188.599 507.9C188.065 508.267 187.657 508.775 187.374 509.425C187.09 510.075 186.949 510.833 186.949 511.7V511.85C186.949 513.317 187.29 514.425 187.974 515.175C188.674 515.908 189.682 516.275 190.999 516.275C191.499 516.275 192.024 516.208 192.574 516.075C193.14 515.942 193.674 515.717 194.174 515.4C194.457 515.233 194.707 515.158 194.924 515.175C195.157 515.192 195.34 515.267 195.474 515.4C195.624 515.533 195.715 515.7 195.749 515.9C195.782 516.1 195.749 516.308 195.649 516.525C195.549 516.725 195.374 516.908 195.124 517.075C194.557 517.458 193.899 517.75 193.149 517.95C192.399 518.133 191.674 518.225 190.974 518.225ZM199.976 518.175C199.576 518.175 199.268 518.067 199.051 517.85C198.835 517.617 198.726 517.3 198.726 516.9V506.9C198.726 506.483 198.835 506.167 199.051 505.95C199.268 505.733 199.568 505.625 199.951 505.625C200.351 505.625 200.651 505.733 200.851 505.95C201.068 506.167 201.176 506.483 201.176 506.9V508.95L200.901 508.4C201.235 507.517 201.751 506.825 202.451 506.325C203.151 505.825 203.993 505.575 204.976 505.575C205.993 505.575 206.818 505.817 207.451 506.3C208.085 506.783 208.518 507.525 208.751 508.525H208.401C208.718 507.608 209.26 506.892 210.026 506.375C210.793 505.842 211.685 505.575 212.701 505.575C213.635 505.575 214.401 505.758 215.001 506.125C215.601 506.475 216.051 507.017 216.351 507.75C216.651 508.467 216.801 509.375 216.801 510.475V516.9C216.801 517.3 216.685 517.617 216.451 517.85C216.235 518.067 215.926 518.175 215.526 518.175C215.126 518.175 214.818 518.067 214.601 517.85C214.385 517.617 214.276 517.3 214.276 516.9V510.6C214.276 509.567 214.093 508.808 213.726 508.325C213.376 507.842 212.793 507.6 211.976 507.6C211.06 507.6 210.335 507.917 209.801 508.55C209.268 509.183 209.001 510.058 209.001 511.175V516.9C209.001 517.3 208.893 517.617 208.676 517.85C208.46 518.067 208.151 518.175 207.751 518.175C207.351 518.175 207.035 518.067 206.801 517.85C206.585 517.617 206.476 517.3 206.476 516.9V510.6C206.476 509.567 206.301 508.808 205.951 508.325C205.601 507.842 205.018 507.6 204.201 507.6C203.285 507.6 202.56 507.917 202.026 508.55C201.51 509.183 201.251 510.058 201.251 511.175V516.9C201.251 517.75 200.826 518.175 199.976 518.175ZM226.057 518.225C224.723 518.225 223.573 517.975 222.607 517.475C221.657 516.958 220.915 516.233 220.382 515.3C219.865 514.35 219.607 513.225 219.607 511.925C219.607 510.658 219.865 509.55 220.382 508.6C220.898 507.65 221.607 506.908 222.507 506.375C223.407 505.842 224.432 505.575 225.582 505.575C226.432 505.575 227.19 505.717 227.857 506C228.523 506.267 229.09 506.667 229.557 507.2C230.04 507.717 230.398 508.35 230.632 509.1C230.882 509.85 231.007 510.692 231.007 511.625C231.007 511.908 230.923 512.125 230.757 512.275C230.59 512.408 230.34 512.475 230.007 512.475H221.607V510.925H229.307L228.882 511.275C228.882 510.442 228.757 509.733 228.507 509.15C228.273 508.567 227.915 508.125 227.432 507.825C226.965 507.508 226.382 507.35 225.682 507.35C224.898 507.35 224.232 507.533 223.682 507.9C223.148 508.267 222.74 508.775 222.457 509.425C222.173 510.075 222.032 510.833 222.032 511.7V511.85C222.032 513.317 222.373 514.425 223.057 515.175C223.757 515.908 224.765 516.275 226.082 516.275C226.582 516.275 227.107 516.208 227.657 516.075C228.223 515.942 228.757 515.717 229.257 515.4C229.54 515.233 229.79 515.158 230.007 515.175C230.24 515.192 230.423 515.267 230.557 515.4C230.707 515.533 230.798 515.7 230.832 515.9C230.865 516.1 230.832 516.308 230.732 516.525C230.632 516.725 230.457 516.908 230.207 517.075C229.64 517.458 228.982 517.75 228.232 517.95C227.482 518.133 226.757 518.225 226.057 518.225ZM235.009 518.175C234.609 518.175 234.301 518.067 234.084 517.85C233.868 517.617 233.759 517.3 233.759 516.9V506.9C233.759 506.483 233.868 506.167 234.084 505.95C234.301 505.733 234.601 505.625 234.984 505.625C235.384 505.625 235.684 505.733 235.884 505.95C236.101 506.167 236.209 506.483 236.209 506.9V508.85L235.934 508.4C236.301 507.467 236.876 506.767 237.659 506.3C238.443 505.817 239.343 505.575 240.359 505.575C241.326 505.575 242.126 505.758 242.759 506.125C243.409 506.475 243.893 507.017 244.209 507.75C244.526 508.467 244.684 509.375 244.684 510.475V516.9C244.684 517.3 244.576 517.617 244.359 517.85C244.143 518.067 243.834 518.175 243.434 518.175C243.018 518.175 242.701 518.067 242.484 517.85C242.268 517.617 242.159 517.3 242.159 516.9V510.625C242.159 509.575 241.951 508.808 241.534 508.325C241.134 507.842 240.501 507.6 239.634 507.6C238.618 507.6 237.801 507.917 237.184 508.55C236.584 509.183 236.284 510.033 236.284 511.1V516.9C236.284 517.75 235.859 518.175 235.009 518.175ZM253.364 518.225C252.364 518.225 251.522 518.05 250.839 517.7C250.155 517.35 249.647 516.833 249.314 516.15C248.98 515.467 248.814 514.633 248.814 513.65V507.75H247.314C246.98 507.75 246.722 507.667 246.539 507.5C246.355 507.317 246.264 507.075 246.264 506.775C246.264 506.458 246.355 506.217 246.539 506.05C246.722 505.883 246.98 505.8 247.314 505.8H248.814V503.225C248.814 502.808 248.922 502.492 249.139 502.275C249.372 502.058 249.689 501.95 250.089 501.95C250.489 501.95 250.797 502.058 251.014 502.275C251.23 502.492 251.339 502.808 251.339 503.225V505.8H254.264C254.597 505.8 254.855 505.883 255.039 506.05C255.222 506.217 255.314 506.458 255.314 506.775C255.314 507.075 255.222 507.317 255.039 507.5C254.855 507.667 254.597 507.75 254.264 507.75H251.339V513.45C251.339 514.333 251.522 515 251.889 515.45C252.272 515.9 252.889 516.125 253.739 516.125C254.039 516.125 254.297 516.1 254.514 516.05C254.747 515.983 254.939 515.942 255.089 515.925C255.272 515.925 255.422 515.992 255.539 516.125C255.655 516.242 255.714 516.475 255.714 516.825C255.714 517.075 255.664 517.308 255.564 517.525C255.48 517.742 255.322 517.883 255.089 517.95C254.889 518.017 254.614 518.075 254.264 518.125C253.93 518.192 253.63 518.225 253.364 518.225ZM261.57 518.225C260.836 518.225 260.078 518.142 259.295 517.975C258.528 517.808 257.82 517.525 257.17 517.125C256.953 516.975 256.803 516.808 256.72 516.625C256.636 516.442 256.603 516.258 256.62 516.075C256.653 515.875 256.728 515.708 256.845 515.575C256.978 515.425 257.136 515.333 257.32 515.3C257.52 515.267 257.728 515.308 257.945 515.425C258.595 515.792 259.22 516.05 259.82 516.2C260.42 516.333 261.011 516.4 261.595 516.4C262.478 516.4 263.145 516.242 263.595 515.925C264.045 515.608 264.27 515.183 264.27 514.65C264.27 514.217 264.12 513.883 263.82 513.65C263.52 513.4 263.07 513.208 262.47 513.075L260.095 512.6C259.061 512.383 258.278 512 257.745 511.45C257.211 510.9 256.945 510.2 256.945 509.35C256.945 508.583 257.153 507.917 257.57 507.35C257.986 506.783 258.57 506.35 259.32 506.05C260.07 505.733 260.936 505.575 261.92 505.575C262.653 505.575 263.345 505.667 263.995 505.85C264.645 506.033 265.245 506.308 265.795 506.675C266.011 506.792 266.153 506.95 266.22 507.15C266.286 507.333 266.295 507.517 266.245 507.7C266.211 507.883 266.128 508.05 265.995 508.2C265.861 508.333 265.695 508.417 265.495 508.45C265.311 508.467 265.103 508.417 264.87 508.3C264.37 507.983 263.87 507.758 263.37 507.625C262.886 507.492 262.403 507.425 261.92 507.425C261.036 507.425 260.37 507.592 259.92 507.925C259.486 508.242 259.27 508.675 259.27 509.225C259.27 509.642 259.403 509.983 259.67 510.25C259.936 510.517 260.353 510.708 260.92 510.825L263.295 511.3C264.378 511.517 265.195 511.883 265.745 512.4C266.311 512.917 266.595 513.617 266.595 514.5C266.595 515.65 266.136 516.558 265.22 517.225C264.303 517.892 263.086 518.225 261.57 518.225Z" fill="#1F7774"/>
<path d="M54.3153 549V537.364H58.2472C59.1563 537.364 59.9025 537.519 60.4858 537.83C61.0691 538.136 61.5009 538.559 61.7812 539.097C62.0616 539.634 62.2017 540.246 62.2017 540.932C62.2017 541.617 62.0616 542.225 61.7812 542.756C61.5009 543.286 61.071 543.703 60.4915 544.006C59.9119 544.305 59.1714 544.455 58.2699 544.455H55.0881V543.182H58.2244C58.8456 543.182 59.3456 543.091 59.7244 542.909C60.107 542.727 60.3835 542.47 60.554 542.136C60.7282 541.799 60.8153 541.398 60.8153 540.932C60.8153 540.466 60.7282 540.059 60.554 539.71C60.3797 539.362 60.1013 539.093 59.7188 538.903C59.3362 538.71 58.8305 538.614 58.2017 538.614H55.7244V549H54.3153ZM59.7926 543.773L62.6562 549H61.0199L58.2017 543.773H59.7926ZM67.9332 549.182C67.0923 549.182 66.367 548.996 65.7571 548.625C65.151 548.25 64.6832 547.727 64.3537 547.057C64.0279 546.383 63.8651 545.598 63.8651 544.705C63.8651 543.811 64.0279 543.023 64.3537 542.341C64.6832 541.655 65.1416 541.121 65.7287 540.739C66.3196 540.352 67.009 540.159 67.7969 540.159C68.2514 540.159 68.7003 540.235 69.1435 540.386C69.5866 540.538 69.9901 540.784 70.3537 541.125C70.7173 541.462 71.0071 541.909 71.223 542.466C71.4389 543.023 71.5469 543.708 71.5469 544.523V545.091H64.8196V543.932H70.1832C70.1832 543.439 70.0848 543 69.8878 542.614C69.6946 542.227 69.4181 541.922 69.0582 541.699C68.7022 541.475 68.2817 541.364 67.7969 541.364C67.2628 541.364 66.8007 541.496 66.4105 541.761C66.0241 542.023 65.7268 542.364 65.5185 542.784C65.3101 543.205 65.206 543.655 65.206 544.136V544.909C65.206 545.568 65.3196 546.127 65.5469 546.585C65.7779 547.04 66.098 547.386 66.5071 547.625C66.9162 547.86 67.3916 547.977 67.9332 547.977C68.2855 547.977 68.6037 547.928 68.8878 547.83C69.1757 547.727 69.4238 547.576 69.6321 547.375C69.8404 547.17 70.0014 546.917 70.1151 546.614L71.4105 546.977C71.2741 547.417 71.045 547.803 70.723 548.136C70.401 548.466 70.0033 548.723 69.5298 548.909C69.0563 549.091 68.5241 549.182 67.9332 549.182ZM76.8821 549.182C76.1548 549.182 75.5128 548.998 74.956 548.631C74.3991 548.259 73.9635 547.737 73.6491 547.062C73.3348 546.384 73.1776 545.583 73.1776 544.659C73.1776 543.742 73.3348 542.947 73.6491 542.273C73.9635 541.598 74.401 541.078 74.9616 540.71C75.5223 540.343 76.17 540.159 76.9048 540.159C77.473 540.159 77.9219 540.254 78.2514 540.443C78.5848 540.629 78.8385 540.841 79.0128 541.08C79.1908 541.314 79.3291 541.508 79.4276 541.659H79.5412V537.364H80.8821V549H79.5866V547.659H79.4276C79.3291 547.818 79.1889 548.019 79.0071 548.261C78.8253 548.5 78.5658 548.714 78.2287 548.903C77.8916 549.089 77.4427 549.182 76.8821 549.182ZM77.0639 547.977C77.6018 547.977 78.0563 547.837 78.4276 547.557C78.7988 547.273 79.081 546.881 79.2741 546.381C79.4673 545.877 79.5639 545.295 79.5639 544.636C79.5639 543.985 79.4692 543.415 79.2798 542.926C79.0904 542.434 78.8101 542.051 78.4389 541.778C78.0677 541.502 77.6094 541.364 77.0639 541.364C76.4957 541.364 76.0223 541.509 75.6435 541.801C75.2685 542.089 74.9863 542.481 74.7969 542.977C74.6113 543.47 74.5185 544.023 74.5185 544.636C74.5185 545.258 74.6132 545.822 74.8026 546.33C74.9957 546.833 75.2798 547.235 75.6548 547.534C76.0336 547.83 76.5033 547.977 77.0639 547.977ZM89.0241 545.432V540.273H90.3651V549H89.0241V547.523H88.9332C88.7287 547.966 88.4105 548.343 87.9787 548.653C87.5469 548.96 87.0014 549.114 86.3423 549.114C85.7969 549.114 85.312 548.994 84.8878 548.756C84.4635 548.513 84.1302 548.15 83.8878 547.665C83.6454 547.176 83.5241 546.561 83.5241 545.818V540.273H84.8651V545.727C84.8651 546.364 85.0431 546.871 85.3991 547.25C85.759 547.629 86.2173 547.818 86.7741 547.818C87.1075 547.818 87.4465 547.733 87.7912 547.562C88.1397 547.392 88.4313 547.131 88.6662 546.778C88.9048 546.426 89.0241 545.977 89.0241 545.432ZM96.3665 549.182C95.5483 549.182 94.8438 548.989 94.2528 548.602C93.6619 548.216 93.2074 547.684 92.8892 547.006C92.571 546.328 92.4119 545.553 92.4119 544.682C92.4119 543.795 92.5748 543.013 92.9006 542.335C93.2301 541.653 93.6884 541.121 94.2756 540.739C94.8665 540.352 95.5559 540.159 96.3438 540.159C96.9574 540.159 97.5104 540.273 98.0028 540.5C98.4953 540.727 98.8987 541.045 99.2131 541.455C99.5275 541.864 99.7225 542.341 99.7983 542.886H98.4574C98.3551 542.489 98.1278 542.136 97.7756 541.83C97.4271 541.519 96.9574 541.364 96.3665 541.364C95.8438 541.364 95.3854 541.5 94.9915 541.773C94.6013 542.042 94.2964 542.422 94.0767 542.915C93.8608 543.403 93.7528 543.977 93.7528 544.636C93.7528 545.311 93.8589 545.898 94.071 546.398C94.2869 546.898 94.59 547.286 94.9801 547.562C95.3741 547.839 95.8362 547.977 96.3665 547.977C96.715 547.977 97.0312 547.917 97.3153 547.795C97.5994 547.674 97.84 547.5 98.0369 547.273C98.2339 547.045 98.3741 546.773 98.4574 546.455H99.7983C99.7225 546.97 99.535 547.434 99.2358 547.847C98.9403 548.256 98.5483 548.581 98.0597 548.824C97.5748 549.062 97.0104 549.182 96.3665 549.182ZM105.418 549.182C104.577 549.182 103.851 548.996 103.241 548.625C102.635 548.25 102.168 547.727 101.838 547.057C101.512 546.383 101.349 545.598 101.349 544.705C101.349 543.811 101.512 543.023 101.838 542.341C102.168 541.655 102.626 541.121 103.213 540.739C103.804 540.352 104.493 540.159 105.281 540.159C105.736 540.159 106.185 540.235 106.628 540.386C107.071 540.538 107.474 540.784 107.838 541.125C108.202 541.462 108.491 541.909 108.707 542.466C108.923 543.023 109.031 543.708 109.031 544.523V545.091H102.304V543.932H107.668C107.668 543.439 107.569 543 107.372 542.614C107.179 542.227 106.902 541.922 106.543 541.699C106.187 541.475 105.766 541.364 105.281 541.364C104.747 541.364 104.285 541.496 103.895 541.761C103.509 542.023 103.211 542.364 103.003 542.784C102.795 543.205 102.69 543.655 102.69 544.136V544.909C102.69 545.568 102.804 546.127 103.031 546.585C103.262 547.04 103.582 547.386 103.991 547.625C104.401 547.86 104.876 547.977 105.418 547.977C105.77 547.977 106.088 547.928 106.372 547.83C106.66 547.727 106.908 547.576 107.116 547.375C107.325 547.17 107.486 546.917 107.599 546.614L108.895 546.977C108.759 547.417 108.529 547.803 108.207 548.136C107.885 548.466 107.488 548.723 107.014 548.909C106.541 549.091 106.009 549.182 105.418 549.182ZM116.435 552.273C116.207 552.273 116.005 552.254 115.827 552.216C115.649 552.182 115.526 552.148 115.457 552.114L115.798 550.932C116.124 551.015 116.412 551.045 116.662 551.023C116.912 551 117.134 550.888 117.327 550.688C117.524 550.491 117.704 550.17 117.866 549.727L118.116 549.045L114.889 540.273H116.344L118.753 547.227H118.844L121.253 540.273H122.707L119.003 550.273C118.836 550.723 118.63 551.097 118.384 551.392C118.137 551.691 117.851 551.913 117.526 552.057C117.204 552.201 116.84 552.273 116.435 552.273ZM127.71 549.182C126.922 549.182 126.231 548.994 125.636 548.619C125.045 548.244 124.583 547.72 124.25 547.045C123.92 546.371 123.756 545.583 123.756 544.682C123.756 543.773 123.92 542.979 124.25 542.301C124.583 541.623 125.045 541.097 125.636 540.722C126.231 540.347 126.922 540.159 127.71 540.159C128.498 540.159 129.188 540.347 129.778 540.722C130.373 541.097 130.835 541.623 131.165 542.301C131.498 542.979 131.665 543.773 131.665 544.682C131.665 545.583 131.498 546.371 131.165 547.045C130.835 547.72 130.373 548.244 129.778 548.619C129.188 548.994 128.498 549.182 127.71 549.182ZM127.71 547.977C128.309 547.977 128.801 547.824 129.188 547.517C129.574 547.21 129.86 546.807 130.045 546.307C130.231 545.807 130.324 545.265 130.324 544.682C130.324 544.098 130.231 543.555 130.045 543.051C129.86 542.547 129.574 542.14 129.188 541.83C128.801 541.519 128.309 541.364 127.71 541.364C127.112 541.364 126.619 541.519 126.233 541.83C125.847 542.14 125.561 542.547 125.375 543.051C125.189 543.555 125.097 544.098 125.097 544.682C125.097 545.265 125.189 545.807 125.375 546.307C125.561 546.807 125.847 547.21 126.233 547.517C126.619 547.824 127.112 547.977 127.71 547.977ZM139.212 545.432V540.273H140.553V549H139.212V547.523H139.121C138.916 547.966 138.598 548.343 138.166 548.653C137.734 548.96 137.189 549.114 136.53 549.114C135.984 549.114 135.5 548.994 135.075 548.756C134.651 548.513 134.318 548.15 134.075 547.665C133.833 547.176 133.712 546.561 133.712 545.818V540.273H135.053V545.727C135.053 546.364 135.231 546.871 135.587 547.25C135.946 547.629 136.405 547.818 136.962 547.818C137.295 547.818 137.634 547.733 137.979 547.562C138.327 547.392 138.619 547.131 138.854 546.778C139.092 546.426 139.212 545.977 139.212 545.432ZM143.009 549V540.273H144.304V541.591H144.395C144.554 541.159 144.842 540.809 145.259 540.54C145.675 540.271 146.145 540.136 146.668 540.136C146.766 540.136 146.889 540.138 147.037 540.142C147.185 540.146 147.296 540.152 147.372 540.159V541.523C147.327 541.511 147.223 541.494 147.06 541.472C146.901 541.445 146.732 541.432 146.554 541.432C146.13 541.432 145.751 541.521 145.418 541.699C145.088 541.873 144.827 542.116 144.634 542.426C144.444 542.733 144.349 543.083 144.349 543.477V549H143.009ZM157.007 549.182C156.189 549.182 155.484 548.989 154.893 548.602C154.303 548.216 153.848 547.684 153.53 547.006C153.212 546.328 153.053 545.553 153.053 544.682C153.053 543.795 153.215 543.013 153.541 542.335C153.871 541.653 154.329 541.121 154.916 540.739C155.507 540.352 156.196 540.159 156.984 540.159C157.598 540.159 158.151 540.273 158.643 540.5C159.136 540.727 159.539 541.045 159.854 541.455C160.168 541.864 160.363 542.341 160.439 542.886H159.098C158.996 542.489 158.768 542.136 158.416 541.83C158.068 541.519 157.598 541.364 157.007 541.364C156.484 541.364 156.026 541.5 155.632 541.773C155.242 542.042 154.937 542.422 154.717 542.915C154.501 543.403 154.393 543.977 154.393 544.636C154.393 545.311 154.5 545.898 154.712 546.398C154.928 546.898 155.231 547.286 155.621 547.562C156.015 547.839 156.477 547.977 157.007 547.977C157.356 547.977 157.672 547.917 157.956 547.795C158.24 547.674 158.481 547.5 158.678 547.273C158.875 547.045 159.015 546.773 159.098 546.455H160.439C160.363 546.97 160.176 547.434 159.876 547.847C159.581 548.256 159.189 548.581 158.7 548.824C158.215 549.062 157.651 549.182 157.007 549.182ZM164.967 549.205C164.414 549.205 163.912 549.1 163.462 548.892C163.011 548.68 162.653 548.375 162.388 547.977C162.123 547.576 161.99 547.091 161.99 546.523C161.99 546.023 162.089 545.617 162.286 545.307C162.482 544.992 162.746 544.746 163.075 544.568C163.405 544.39 163.768 544.258 164.166 544.17C164.568 544.08 164.971 544.008 165.376 543.955C165.907 543.886 166.337 543.835 166.666 543.801C167 543.763 167.242 543.701 167.393 543.614C167.549 543.527 167.626 543.375 167.626 543.159V543.114C167.626 542.553 167.473 542.117 167.166 541.807C166.863 541.496 166.403 541.341 165.786 541.341C165.145 541.341 164.643 541.481 164.28 541.761C163.916 542.042 163.661 542.341 163.513 542.659L162.24 542.205C162.467 541.674 162.77 541.261 163.149 540.966C163.532 540.667 163.948 540.458 164.399 540.341C164.854 540.22 165.301 540.159 165.74 540.159C166.02 540.159 166.342 540.193 166.706 540.261C167.073 540.326 167.428 540.46 167.768 540.665C168.113 540.869 168.399 541.178 168.626 541.591C168.854 542.004 168.967 542.557 168.967 543.25V549H167.626V547.818H167.558C167.467 548.008 167.316 548.21 167.104 548.426C166.892 548.642 166.609 548.826 166.257 548.977C165.905 549.129 165.475 549.205 164.967 549.205ZM165.172 548C165.702 548 166.149 547.896 166.513 547.688C166.88 547.479 167.157 547.21 167.342 546.881C167.532 546.551 167.626 546.205 167.626 545.841V544.614C167.57 544.682 167.445 544.744 167.251 544.801C167.062 544.854 166.842 544.902 166.592 544.943C166.346 544.981 166.106 545.015 165.871 545.045C165.64 545.072 165.452 545.095 165.308 545.114C164.96 545.159 164.634 545.233 164.331 545.335C164.032 545.434 163.789 545.583 163.604 545.784C163.422 545.981 163.331 546.25 163.331 546.591C163.331 547.057 163.503 547.409 163.848 547.648C164.196 547.883 164.638 548 165.172 548ZM171.415 549V540.273H172.71V541.591H172.801C172.96 541.159 173.248 540.809 173.665 540.54C174.081 540.271 174.551 540.136 175.074 540.136C175.172 540.136 175.295 540.138 175.443 540.142C175.591 540.146 175.703 540.152 175.778 540.159V541.523C175.733 541.511 175.629 541.494 175.466 541.472C175.307 541.445 175.138 541.432 174.96 541.432C174.536 541.432 174.157 541.521 173.824 541.699C173.494 541.873 173.233 542.116 173.04 542.426C172.85 542.733 172.756 543.083 172.756 543.477V549H171.415ZM177.55 549V537.364H178.891V541.659H179.004C179.103 541.508 179.239 541.314 179.413 541.08C179.591 540.841 179.845 540.629 180.175 540.443C180.508 540.254 180.959 540.159 181.527 540.159C182.262 540.159 182.91 540.343 183.47 540.71C184.031 541.078 184.468 541.598 184.783 542.273C185.097 542.947 185.254 543.742 185.254 544.659C185.254 545.583 185.097 546.384 184.783 547.062C184.468 547.737 184.033 548.259 183.476 548.631C182.919 548.998 182.277 549.182 181.55 549.182C180.989 549.182 180.54 549.089 180.203 548.903C179.866 548.714 179.607 548.5 179.425 548.261C179.243 548.019 179.103 547.818 179.004 547.659H178.845V549H177.55ZM178.868 544.636C178.868 545.295 178.964 545.877 179.158 546.381C179.351 546.881 179.633 547.273 180.004 547.557C180.375 547.837 180.83 547.977 181.368 547.977C181.929 547.977 182.396 547.83 182.771 547.534C183.15 547.235 183.434 546.833 183.624 546.33C183.817 545.822 183.913 545.258 183.913 544.636C183.913 544.023 183.819 543.47 183.629 542.977C183.444 542.481 183.161 542.089 182.783 541.801C182.408 541.509 181.936 541.364 181.368 541.364C180.822 541.364 180.364 541.502 179.993 541.778C179.622 542.051 179.341 542.434 179.152 542.926C178.963 543.415 178.868 543.985 178.868 544.636ZM190.851 549.182C190.063 549.182 189.372 548.994 188.777 548.619C188.186 548.244 187.724 547.72 187.391 547.045C187.061 546.371 186.896 545.583 186.896 544.682C186.896 543.773 187.061 542.979 187.391 542.301C187.724 541.623 188.186 541.097 188.777 540.722C189.372 540.347 190.063 540.159 190.851 540.159C191.639 540.159 192.328 540.347 192.919 540.722C193.514 541.097 193.976 541.623 194.305 542.301C194.639 542.979 194.805 543.773 194.805 544.682C194.805 545.583 194.639 546.371 194.305 547.045C193.976 547.72 193.514 548.244 192.919 548.619C192.328 548.994 191.639 549.182 190.851 549.182ZM190.851 547.977C191.449 547.977 191.942 547.824 192.328 547.517C192.714 547.21 193 546.807 193.186 546.307C193.372 545.807 193.464 545.265 193.464 544.682C193.464 544.098 193.372 543.555 193.186 543.051C193 542.547 192.714 542.14 192.328 541.83C191.942 541.519 191.449 541.364 190.851 541.364C190.252 541.364 189.76 541.519 189.374 541.83C188.987 542.14 188.701 542.547 188.516 543.051C188.33 543.555 188.237 544.098 188.237 544.682C188.237 545.265 188.33 545.807 188.516 546.307C188.701 546.807 188.987 547.21 189.374 547.517C189.76 547.824 190.252 547.977 190.851 547.977ZM198.193 543.75V549H196.852V540.273H198.148V541.636H198.261C198.466 541.193 198.777 540.837 199.193 540.568C199.61 540.295 200.148 540.159 200.807 540.159C201.398 540.159 201.915 540.28 202.358 540.523C202.801 540.761 203.146 541.125 203.392 541.614C203.638 542.098 203.761 542.712 203.761 543.455V549H202.42V543.545C202.42 542.86 202.242 542.326 201.886 541.943C201.53 541.557 201.042 541.364 200.42 541.364C199.992 541.364 199.61 541.456 199.273 541.642C198.939 541.828 198.676 542.098 198.483 542.455C198.29 542.811 198.193 543.242 198.193 543.75ZM214.598 540.273V541.409H209.893V540.273H214.598ZM211.303 549V539.068C211.303 538.568 211.42 538.152 211.655 537.818C211.89 537.485 212.195 537.235 212.57 537.068C212.945 536.902 213.34 536.818 213.757 536.818C214.087 536.818 214.356 536.845 214.564 536.898C214.772 536.951 214.928 537 215.03 537.045L214.643 538.205C214.575 538.182 214.481 538.153 214.359 538.119C214.242 538.085 214.087 538.068 213.893 538.068C213.45 538.068 213.13 538.18 212.933 538.403C212.74 538.627 212.643 538.955 212.643 539.386V549H211.303ZM219.663 549.182C218.875 549.182 218.184 548.994 217.589 548.619C216.999 548.244 216.536 547.72 216.203 547.045C215.874 546.371 215.709 545.583 215.709 544.682C215.709 543.773 215.874 542.979 216.203 542.301C216.536 541.623 216.999 541.097 217.589 540.722C218.184 540.347 218.875 540.159 219.663 540.159C220.451 540.159 221.141 540.347 221.732 540.722C222.326 541.097 222.788 541.623 223.118 542.301C223.451 542.979 223.618 543.773 223.618 544.682C223.618 545.583 223.451 546.371 223.118 547.045C222.788 547.72 222.326 548.244 221.732 548.619C221.141 548.994 220.451 549.182 219.663 549.182ZM219.663 547.977C220.262 547.977 220.754 547.824 221.141 547.517C221.527 547.21 221.813 546.807 221.999 546.307C222.184 545.807 222.277 545.265 222.277 544.682C222.277 544.098 222.184 543.555 221.999 543.051C221.813 542.547 221.527 542.14 221.141 541.83C220.754 541.519 220.262 541.364 219.663 541.364C219.065 541.364 218.572 541.519 218.186 541.83C217.8 542.14 217.514 542.547 217.328 543.051C217.143 543.555 217.05 544.098 217.05 544.682C217.05 545.265 217.143 545.807 217.328 546.307C217.514 546.807 217.8 547.21 218.186 547.517C218.572 547.824 219.065 547.977 219.663 547.977ZM229.21 549.182C228.422 549.182 227.731 548.994 227.136 548.619C226.545 548.244 226.083 547.72 225.75 547.045C225.42 546.371 225.256 545.583 225.256 544.682C225.256 543.773 225.42 542.979 225.75 542.301C226.083 541.623 226.545 541.097 227.136 540.722C227.731 540.347 228.422 540.159 229.21 540.159C229.998 540.159 230.688 540.347 231.278 540.722C231.873 541.097 232.335 541.623 232.665 542.301C232.998 542.979 233.165 543.773 233.165 544.682C233.165 545.583 232.998 546.371 232.665 547.045C232.335 547.72 231.873 548.244 231.278 548.619C230.688 548.994 229.998 549.182 229.21 549.182ZM229.21 547.977C229.809 547.977 230.301 547.824 230.688 547.517C231.074 547.21 231.36 546.807 231.545 546.307C231.731 545.807 231.824 545.265 231.824 544.682C231.824 544.098 231.731 543.555 231.545 543.051C231.36 542.547 231.074 542.14 230.688 541.83C230.301 541.519 229.809 541.364 229.21 541.364C228.612 541.364 228.119 541.519 227.733 541.83C227.347 542.14 227.061 542.547 226.875 543.051C226.689 543.555 226.597 544.098 226.597 544.682C226.597 545.265 226.689 545.807 226.875 546.307C227.061 546.807 227.347 547.21 227.733 547.517C228.119 547.824 228.612 547.977 229.21 547.977ZM239.007 540.273V541.409H234.484V540.273H239.007ZM235.803 538.182H237.143V546.5C237.143 546.879 237.198 547.163 237.308 547.352C237.422 547.538 237.566 547.663 237.74 547.727C237.918 547.788 238.106 547.818 238.303 547.818C238.45 547.818 238.571 547.811 238.666 547.795C238.761 547.777 238.837 547.761 238.893 547.75L239.166 548.955C239.075 548.989 238.948 549.023 238.786 549.057C238.623 549.095 238.416 549.114 238.166 549.114C237.787 549.114 237.416 549.032 237.053 548.869C236.693 548.706 236.393 548.458 236.155 548.125C235.92 547.792 235.803 547.371 235.803 546.864V538.182ZM241.024 552.273V540.273H242.32V541.659H242.479C242.577 541.508 242.714 541.314 242.888 541.08C243.066 540.841 243.32 540.629 243.649 540.443C243.982 540.254 244.433 540.159 245.001 540.159C245.736 540.159 246.384 540.343 246.945 540.71C247.505 541.078 247.943 541.598 248.257 542.273C248.571 542.947 248.729 543.742 248.729 544.659C248.729 545.583 248.571 546.384 248.257 547.062C247.943 547.737 247.507 548.259 246.95 548.631C246.393 548.998 245.751 549.182 245.024 549.182C244.464 549.182 244.015 549.089 243.678 548.903C243.34 548.714 243.081 548.5 242.899 548.261C242.717 548.019 242.577 547.818 242.479 547.659H242.365V552.273H241.024ZM242.342 544.636C242.342 545.295 242.439 545.877 242.632 546.381C242.825 546.881 243.107 547.273 243.479 547.557C243.85 547.837 244.304 547.977 244.842 547.977C245.403 547.977 245.871 547.83 246.246 547.534C246.625 547.235 246.909 546.833 247.098 546.33C247.291 545.822 247.388 545.258 247.388 544.636C247.388 544.023 247.293 543.47 247.104 542.977C246.918 542.481 246.636 542.089 246.257 541.801C245.882 541.509 245.411 541.364 244.842 541.364C244.297 541.364 243.839 541.502 243.467 541.778C243.096 542.051 242.816 542.434 242.626 542.926C242.437 543.415 242.342 543.985 242.342 544.636ZM250.774 549V540.273H252.07V541.591H252.161C252.32 541.159 252.607 540.809 253.024 540.54C253.441 540.271 253.911 540.136 254.433 540.136C254.532 540.136 254.655 540.138 254.803 540.142C254.95 540.146 255.062 540.152 255.138 540.159V541.523C255.092 541.511 254.988 541.494 254.825 541.472C254.666 541.445 254.498 541.432 254.32 541.432C253.895 541.432 253.517 541.521 253.183 541.699C252.854 541.873 252.592 542.116 252.399 542.426C252.21 542.733 252.115 543.083 252.115 543.477V549H250.774ZM256.727 549V540.273H258.068V549H256.727ZM257.409 538.818C257.148 538.818 256.922 538.729 256.733 538.551C256.547 538.373 256.455 538.159 256.455 537.909C256.455 537.659 256.547 537.445 256.733 537.267C256.922 537.089 257.148 537 257.409 537C257.67 537 257.894 537.089 258.08 537.267C258.269 537.445 258.364 537.659 258.364 537.909C258.364 538.159 258.269 538.373 258.08 538.551C257.894 538.729 257.67 538.818 257.409 538.818ZM261.865 543.75V549H260.524V540.273H261.82V541.636H261.933C262.138 541.193 262.448 540.837 262.865 540.568C263.282 540.295 263.82 540.159 264.479 540.159C265.07 540.159 265.587 540.28 266.03 540.523C266.473 540.761 266.818 541.125 267.064 541.614C267.31 542.098 267.433 542.712 267.433 543.455V549H266.092V543.545C266.092 542.86 265.914 542.326 265.558 541.943C265.202 541.557 264.714 541.364 264.092 541.364C263.664 541.364 263.282 541.456 262.945 541.642C262.611 541.828 262.348 542.098 262.155 542.455C261.962 542.811 261.865 543.242 261.865 543.75ZM273.679 540.273V541.409H269.156V540.273H273.679ZM270.474 538.182H271.815V546.5C271.815 546.879 271.87 547.163 271.98 547.352C272.094 547.538 272.238 547.663 272.412 547.727C272.59 547.788 272.777 547.818 272.974 547.818C273.122 547.818 273.243 547.811 273.338 547.795C273.433 547.777 273.509 547.761 273.565 547.75L273.838 548.955C273.747 548.989 273.62 549.023 273.457 549.057C273.295 549.095 273.088 549.114 272.838 549.114C272.459 549.114 272.088 549.032 271.724 548.869C271.365 548.706 271.065 548.458 270.827 548.125C270.592 547.792 270.474 547.371 270.474 546.864V538.182ZM282.764 549.205C282.211 549.205 281.709 549.1 281.259 548.892C280.808 548.68 280.45 548.375 280.185 547.977C279.92 547.576 279.787 547.091 279.787 546.523C279.787 546.023 279.885 545.617 280.082 545.307C280.279 544.992 280.543 544.746 280.872 544.568C281.202 544.39 281.565 544.258 281.963 544.17C282.365 544.08 282.768 544.008 283.173 543.955C283.704 543.886 284.134 543.835 284.463 543.801C284.796 543.763 285.039 543.701 285.19 543.614C285.346 543.527 285.423 543.375 285.423 543.159V543.114C285.423 542.553 285.27 542.117 284.963 541.807C284.66 541.496 284.2 541.341 283.582 541.341C282.942 541.341 282.44 541.481 282.077 541.761C281.713 542.042 281.457 542.341 281.31 542.659L280.037 542.205C280.264 541.674 280.567 541.261 280.946 540.966C281.329 540.667 281.745 540.458 282.196 540.341C282.651 540.22 283.098 540.159 283.537 540.159C283.817 540.159 284.139 540.193 284.503 540.261C284.87 540.326 285.224 540.46 285.565 540.665C285.91 540.869 286.196 541.178 286.423 541.591C286.651 542.004 286.764 542.557 286.764 543.25V549H285.423V547.818H285.355C285.264 548.008 285.113 548.21 284.901 548.426C284.688 548.642 284.406 548.826 284.054 548.977C283.702 549.129 283.272 549.205 282.764 549.205ZM282.969 548C283.499 548 283.946 547.896 284.31 547.688C284.677 547.479 284.954 547.21 285.139 546.881C285.329 546.551 285.423 546.205 285.423 545.841V544.614C285.366 544.682 285.241 544.744 285.048 544.801C284.859 544.854 284.639 544.902 284.389 544.943C284.143 544.981 283.902 545.015 283.668 545.045C283.437 545.072 283.249 545.095 283.105 545.114C282.757 545.159 282.431 545.233 282.128 545.335C281.829 545.434 281.586 545.583 281.401 545.784C281.219 545.981 281.128 546.25 281.128 546.591C281.128 547.057 281.3 547.409 281.645 547.648C281.993 547.883 282.435 548 282.969 548ZM290.553 543.75V549H289.212V540.273H290.507V541.636H290.621C290.825 541.193 291.136 540.837 291.553 540.568C291.969 540.295 292.507 540.159 293.166 540.159C293.757 540.159 294.274 540.28 294.717 540.523C295.161 540.761 295.505 541.125 295.751 541.614C295.998 542.098 296.121 542.712 296.121 543.455V549H294.78V543.545C294.78 542.86 294.602 542.326 294.246 541.943C293.89 541.557 293.401 541.364 292.78 541.364C292.352 541.364 291.969 541.456 291.632 541.642C291.299 541.828 291.036 542.098 290.842 542.455C290.649 542.811 290.553 543.242 290.553 543.75ZM301.866 549.182C301.139 549.182 300.497 548.998 299.94 548.631C299.384 548.259 298.948 547.737 298.634 547.062C298.319 546.384 298.162 545.583 298.162 544.659C298.162 543.742 298.319 542.947 298.634 542.273C298.948 541.598 299.385 541.078 299.946 540.71C300.507 540.343 301.154 540.159 301.889 540.159C302.457 540.159 302.906 540.254 303.236 540.443C303.569 540.629 303.823 540.841 303.997 541.08C304.175 541.314 304.313 541.508 304.412 541.659H304.526V537.364H305.866V549H304.571V547.659H304.412C304.313 547.818 304.173 548.019 303.991 548.261C303.81 548.5 303.55 548.714 303.213 548.903C302.876 549.089 302.427 549.182 301.866 549.182ZM302.048 547.977C302.586 547.977 303.041 547.837 303.412 547.557C303.783 547.273 304.065 546.881 304.259 546.381C304.452 545.877 304.548 545.295 304.548 544.636C304.548 543.985 304.454 543.415 304.264 542.926C304.075 542.434 303.795 542.051 303.423 541.778C303.052 541.502 302.594 541.364 302.048 541.364C301.48 541.364 301.007 541.509 300.628 541.801C300.253 542.089 299.971 542.481 299.781 542.977C299.596 543.47 299.503 544.023 299.503 544.636C299.503 545.258 299.598 545.822 299.787 546.33C299.98 546.833 300.264 547.235 300.639 547.534C301.018 547.83 301.488 547.977 302.048 547.977ZM314.349 543.75V549H313.009V537.364H314.349V541.636H314.463C314.668 541.186 314.974 540.828 315.384 540.562C315.796 540.294 316.346 540.159 317.031 540.159C317.626 540.159 318.147 540.278 318.594 540.517C319.041 540.752 319.387 541.114 319.634 541.602C319.884 542.087 320.009 542.705 320.009 543.455V549H318.668V543.545C318.668 542.852 318.488 542.316 318.128 541.938C317.772 541.555 317.277 541.364 316.645 541.364C316.205 541.364 315.812 541.456 315.463 541.642C315.118 541.828 314.846 542.098 314.645 542.455C314.448 542.811 314.349 543.242 314.349 543.75ZM326.121 549.182C325.28 549.182 324.554 548.996 323.945 548.625C323.339 548.25 322.871 547.727 322.541 547.057C322.215 546.383 322.053 545.598 322.053 544.705C322.053 543.811 322.215 543.023 322.541 542.341C322.871 541.655 323.329 541.121 323.916 540.739C324.507 540.352 325.196 540.159 325.984 540.159C326.439 540.159 326.888 540.235 327.331 540.386C327.774 540.538 328.178 540.784 328.541 541.125C328.905 541.462 329.195 541.909 329.411 542.466C329.626 543.023 329.734 543.708 329.734 544.523V545.091H323.007V543.932H328.371C328.371 543.439 328.272 543 328.075 542.614C327.882 542.227 327.606 541.922 327.246 541.699C326.89 541.475 326.469 541.364 325.984 541.364C325.45 541.364 324.988 541.496 324.598 541.761C324.212 542.023 323.914 542.364 323.706 542.784C323.498 543.205 323.393 543.655 323.393 544.136V544.909C323.393 545.568 323.507 546.127 323.734 546.585C323.965 547.04 324.286 547.386 324.695 547.625C325.104 547.86 325.579 547.977 326.121 547.977C326.473 547.977 326.791 547.928 327.075 547.83C327.363 547.727 327.611 547.576 327.82 547.375C328.028 547.17 328.189 546.917 328.303 546.614L329.598 546.977C329.462 547.417 329.232 547.803 328.911 548.136C328.589 548.466 328.191 548.723 327.717 548.909C327.244 549.091 326.712 549.182 326.121 549.182ZM333.115 537.364V549H331.774V537.364H333.115ZM335.571 552.273V540.273H336.866V541.659H337.026C337.124 541.508 337.26 541.314 337.435 541.08C337.613 540.841 337.866 540.629 338.196 540.443C338.529 540.254 338.98 540.159 339.548 540.159C340.283 540.159 340.931 540.343 341.491 540.71C342.052 541.078 342.49 541.598 342.804 542.273C343.118 542.947 343.276 543.742 343.276 544.659C343.276 545.583 343.118 546.384 342.804 547.062C342.49 547.737 342.054 548.259 341.497 548.631C340.94 548.998 340.298 549.182 339.571 549.182C339.01 549.182 338.562 549.089 338.224 548.903C337.887 548.714 337.628 548.5 337.446 548.261C337.264 548.019 337.124 547.818 337.026 547.659H336.912V552.273H335.571ZM336.889 544.636C336.889 545.295 336.986 545.877 337.179 546.381C337.372 546.881 337.654 547.273 338.026 547.557C338.397 547.837 338.851 547.977 339.389 547.977C339.95 547.977 340.418 547.83 340.793 547.534C341.171 547.235 341.455 546.833 341.645 546.33C341.838 545.822 341.935 545.258 341.935 544.636C341.935 544.023 341.84 543.47 341.651 542.977C341.465 542.481 341.183 542.089 340.804 541.801C340.429 541.509 339.957 541.364 339.389 541.364C338.844 541.364 338.385 541.502 338.014 541.778C337.643 542.051 337.363 542.434 337.173 542.926C336.984 543.415 336.889 543.985 336.889 544.636ZM98.4837 563.273V564.409H93.9609V563.273H98.4837ZM95.2791 561.182H96.62V569.5C96.62 569.879 96.675 570.163 96.7848 570.352C96.8984 570.538 97.0424 570.663 97.2166 570.727C97.3946 570.788 97.5821 570.818 97.7791 570.818C97.9268 570.818 98.0481 570.811 98.1428 570.795C98.2375 570.777 98.3132 570.761 98.37 570.75L98.6428 571.955C98.5518 571.989 98.425 572.023 98.2621 572.057C98.0992 572.095 97.8928 572.114 97.6428 572.114C97.264 572.114 96.8928 572.032 96.5291 571.869C96.1693 571.706 95.87 571.458 95.6314 571.125C95.3965 570.792 95.2791 570.371 95.2791 569.864V561.182ZM103.952 572.182C103.165 572.182 102.473 571.994 101.879 571.619C101.288 571.244 100.826 570.72 100.492 570.045C100.163 569.371 99.9979 568.583 99.9979 567.682C99.9979 566.773 100.163 565.979 100.492 565.301C100.826 564.623 101.288 564.097 101.879 563.722C102.473 563.347 103.165 563.159 103.952 563.159C104.74 563.159 105.43 563.347 106.021 563.722C106.615 564.097 107.077 564.623 107.407 565.301C107.74 565.979 107.907 566.773 107.907 567.682C107.907 568.583 107.74 569.371 107.407 570.045C107.077 570.72 106.615 571.244 106.021 571.619C105.43 571.994 104.74 572.182 103.952 572.182ZM103.952 570.977C104.551 570.977 105.043 570.824 105.43 570.517C105.816 570.21 106.102 569.807 106.288 569.307C106.473 568.807 106.566 568.265 106.566 567.682C106.566 567.098 106.473 566.555 106.288 566.051C106.102 565.547 105.816 565.14 105.43 564.83C105.043 564.519 104.551 564.364 103.952 564.364C103.354 564.364 102.862 564.519 102.475 564.83C102.089 565.14 101.803 565.547 101.617 566.051C101.432 566.555 101.339 567.098 101.339 567.682C101.339 568.265 101.432 568.807 101.617 569.307C101.803 569.807 102.089 570.21 102.475 570.517C102.862 570.824 103.354 570.977 103.952 570.977ZM114.454 572V563.273H115.749V564.591H115.84C115.999 564.159 116.287 563.809 116.704 563.54C117.121 563.271 117.59 563.136 118.113 563.136C118.211 563.136 118.335 563.138 118.482 563.142C118.63 563.146 118.742 563.152 118.817 563.159V564.523C118.772 564.511 118.668 564.494 118.505 564.472C118.346 564.445 118.177 564.432 117.999 564.432C117.575 564.432 117.196 564.521 116.863 564.699C116.533 564.873 116.272 565.116 116.079 565.426C115.889 565.733 115.795 566.083 115.795 566.477V572H114.454ZM123.8 572.182C122.96 572.182 122.234 571.996 121.624 571.625C121.018 571.25 120.55 570.727 120.221 570.057C119.895 569.383 119.732 568.598 119.732 567.705C119.732 566.811 119.895 566.023 120.221 565.341C120.55 564.655 121.009 564.121 121.596 563.739C122.187 563.352 122.876 563.159 123.664 563.159C124.119 563.159 124.567 563.235 125.011 563.386C125.454 563.538 125.857 563.784 126.221 564.125C126.585 564.462 126.874 564.909 127.09 565.466C127.306 566.023 127.414 566.708 127.414 567.523V568.091H120.687V566.932H126.05C126.05 566.439 125.952 566 125.755 565.614C125.562 565.227 125.285 564.922 124.925 564.699C124.569 564.475 124.149 564.364 123.664 564.364C123.13 564.364 122.668 564.496 122.278 564.761C121.891 565.023 121.594 565.364 121.386 565.784C121.177 566.205 121.073 566.655 121.073 567.136V567.909C121.073 568.568 121.187 569.127 121.414 569.585C121.645 570.04 121.965 570.386 122.374 570.625C122.783 570.86 123.259 570.977 123.8 570.977C124.153 570.977 124.471 570.928 124.755 570.83C125.043 570.727 125.291 570.576 125.499 570.375C125.708 570.17 125.869 569.917 125.982 569.614L127.278 569.977C127.141 570.417 126.912 570.803 126.59 571.136C126.268 571.466 125.871 571.723 125.397 571.909C124.924 572.091 124.391 572.182 123.8 572.182ZM132.749 572.182C132.022 572.182 131.38 571.998 130.823 571.631C130.266 571.259 129.831 570.737 129.516 570.062C129.202 569.384 129.045 568.583 129.045 567.659C129.045 566.742 129.202 565.947 129.516 565.273C129.831 564.598 130.268 564.078 130.829 563.71C131.389 563.343 132.037 563.159 132.772 563.159C133.34 563.159 133.789 563.254 134.119 563.443C134.452 563.629 134.706 563.841 134.88 564.08C135.058 564.314 135.196 564.508 135.295 564.659H135.408V560.364H136.749V572H135.454V570.659H135.295C135.196 570.818 135.056 571.019 134.874 571.261C134.692 571.5 134.433 571.714 134.096 571.903C133.759 572.089 133.31 572.182 132.749 572.182ZM132.931 570.977C133.469 570.977 133.924 570.837 134.295 570.557C134.666 570.273 134.948 569.881 135.141 569.381C135.335 568.877 135.431 568.295 135.431 567.636C135.431 566.985 135.336 566.415 135.147 565.926C134.958 565.434 134.677 565.051 134.306 564.778C133.935 564.502 133.477 564.364 132.931 564.364C132.363 564.364 131.889 564.509 131.511 564.801C131.136 565.089 130.853 565.481 130.664 565.977C130.478 566.47 130.386 567.023 130.386 567.636C130.386 568.258 130.48 568.822 130.67 569.33C130.863 569.833 131.147 570.235 131.522 570.534C131.901 570.83 132.371 570.977 132.931 570.977ZM144.891 568.432V563.273H146.232V572H144.891V570.523H144.8C144.596 570.966 144.278 571.343 143.846 571.653C143.414 571.96 142.869 572.114 142.21 572.114C141.664 572.114 141.179 571.994 140.755 571.756C140.331 571.513 139.997 571.15 139.755 570.665C139.513 570.176 139.391 569.561 139.391 568.818V563.273H140.732V568.727C140.732 569.364 140.91 569.871 141.266 570.25C141.626 570.629 142.085 570.818 142.641 570.818C142.975 570.818 143.314 570.733 143.658 570.562C144.007 570.392 144.299 570.131 144.533 569.778C144.772 569.426 144.891 568.977 144.891 568.432ZM152.234 572.182C151.415 572.182 150.711 571.989 150.12 571.602C149.529 571.216 149.075 570.684 148.756 570.006C148.438 569.328 148.279 568.553 148.279 567.682C148.279 566.795 148.442 566.013 148.768 565.335C149.097 564.653 149.556 564.121 150.143 563.739C150.734 563.352 151.423 563.159 152.211 563.159C152.825 563.159 153.378 563.273 153.87 563.5C154.362 563.727 154.766 564.045 155.08 564.455C155.395 564.864 155.59 565.341 155.665 565.886H154.325C154.222 565.489 153.995 565.136 153.643 564.83C153.294 564.519 152.825 564.364 152.234 564.364C151.711 564.364 151.253 564.5 150.859 564.773C150.469 565.042 150.164 565.422 149.944 565.915C149.728 566.403 149.62 566.977 149.62 567.636C149.62 568.311 149.726 568.898 149.938 569.398C150.154 569.898 150.457 570.286 150.847 570.562C151.241 570.839 151.703 570.977 152.234 570.977C152.582 570.977 152.898 570.917 153.183 570.795C153.467 570.674 153.707 570.5 153.904 570.273C154.101 570.045 154.241 569.773 154.325 569.455H155.665C155.59 569.97 155.402 570.434 155.103 570.847C154.808 571.256 154.415 571.581 153.927 571.824C153.442 572.062 152.878 572.182 152.234 572.182ZM161.285 572.182C160.444 572.182 159.719 571.996 159.109 571.625C158.503 571.25 158.035 570.727 157.705 570.057C157.379 569.383 157.217 568.598 157.217 567.705C157.217 566.811 157.379 566.023 157.705 565.341C158.035 564.655 158.493 564.121 159.08 563.739C159.671 563.352 160.361 563.159 161.148 563.159C161.603 563.159 162.052 563.235 162.495 563.386C162.938 563.538 163.342 563.784 163.705 564.125C164.069 564.462 164.359 564.909 164.575 565.466C164.79 566.023 164.898 566.708 164.898 567.523V568.091H158.171V566.932H163.535C163.535 566.439 163.436 566 163.239 565.614C163.046 565.227 162.77 564.922 162.41 564.699C162.054 564.475 161.633 564.364 161.148 564.364C160.614 564.364 160.152 564.496 159.762 564.761C159.376 565.023 159.078 565.364 158.87 565.784C158.662 566.205 158.558 566.655 158.558 567.136V567.909C158.558 568.568 158.671 569.127 158.898 569.585C159.129 570.04 159.45 570.386 159.859 570.625C160.268 570.86 160.743 570.977 161.285 570.977C161.637 570.977 161.955 570.928 162.239 570.83C162.527 570.727 162.775 570.576 162.984 570.375C163.192 570.17 163.353 569.917 163.467 569.614L164.762 569.977C164.626 570.417 164.397 570.803 164.075 571.136C163.753 571.466 163.355 571.723 162.881 571.909C162.408 572.091 161.876 572.182 161.285 572.182ZM175.234 563.273V564.409H170.711V563.273H175.234ZM172.029 561.182H173.37V569.5C173.37 569.879 173.425 570.163 173.535 570.352C173.648 570.538 173.792 570.663 173.967 570.727C174.145 570.788 174.332 570.818 174.529 570.818C174.677 570.818 174.798 570.811 174.893 570.795C174.987 570.777 175.063 570.761 175.12 570.75L175.393 571.955C175.302 571.989 175.175 572.023 175.012 572.057C174.849 572.095 174.643 572.114 174.393 572.114C174.014 572.114 173.643 572.032 173.279 571.869C172.919 571.706 172.62 571.458 172.381 571.125C172.147 570.792 172.029 570.371 172.029 569.864V561.182ZM177.251 572V563.273H178.546V564.591H178.637C178.796 564.159 179.084 563.809 179.501 563.54C179.917 563.271 180.387 563.136 180.91 563.136C181.008 563.136 181.131 563.138 181.279 563.142C181.427 563.146 181.539 563.152 181.614 563.159V564.523C181.569 564.511 181.465 564.494 181.302 564.472C181.143 564.445 180.974 564.432 180.796 564.432C180.372 564.432 179.993 564.521 179.66 564.699C179.33 564.873 179.069 565.116 178.876 565.426C178.686 565.733 178.592 566.083 178.592 566.477V572H177.251ZM185.772 572.205C185.219 572.205 184.717 572.1 184.266 571.892C183.816 571.68 183.458 571.375 183.192 570.977C182.927 570.576 182.795 570.091 182.795 569.523C182.795 569.023 182.893 568.617 183.09 568.307C183.287 567.992 183.55 567.746 183.88 567.568C184.21 567.39 184.573 567.258 184.971 567.17C185.372 567.08 185.776 567.008 186.181 566.955C186.711 566.886 187.141 566.835 187.471 566.801C187.804 566.763 188.047 566.701 188.198 566.614C188.353 566.527 188.431 566.375 188.431 566.159V566.114C188.431 565.553 188.278 565.117 187.971 564.807C187.668 564.496 187.208 564.341 186.59 564.341C185.95 564.341 185.448 564.481 185.085 564.761C184.721 565.042 184.465 565.341 184.317 565.659L183.045 565.205C183.272 564.674 183.575 564.261 183.954 563.966C184.336 563.667 184.753 563.458 185.204 563.341C185.658 563.22 186.105 563.159 186.545 563.159C186.825 563.159 187.147 563.193 187.511 563.261C187.878 563.326 188.232 563.46 188.573 563.665C188.918 563.869 189.204 564.178 189.431 564.591C189.658 565.004 189.772 565.557 189.772 566.25V572H188.431V570.818H188.363C188.272 571.008 188.121 571.21 187.908 571.426C187.696 571.642 187.414 571.826 187.062 571.977C186.71 572.129 186.28 572.205 185.772 572.205ZM185.977 571C186.507 571 186.954 570.896 187.317 570.688C187.685 570.479 187.961 570.21 188.147 569.881C188.336 569.551 188.431 569.205 188.431 568.841V567.614C188.374 567.682 188.249 567.744 188.056 567.801C187.867 567.854 187.647 567.902 187.397 567.943C187.151 567.981 186.91 568.015 186.675 568.045C186.444 568.072 186.257 568.095 186.113 568.114C185.764 568.159 185.439 568.233 185.136 568.335C184.836 568.434 184.594 568.583 184.408 568.784C184.227 568.981 184.136 569.25 184.136 569.591C184.136 570.057 184.308 570.409 184.653 570.648C185.001 570.883 185.442 571 185.977 571ZM196.106 563.273V564.409H191.401V563.273H196.106ZM192.81 572V562.068C192.81 561.568 192.928 561.152 193.163 560.818C193.397 560.485 193.702 560.235 194.077 560.068C194.452 559.902 194.848 559.818 195.265 559.818C195.594 559.818 195.863 559.845 196.072 559.898C196.28 559.951 196.435 560 196.538 560.045L196.151 561.205C196.083 561.182 195.988 561.153 195.867 561.119C195.75 561.085 195.594 561.068 195.401 561.068C194.958 561.068 194.638 561.18 194.441 561.403C194.248 561.627 194.151 561.955 194.151 562.386V572H192.81ZM201.871 563.273V564.409H197.167V563.273H201.871ZM198.576 572V562.068C198.576 561.568 198.693 561.152 198.928 560.818C199.163 560.485 199.468 560.235 199.843 560.068C200.218 559.902 200.614 559.818 201.031 559.818C201.36 559.818 201.629 559.845 201.837 559.898C202.046 559.951 202.201 560 202.303 560.045L201.917 561.205C201.849 561.182 201.754 561.153 201.633 561.119C201.515 561.085 201.36 561.068 201.167 561.068C200.724 561.068 200.404 561.18 200.207 561.403C200.013 561.627 199.917 561.955 199.917 562.386V572H198.576ZM203.751 572V563.273H205.092V572H203.751ZM204.433 561.818C204.171 561.818 203.946 561.729 203.756 561.551C203.571 561.373 203.478 561.159 203.478 560.909C203.478 560.659 203.571 560.445 203.756 560.267C203.946 560.089 204.171 560 204.433 560C204.694 560 204.917 560.089 205.103 560.267C205.292 560.445 205.387 560.659 205.387 560.909C205.387 561.159 205.292 561.373 205.103 561.551C204.917 561.729 204.694 561.818 204.433 561.818ZM211.093 572.182C210.275 572.182 209.57 571.989 208.979 571.602C208.388 571.216 207.934 570.684 207.616 570.006C207.298 569.328 207.138 568.553 207.138 567.682C207.138 566.795 207.301 566.013 207.627 565.335C207.957 564.653 208.415 564.121 209.002 563.739C209.593 563.352 210.282 563.159 211.07 563.159C211.684 563.159 212.237 563.273 212.729 563.5C213.222 563.727 213.625 564.045 213.94 564.455C214.254 564.864 214.449 565.341 214.525 565.886H213.184C213.082 565.489 212.854 565.136 212.502 564.83C212.154 564.519 211.684 564.364 211.093 564.364C210.57 564.364 210.112 564.5 209.718 564.773C209.328 565.042 209.023 565.422 208.803 565.915C208.587 566.403 208.479 566.977 208.479 567.636C208.479 568.311 208.585 568.898 208.798 569.398C209.013 569.898 209.317 570.286 209.707 570.562C210.101 570.839 210.563 570.977 211.093 570.977C211.442 570.977 211.758 570.917 212.042 570.795C212.326 570.674 212.567 570.5 212.763 570.273C212.96 570.045 213.101 569.773 213.184 569.455H214.525C214.449 569.97 214.262 570.434 213.962 570.847C213.667 571.256 213.275 571.581 212.786 571.824C212.301 572.062 211.737 572.182 211.093 572.182ZM224.531 572.182C223.712 572.182 223.008 571.989 222.417 571.602C221.826 571.216 221.371 570.684 221.053 570.006C220.735 569.328 220.576 568.553 220.576 567.682C220.576 566.795 220.739 566.013 221.065 565.335C221.394 564.653 221.853 564.121 222.44 563.739C223.031 563.352 223.72 563.159 224.508 563.159C225.121 563.159 225.674 563.273 226.167 563.5C226.659 563.727 227.063 564.045 227.377 564.455C227.692 564.864 227.887 565.341 227.962 565.886H226.621C226.519 565.489 226.292 565.136 225.94 564.83C225.591 564.519 225.121 564.364 224.531 564.364C224.008 564.364 223.549 564.5 223.156 564.773C222.765 565.042 222.46 565.422 222.241 565.915C222.025 566.403 221.917 566.977 221.917 567.636C221.917 568.311 222.023 568.898 222.235 569.398C222.451 569.898 222.754 570.286 223.144 570.562C223.538 570.839 224 570.977 224.531 570.977C224.879 570.977 225.195 570.917 225.479 570.795C225.763 570.674 226.004 570.5 226.201 570.273C226.398 570.045 226.538 569.773 226.621 569.455H227.962C227.887 569.97 227.699 570.434 227.4 570.847C227.104 571.256 226.712 571.581 226.224 571.824C225.739 572.062 225.174 572.182 224.531 572.182ZM233.468 572.182C232.68 572.182 231.989 571.994 231.394 571.619C230.803 571.244 230.341 570.72 230.008 570.045C229.678 569.371 229.513 568.583 229.513 567.682C229.513 566.773 229.678 565.979 230.008 565.301C230.341 564.623 230.803 564.097 231.394 563.722C231.989 563.347 232.68 563.159 233.468 563.159C234.256 563.159 234.945 563.347 235.536 563.722C236.131 564.097 236.593 564.623 236.923 565.301C237.256 565.979 237.423 566.773 237.423 567.682C237.423 568.583 237.256 569.371 236.923 570.045C236.593 570.72 236.131 571.244 235.536 571.619C234.945 571.994 234.256 572.182 233.468 572.182ZM233.468 570.977C234.067 570.977 234.559 570.824 234.945 570.517C235.332 570.21 235.618 569.807 235.803 569.307C235.989 568.807 236.082 568.265 236.082 567.682C236.082 567.098 235.989 566.555 235.803 566.051C235.618 565.547 235.332 565.14 234.945 564.83C234.559 564.519 234.067 564.364 233.468 564.364C232.87 564.364 232.377 564.519 231.991 564.83C231.604 565.14 231.318 565.547 231.133 566.051C230.947 566.555 230.854 567.098 230.854 567.682C230.854 568.265 230.947 568.807 231.133 569.307C231.318 569.807 231.604 570.21 231.991 570.517C232.377 570.824 232.87 570.977 233.468 570.977ZM240.81 566.75V572H239.469V563.273H240.765V564.636H240.879C241.083 564.193 241.394 563.837 241.81 563.568C242.227 563.295 242.765 563.159 243.424 563.159C244.015 563.159 244.532 563.28 244.975 563.523C245.418 563.761 245.763 564.125 246.009 564.614C246.255 565.098 246.379 565.712 246.379 566.455V572H245.038V566.545C245.038 565.86 244.86 565.326 244.504 564.943C244.147 564.557 243.659 564.364 243.038 564.364C242.61 564.364 242.227 564.456 241.89 564.642C241.557 564.828 241.293 565.098 241.1 565.455C240.907 565.811 240.81 566.242 240.81 566.75ZM252.352 575.455C251.704 575.455 251.147 575.371 250.681 575.205C250.215 575.042 249.827 574.826 249.516 574.557C249.21 574.292 248.965 574.008 248.783 573.705L249.852 572.955C249.973 573.114 250.126 573.295 250.312 573.5C250.497 573.708 250.751 573.888 251.073 574.04C251.399 574.195 251.825 574.273 252.352 574.273C253.056 574.273 253.638 574.102 254.096 573.761C254.554 573.42 254.783 572.886 254.783 572.159V570.386H254.67C254.571 570.545 254.431 570.742 254.249 570.977C254.071 571.208 253.814 571.415 253.477 571.597C253.143 571.775 252.692 571.864 252.124 571.864C251.42 571.864 250.787 571.697 250.227 571.364C249.67 571.03 249.228 570.545 248.903 569.909C248.581 569.273 248.42 568.5 248.42 567.591C248.42 566.697 248.577 565.919 248.891 565.256C249.206 564.589 249.643 564.074 250.204 563.71C250.764 563.343 251.412 563.159 252.147 563.159C252.715 563.159 253.166 563.254 253.499 563.443C253.836 563.629 254.094 563.841 254.272 564.08C254.454 564.314 254.594 564.508 254.692 564.659H254.829V563.273H256.124V572.25C256.124 573 255.954 573.61 255.613 574.08C255.276 574.553 254.821 574.9 254.249 575.119C253.681 575.343 253.049 575.455 252.352 575.455ZM252.306 570.659C252.844 570.659 253.299 570.536 253.67 570.29C254.041 570.044 254.323 569.689 254.516 569.227C254.71 568.765 254.806 568.212 254.806 567.568C254.806 566.939 254.711 566.384 254.522 565.903C254.333 565.422 254.052 565.045 253.681 564.773C253.31 564.5 252.852 564.364 252.306 564.364C251.738 564.364 251.264 564.508 250.886 564.795C250.511 565.083 250.228 565.47 250.039 565.955C249.853 566.439 249.761 566.977 249.761 567.568C249.761 568.174 249.855 568.71 250.045 569.176C250.238 569.638 250.522 570.002 250.897 570.267C251.276 570.528 251.746 570.659 252.306 570.659ZM262.238 572.182C261.397 572.182 260.672 571.996 260.062 571.625C259.456 571.25 258.988 570.727 258.658 570.057C258.333 569.383 258.17 568.598 258.17 567.705C258.17 566.811 258.333 566.023 258.658 565.341C258.988 564.655 259.446 564.121 260.033 563.739C260.624 563.352 261.314 563.159 262.102 563.159C262.556 563.159 263.005 563.235 263.448 563.386C263.891 563.538 264.295 563.784 264.658 564.125C265.022 564.462 265.312 564.909 265.528 565.466C265.744 566.023 265.852 566.708 265.852 567.523V568.091H259.124V566.932H264.488C264.488 566.439 264.389 566 264.192 565.614C263.999 565.227 263.723 564.922 263.363 564.699C263.007 564.475 262.586 564.364 262.102 564.364C261.567 564.364 261.105 564.496 260.715 564.761C260.329 565.023 260.031 565.364 259.823 565.784C259.615 566.205 259.511 566.655 259.511 567.136V567.909C259.511 568.568 259.624 569.127 259.852 569.585C260.083 570.04 260.403 570.386 260.812 570.625C261.221 570.86 261.696 570.977 262.238 570.977C262.59 570.977 262.908 570.928 263.192 570.83C263.48 570.727 263.728 570.576 263.937 570.375C264.145 570.17 264.306 569.917 264.42 569.614L265.715 569.977C265.579 570.417 265.35 570.803 265.028 571.136C264.706 571.466 264.308 571.723 263.835 571.909C263.361 572.091 262.829 572.182 262.238 572.182ZM274.073 565.227L272.869 565.568C272.793 565.367 272.681 565.172 272.533 564.983C272.389 564.79 272.192 564.631 271.942 564.506C271.692 564.381 271.372 564.318 270.982 564.318C270.448 564.318 270.003 564.441 269.647 564.688C269.295 564.93 269.119 565.239 269.119 565.614C269.119 565.947 269.24 566.21 269.482 566.403C269.725 566.597 270.103 566.758 270.619 566.886L271.914 567.205C272.694 567.394 273.276 567.684 273.658 568.074C274.041 568.46 274.232 568.958 274.232 569.568C274.232 570.068 274.088 570.515 273.8 570.909C273.516 571.303 273.119 571.614 272.607 571.841C272.096 572.068 271.501 572.182 270.823 572.182C269.933 572.182 269.196 571.989 268.613 571.602C268.03 571.216 267.66 570.652 267.505 569.909L268.778 569.591C268.899 570.061 269.128 570.413 269.465 570.648C269.806 570.883 270.251 571 270.8 571C271.425 571 271.922 570.867 272.289 570.602C272.66 570.333 272.846 570.011 272.846 569.636C272.846 569.333 272.74 569.08 272.528 568.875C272.316 568.667 271.99 568.511 271.55 568.409L270.096 568.068C269.297 567.879 268.71 567.585 268.335 567.188C267.963 566.786 267.778 566.284 267.778 565.682C267.778 565.189 267.916 564.754 268.192 564.375C268.473 563.996 268.853 563.699 269.335 563.483C269.819 563.267 270.369 563.159 270.982 563.159C271.846 563.159 272.524 563.348 273.016 563.727C273.513 564.106 273.865 564.606 274.073 565.227ZM280.046 563.273V564.409H275.523V563.273H280.046ZM276.842 561.182H278.183V569.5C278.183 569.879 278.237 570.163 278.347 570.352C278.461 570.538 278.605 570.663 278.779 570.727C278.957 570.788 279.145 570.818 279.342 570.818C279.489 570.818 279.611 570.811 279.705 570.795C279.8 570.777 279.876 570.761 279.933 570.75L280.205 571.955C280.114 571.989 279.987 572.023 279.825 572.057C279.662 572.095 279.455 572.114 279.205 572.114C278.826 572.114 278.455 572.032 278.092 571.869C277.732 571.706 277.433 571.458 277.194 571.125C276.959 570.792 276.842 570.371 276.842 569.864V561.182ZM282.063 572V563.273H283.404V572H282.063ZM282.745 561.818C282.484 561.818 282.258 561.729 282.069 561.551C281.883 561.373 281.79 561.159 281.79 560.909C281.79 560.659 281.883 560.445 282.069 560.267C282.258 560.089 282.484 560 282.745 560C283.006 560 283.23 560.089 283.415 560.267C283.605 560.445 283.7 560.659 283.7 560.909C283.7 561.159 283.605 561.373 283.415 561.551C283.23 561.729 283.006 561.818 282.745 561.818ZM289.406 572.182C288.618 572.182 287.926 571.994 287.332 571.619C286.741 571.244 286.279 570.72 285.945 570.045C285.616 569.371 285.451 568.583 285.451 567.682C285.451 566.773 285.616 565.979 285.945 565.301C286.279 564.623 286.741 564.097 287.332 563.722C287.926 563.347 288.618 563.159 289.406 563.159C290.193 563.159 290.883 563.347 291.474 563.722C292.068 564.097 292.531 564.623 292.86 565.301C293.193 565.979 293.36 566.773 293.36 567.682C293.36 568.583 293.193 569.371 292.86 570.045C292.531 570.72 292.068 571.244 291.474 571.619C290.883 571.994 290.193 572.182 289.406 572.182ZM289.406 570.977C290.004 570.977 290.496 570.824 290.883 570.517C291.269 570.21 291.555 569.807 291.741 569.307C291.926 568.807 292.019 568.265 292.019 567.682C292.019 567.098 291.926 566.555 291.741 566.051C291.555 565.547 291.269 565.14 290.883 564.83C290.496 564.519 290.004 564.364 289.406 564.364C288.807 564.364 288.315 564.519 287.928 564.83C287.542 565.14 287.256 565.547 287.07 566.051C286.885 566.555 286.792 567.098 286.792 567.682C286.792 568.265 286.885 568.807 287.07 569.307C287.256 569.807 287.542 570.21 287.928 570.517C288.315 570.824 288.807 570.977 289.406 570.977ZM296.748 566.75V572H295.407V563.273H296.702V564.636H296.816C297.021 564.193 297.331 563.837 297.748 563.568C298.165 563.295 298.702 563.159 299.362 563.159C299.952 563.159 300.469 563.28 300.913 563.523C301.356 563.761 301.701 564.125 301.947 564.614C302.193 565.098 302.316 565.712 302.316 566.455V572H300.975V566.545C300.975 565.86 300.797 565.326 300.441 564.943C300.085 564.557 299.596 564.364 298.975 564.364C298.547 564.364 298.165 564.456 297.827 564.642C297.494 564.828 297.231 565.098 297.038 565.455C296.844 565.811 296.748 566.242 296.748 566.75Z" fill="#7C7C7C"/>
<rect x="180" y="592" width="7.02811" height="7.55102" rx="3.51406" fill="#D0D0D0"/>
<rect x="195.462" y="592" width="7.02811" height="7.55102" rx="3.51406" fill="#7FB77E"/>
<rect x="210.923" y="592" width="7.02811" height="7.55102" rx="3.51406" fill="#D0D0D0"/>
<path d="M285.559 368.169C278.707 375.427 272.576 379.693 267.883 382.914C222.105 414.327 169.776 405.273 153.597 402.178C127.495 397.186 105.461 393.663 86.5294 376.086C43.5119 336.145 45.6042 252.825 78.4748 201.212C82.3722 195.092 115.193 145.094 167.635 138.049C168.918 137.876 169.875 137.778 170.713 137.687C178.826 136.804 229.099 132.145 270.091 167.44C275.959 172.492 285.402 181.605 294.159 195.504C326.177 246.324 326.279 325.033 285.559 368.169Z" fill="url(#paint0_linear_574_847)"/>
<path d="M64.2674 152.448C63.8686 151.019 61.906 150.976 61.4273 152.379C56.5658 166.624 47.6306 206.277 77.5945 251.218C115.189 307.604 114.1 336.09 105.69 357.605C105.69 357.605 123.361 340.158 125.208 310.856C129.742 238.913 71.3589 177.856 64.2674 152.448Z" fill="#3BC4BF"/>
<path d="M66.5505 175.114C68.7527 182.451 71.0943 189.739 73.692 196.929C76.2525 204.131 79.0243 211.251 82.008 218.271C85.0177 225.279 88.1548 232.228 91.5746 239.03C94.9643 245.847 98.6353 252.507 102.344 259.181C106.014 265.872 109.748 272.59 112.824 279.723C115.9 286.837 118.199 294.443 119.078 302.256C119.295 304.204 119.479 306.163 119.548 308.115C119.653 310.065 119.673 312.021 119.659 313.977C119.613 317.889 119.314 321.804 118.734 325.679C117.554 333.427 115.227 340.984 112.022 348.041C111.684 348.783 110.825 349.104 110.102 348.758C109.393 348.417 109.079 347.559 109.387 346.825L109.389 346.82C110.122 345.081 110.834 343.336 111.468 341.564C111.799 340.683 112.091 339.789 112.399 338.9C112.674 338.001 112.984 337.113 113.232 336.206C114.283 332.597 115.086 328.916 115.62 325.192C116.723 317.759 116.751 310.117 115.924 302.652C115.47 298.924 114.749 295.236 113.754 291.618C112.757 288 111.487 284.456 110.02 280.983C107.084 274.034 103.442 267.352 99.8187 260.634C96.2034 253.911 92.6153 247.128 89.3044 240.205C87.6401 236.748 86.0364 233.261 84.4942 229.746C83.7133 227.993 82.9656 226.225 82.215 224.459C81.4808 222.685 80.7562 220.907 80.0459 219.124C77.2173 211.985 74.6022 204.76 72.2127 197.461C69.8573 190.15 67.6914 182.777 65.8056 175.331C65.7517 175.118 65.8758 174.901 66.083 174.846C66.2838 174.792 66.4896 174.912 66.5505 175.114Z" fill="white"/>
<path d="M124.143 315.065C125.993 317.037 129.202 316.427 130.274 313.919C136.192 300.083 149.481 259.408 126.296 212.992C106.718 173.795 99.7264 150.628 97.2615 139.886C96.7403 137.614 93.7002 137.347 92.8068 139.493C82.9503 163.166 57.1199 243.603 124.143 315.065Z" fill="#3BC4BF"/>
<path d="M127.448 313.574C127.513 313.585 127.58 313.59 127.649 313.588C128.223 313.573 128.676 313.081 128.661 312.491C128.644 311.822 126.648 244.923 101.821 189.158C101.582 188.622 100.965 188.385 100.442 188.631C99.919 188.877 99.6893 189.511 99.9282 190.048C124.574 245.407 126.564 311.883 126.581 312.548C126.594 313.068 126.967 313.491 127.448 313.574Z" fill="white"/>
<path d="M70.4761 354.961C74.052 317.892 83.0005 225.824 84.954 212.367C87.4093 195.453 107.576 199.186 107.576 199.186L111.895 370.344H83.776C79.9969 370.344 76.393 368.67 73.8602 365.734C71.3275 362.799 70.0964 358.896 70.4761 354.961Z" fill="url(#paint1_linear_574_847)"/>
<path d="M297.969 374.658C306.75 374.467 313.717 366.996 313.531 357.972L310.663 219.021C310.505 211.355 304.529 205.162 297.071 204.934L100.835 198.951C94.9994 198.773 90.1796 203.596 90.1974 209.596L90.6681 368.913C90.6847 374.551 95.1982 379.078 100.683 378.959L297.969 374.658Z" fill="url(#paint2_linear_574_847)"/>
<path d="M310.616 362.994C313.425 362.95 315.547 360.363 315.111 357.51C312.215 338.59 303.125 273.509 306.041 219.473C306.174 217.008 304.316 214.913 301.916 214.834L104.796 208.372C102.093 208.283 99.8283 210.452 99.7257 213.23C98.8876 235.947 95.7653 329.5 99.8502 362.756C100.099 364.78 101.792 366.283 103.777 366.252L310.616 362.994Z" fill="#BDD0FB"/>
<path d="M305.635 360.866C308.339 360.824 310.382 358.335 309.961 355.589C307.175 337.381 298.426 274.751 301.233 222.749C301.361 220.378 299.573 218.361 297.263 218.286L107.566 212.067C104.965 211.982 102.785 214.069 102.687 216.741C101.88 238.604 98.8754 328.634 102.806 360.637C103.046 362.585 104.676 364.032 106.586 364.002L305.635 360.866Z" fill="#7FB77E"/>
<path opacity="0.72" d="M189.043 251.323L189.333 265.363C189.377 267.506 187.705 269.272 185.619 269.284L171.606 269.365C169.566 269.377 167.894 267.704 167.851 265.608L167.546 250.847C167.5 248.628 169.289 246.832 171.446 246.93L185.474 247.569C187.44 247.659 189.001 249.301 189.043 251.323Z" fill="white"/>
<path opacity="0.72" d="M238.036 269.165L224.023 269.247C221.983 269.259 220.311 267.586 220.267 265.489L220.008 252.935C219.963 250.729 221.731 248.938 223.877 249.017L237.902 249.535C239.881 249.608 241.461 251.255 241.503 253.29L241.749 265.245C241.794 267.388 240.122 269.153 238.036 269.165Z" fill="white"/>
<path opacity="0.72" d="M225.758 331.705L239.088 331.572C241.321 331.55 243.156 333.378 243.203 335.672L243.468 348.501C243.515 350.78 241.781 352.679 239.565 352.775L226.244 353.355C223.961 353.454 222.045 351.606 221.996 349.258L221.722 335.983C221.674 333.651 223.489 331.728 225.758 331.705Z" fill="white"/>
<path opacity="0.72" d="M248.184 348.193L247.925 335.65C247.878 333.358 249.661 331.467 251.892 331.445L265.362 331.311C267.556 331.289 269.359 333.086 269.406 335.341L269.656 347.433C269.702 349.672 267.997 351.539 265.819 351.634L252.359 352.219C250.115 352.317 248.232 350.5 248.184 348.193Z" fill="white"/>
<path opacity="0.72" d="M247.015 291.566L246.803 281.269C246.752 278.783 248.701 276.74 251.121 276.744L263.984 276.768C266.326 276.772 268.237 278.698 268.287 281.105L268.49 290.945C268.54 293.372 266.681 295.388 264.32 295.468L251.467 295.9C249.068 295.981 247.066 294.032 247.015 291.566Z" fill="white"/>
<path opacity="0.72" d="M247.633 321.488L247.308 305.739C247.261 303.484 248.989 301.61 251.183 301.536L264.337 301.094C266.736 301.013 268.738 302.962 268.789 305.428L269.117 321.311C269.164 323.619 267.357 325.516 265.111 325.516L251.639 325.518C249.459 325.518 247.679 323.727 247.633 321.488Z" fill="white"/>
<path opacity="0.72" d="M211.83 269.318L197.817 269.399C195.776 269.411 194.104 267.738 194.061 265.642L193.779 251.967C193.733 249.761 195.502 247.97 197.647 248.049L211.673 248.567C213.651 248.64 215.231 250.287 215.273 252.322L215.543 265.397C215.587 267.541 213.915 269.306 211.83 269.318Z" fill="white"/>
<path opacity="0.72" d="M221.422 321.42L221.118 306.691C221.07 304.397 222.828 302.49 225.06 302.415L238.383 301.967C240.652 301.89 242.544 303.733 242.592 306.065L242.905 321.241C242.954 323.589 241.115 325.519 238.83 325.519L225.498 325.521C223.28 325.521 221.469 323.699 221.422 321.42Z" fill="white"/>
<path opacity="0.72" d="M197.452 276.645L212.754 276.673C214.434 276.676 215.804 278.057 215.84 279.783L216.132 293.946C216.168 295.687 214.835 297.132 213.142 297.189L197.851 297.704C196.13 297.762 194.695 296.364 194.659 294.596L194.355 279.889C194.318 278.106 195.716 276.641 197.452 276.645Z" fill="white"/>
<path opacity="0.72" d="M189.646 280.532L189.924 294.021C189.969 296.208 188.294 298.025 186.166 298.097L172.462 298.558C170.3 298.63 168.496 296.874 168.45 294.651L168.161 280.676C168.115 278.435 169.872 276.593 172.053 276.597L185.768 276.623C187.879 276.627 189.601 278.362 189.646 280.532Z" fill="white"/>
<path opacity="0.72" d="M239.334 296.308L224.042 296.823C222.322 296.881 220.886 295.483 220.85 293.714L220.566 279.938C220.529 278.155 221.927 276.69 223.662 276.693L238.965 276.721C240.645 276.725 242.015 278.106 242.051 279.831L242.324 293.065C242.36 294.805 241.027 296.251 239.334 296.308Z" fill="white"/>
<path opacity="0.72" d="M198.869 303.296L212.192 302.848C214.46 302.771 216.352 304.614 216.401 306.946L216.696 321.244C216.744 323.591 214.906 325.522 212.621 325.522L199.288 325.524C197.07 325.524 195.259 323.702 195.212 321.423L194.926 307.572C194.879 305.277 196.637 303.371 198.869 303.296Z" fill="white"/>
<path opacity="0.72" d="M172.216 304.192L186.472 303.713C188.481 303.645 190.157 305.277 190.199 307.342L190.496 321.737C190.539 323.816 188.911 325.525 186.888 325.525L172.622 325.527C170.658 325.527 169.054 323.914 169.012 321.896L168.725 307.979C168.683 305.947 170.24 304.259 172.216 304.192Z" fill="white"/>
<path opacity="0.72" d="M262.283 268.839L251.647 268.9C248.818 268.917 246.5 266.597 246.44 263.691L246.254 254.673C246.197 251.948 248.383 249.736 251.033 249.833L262.869 250.27C265.555 250.369 267.698 252.605 267.755 255.366L267.911 262.897C267.978 266.145 265.444 268.82 262.283 268.839Z" fill="white"/>
<path opacity="0.72" d="M274.136 335.705C274.085 333.239 276.004 331.204 278.405 331.18L283.038 331.134C286.559 331.099 289.438 333.491 289.501 336.503L289.68 345.22C289.742 348.208 287.009 350.711 283.519 350.863L278.545 351.08C276.302 351.177 274.418 349.361 274.37 347.053L274.136 335.705Z" fill="white"/>
<path opacity="0.72" d="M125.156 332.708L134.268 332.617C136.503 332.595 138.339 334.425 138.386 336.721L138.723 353.055C138.77 355.335 137.035 357.236 134.817 357.333L125.747 357.727C122.13 357.885 119.096 355.462 119.032 352.365L118.743 338.358C118.68 335.286 121.565 332.744 125.156 332.708Z" fill="white"/>
<path opacity="0.72" d="M282.67 325.514L278.147 325.515C275.801 325.515 273.886 323.588 273.836 321.178L273.506 305.168C273.456 302.741 275.315 300.724 277.675 300.645L282.227 300.492C285.816 300.371 288.804 302.785 288.868 305.857L289.157 319.864C289.221 322.961 286.289 325.514 282.67 325.514Z" fill="white"/>
<path opacity="0.72" d="M282.289 294.863L276.596 295.055C274.781 295.116 273.268 293.642 273.229 291.777L272.991 280.213C272.952 278.332 274.426 276.787 276.257 276.791L282.006 276.801C285.492 276.808 288.318 279.188 288.379 282.171L288.525 289.218C288.587 292.23 285.809 294.745 282.289 294.863Z" fill="white"/>
<path opacity="0.72" d="M123.701 245.134L132.838 245.471C134.897 245.547 136.54 247.261 136.583 249.377L136.916 265.511C136.962 267.74 135.223 269.576 133.053 269.589L123.645 269.644C120.136 269.664 117.276 267.276 117.214 264.274L116.935 250.779C116.87 247.588 119.976 244.996 123.701 245.134Z" fill="white"/>
<path opacity="0.72" d="M199.554 331.967L212.884 331.834C215.117 331.812 216.952 333.64 216.999 335.934L217.282 349.641C217.329 351.919 215.595 353.819 213.379 353.915L200.058 354.494C197.775 354.594 195.859 352.746 195.81 350.398L195.518 336.245C195.47 333.913 197.285 331.989 199.554 331.967Z" fill="white"/>
<path opacity="0.72" d="M124.085 276.508L133.347 276.525C135.458 276.529 137.18 278.265 137.224 280.434L137.541 295.782C137.587 297.97 135.911 299.787 133.783 299.859L124.485 300.171C120.896 300.292 117.908 297.878 117.844 294.806L117.583 282.158C117.519 279.057 120.46 276.502 124.085 276.508Z" fill="white"/>
<path opacity="0.72" d="M124.423 305.8L134.089 305.474C136.098 305.407 137.774 307.038 137.816 309.104L138.077 321.742C138.12 323.821 136.492 325.531 134.469 325.531L124.756 325.532C121.263 325.532 118.429 323.15 118.368 320.163L118.188 311.445C118.125 308.433 120.903 305.918 124.423 305.8Z" fill="white"/>
<path opacity="0.72" d="M164.008 308.223L164.287 321.739C164.33 323.818 162.702 325.528 160.678 325.528L146.412 325.53C144.448 325.53 142.844 323.916 142.803 321.898L142.534 308.859C142.492 306.828 144.048 305.139 146.024 305.073L160.28 304.593C162.289 304.526 163.965 306.157 164.008 308.223Z" fill="white"/>
<path opacity="0.72" d="M147.149 332.489L160.472 332.356C162.707 332.334 164.543 334.164 164.591 336.46L164.91 351.916C164.957 354.196 163.221 356.097 161.003 356.194L147.69 356.773C145.405 356.872 143.487 355.023 143.438 352.673L143.11 336.771C143.062 334.437 144.878 332.512 147.149 332.489Z" fill="white"/>
<path opacity="0.72" d="M281.541 268.727L275.965 268.759C274.184 268.77 272.724 267.309 272.687 265.479L272.453 254.169C272.413 252.243 273.957 250.68 275.83 250.749L281.736 250.967C285.116 251.091 287.786 253.436 287.846 256.331L287.985 263.077C288.049 266.159 285.144 268.706 281.541 268.727Z" fill="white"/>
<path opacity="0.72" d="M173.353 332.228L186.452 332.097C188.811 332.073 190.75 334.005 190.8 336.429L191.096 350.776C191.143 353.057 189.407 354.958 187.189 355.054L173.876 355.633C171.591 355.733 169.672 353.883 169.624 351.533L169.314 336.509C169.266 334.175 171.082 332.25 173.353 332.228Z" fill="white"/>
<path opacity="0.72" d="M162.813 250.345L163.123 265.359C163.169 267.588 161.43 269.424 159.26 269.437L145.548 269.516C143.425 269.529 141.686 267.788 141.641 265.608L141.319 250.008C141.271 247.713 143.111 245.85 145.343 245.932L159.068 246.439C161.126 246.515 162.769 248.229 162.813 250.345Z" fill="white"/>
<path opacity="0.72" d="M163.435 280.483L163.733 294.901C163.778 297.089 162.102 298.906 159.975 298.978L146.271 299.439C144.108 299.511 142.304 297.755 142.259 295.532L141.951 280.627C141.905 278.386 143.662 276.545 145.843 276.549L159.557 276.574C161.668 276.578 163.39 278.314 163.435 280.483Z" fill="white"/>
<path opacity="0.72" d="M283.061 238.804L282.43 243.559C282.228 245.081 280.978 246.226 279.483 246.259L279.265 246.264C277.587 246.3 276.198 244.932 276.162 243.207L276.062 238.341C276.023 236.455 277.608 234.964 279.433 235.17L280.383 235.278C282.082 235.47 283.292 237.064 283.061 238.804Z" fill="white"/>
<path opacity="0.72" d="M261.588 237.58L260.957 242.335C260.755 243.857 259.505 245.002 258.01 245.035L257.792 245.04C256.114 245.076 254.725 243.708 254.689 241.983L254.589 237.117C254.55 235.23 256.135 233.74 257.959 233.946L258.91 234.054C260.609 234.246 261.819 235.84 261.588 237.58Z" fill="white"/>
<path opacity="0.72" d="M235.168 237.954L234.537 242.709C234.335 244.231 233.085 245.376 231.59 245.409L231.372 245.413C229.694 245.45 228.305 244.082 228.269 242.357L228.169 237.491C228.13 235.604 229.715 234.114 231.54 234.32L232.49 234.428C234.189 234.62 235.399 236.214 235.168 237.954Z" fill="white"/>
<path opacity="0.72" d="M209.428 236.769L208.796 241.524C208.594 243.046 207.345 244.191 205.85 244.224L205.631 244.229C203.953 244.265 202.564 242.897 202.529 241.173L202.428 236.306C202.389 234.42 203.974 232.929 205.799 233.135L206.749 233.243C208.448 233.435 209.659 235.029 209.428 236.769Z" fill="white"/>
<path opacity="0.72" d="M182.989 233.314L182.358 238.069C182.156 239.591 180.906 240.736 179.411 240.769L179.193 240.774C177.515 240.81 176.126 239.442 176.09 237.717L175.99 232.851C175.951 230.965 177.536 229.474 179.36 229.68L180.311 229.788C182.01 229.98 183.22 231.574 182.989 233.314Z" fill="white"/>
<path opacity="0.72" d="M154.982 233.925L154.351 238.679C154.148 240.202 152.899 241.347 151.404 241.379L151.185 241.384C149.507 241.421 148.118 240.052 148.083 238.328L147.982 233.461C147.944 231.575 149.528 230.085 151.353 230.291L152.304 230.398C154.002 230.591 155.213 232.185 154.982 233.925Z" fill="white"/>
<path opacity="0.72" d="M131.342 233.416L130.711 238.171C130.508 239.693 129.259 240.838 127.764 240.871L127.545 240.875C125.868 240.912 124.478 239.544 124.443 237.819L124.342 232.952C124.304 231.066 125.888 229.576 127.713 229.782L128.663 229.89C130.363 230.082 131.573 231.676 131.342 233.416Z" fill="white"/>
<path d="M90.1973 367.706C90.4704 367.706 90.6928 367.479 90.6947 367.198L91.2993 277.49C91.3011 277.207 91.08 276.977 90.8051 276.975C90.8041 276.975 90.8028 276.975 90.8028 276.975C90.5284 276.975 90.3061 277.201 90.3042 277.483L89.6996 367.191C89.6977 367.473 89.919 367.704 90.1937 367.706C90.1937 367.706 90.1962 367.706 90.1973 367.706Z" fill="#BDD0FB"/>
<path d="M90.9407 257.399C91.2138 257.399 91.4362 257.173 91.4382 256.891L91.6494 225.56C91.6513 225.278 91.4301 225.047 91.1553 225.045H91.1518C90.8787 225.045 90.6563 225.272 90.6544 225.553L90.4432 256.884C90.4413 257.167 90.6625 257.397 90.9373 257.399L90.9407 257.399Z" fill="#BDD0FB"/>
<path d="M277.771 231.094C280.708 231.094 283.09 228.647 283.09 225.628C283.09 222.609 280.708 220.162 277.771 220.162C274.834 220.162 272.452 222.609 272.452 225.628C272.452 228.647 274.834 231.094 277.771 231.094Z" fill="url(#paint3_linear_574_847)"/>
<path d="M234.193 230.673C237.131 230.673 239.512 228.226 239.512 225.207C239.512 222.189 237.131 219.741 234.193 219.741C231.256 219.741 228.875 222.189 228.875 225.207C228.875 228.226 231.256 230.673 234.193 230.673Z" fill="url(#paint4_linear_574_847)"/>
<path d="M190.206 229.201C193.144 229.201 195.525 226.754 195.525 223.735C195.525 220.717 193.144 218.27 190.206 218.27C187.269 218.27 184.888 220.717 184.888 223.735C184.888 226.754 187.269 229.201 190.206 229.201Z" fill="url(#paint5_linear_574_847)"/>
<path d="M146.629 227.099C149.566 227.099 151.947 224.652 151.947 221.633C151.947 218.614 149.566 216.167 146.629 216.167C143.691 216.167 141.31 218.614 141.31 221.633C141.31 224.652 143.691 227.099 146.629 227.099Z" fill="url(#paint6_linear_574_847)"/>
<path d="M142.584 183.758C151.534 185.765 150.689 209.964 149.969 219.788C149.8 222.1 147.926 223.884 145.67 223.884C145.044 223.884 144.447 223.606 144.029 223.127C143.61 222.648 143.41 222.008 143.477 221.368C144.25 213.942 145.895 192.558 139.306 191.415C139.306 191.415 134.58 190.555 133.785 199.964H128.671C128.671 199.964 131.331 181.235 142.584 183.758Z" fill="url(#paint7_linear_574_847)"/>
<path d="M186.161 185.002C195.112 187.009 194.267 211.217 193.547 221.041C193.377 223.353 191.504 225.141 189.248 225.141C188.622 225.141 188.025 224.866 187.607 224.387C187.188 223.908 186.988 223.268 187.055 222.628C187.828 215.203 189.473 193.802 182.884 192.659C182.884 192.659 178.158 191.987 177.363 201.191H172.249C172.249 201.191 174.909 182.479 186.161 185.002Z" fill="url(#paint8_linear_574_847)"/>
<path d="M229.739 186.253C238.689 188.26 237.845 212.473 237.125 222.297C236.955 224.609 235.081 226.4 232.826 226.4C232.199 226.4 231.603 226.126 231.184 225.647C230.766 225.168 230.566 224.529 230.633 223.889C231.406 216.464 233.051 195.052 226.462 193.909C226.462 193.909 221.738 193.362 220.943 202.613L215.827 202.43C215.827 202.43 218.487 183.73 229.739 186.253Z" fill="url(#paint9_linear_574_847)"/>
<path d="M273.317 187.699C282.267 189.705 281.423 213.932 280.702 223.756C280.533 226.068 278.659 227.865 276.403 227.865C275.777 227.865 275.18 227.595 274.762 227.116C274.344 226.637 274.144 225.999 274.21 225.359C274.984 217.934 276.628 196.497 270.04 195.354C270.04 195.354 265.313 194.646 264.518 203.85H259.405C259.405 203.85 262.064 185.175 273.317 187.699Z" fill="url(#paint10_linear_574_847)"/>
<path d="M251.321 296.466C250.074 296.466 248.894 295.984 247.983 295.097C247.033 294.172 246.495 292.922 246.467 291.578L246.255 281.281C246.227 279.926 246.72 278.646 247.644 277.678C248.565 276.712 249.797 276.181 251.113 276.181C251.116 276.181 251.119 276.181 251.122 276.181L263.985 276.205C266.603 276.209 268.779 278.402 268.835 281.093L269.038 290.933C269.094 293.655 266.986 295.942 264.338 296.031L251.485 296.463C251.43 296.465 251.376 296.466 251.321 296.466ZM251.113 277.308C250.094 277.308 249.14 277.719 248.427 278.467C247.711 279.216 247.329 280.208 247.351 281.257L247.563 291.554C247.585 292.595 248.002 293.563 248.737 294.279C249.473 294.996 250.435 295.372 251.449 295.337L264.302 294.905C266.352 294.836 267.985 293.065 267.942 290.957L267.738 281.117C267.695 279.033 266.01 277.335 263.982 277.331L251.12 277.308C251.12 277.308 251.115 277.308 251.113 277.308Z" fill="url(#paint11_linear_574_847)"/>
<path d="M197.746 298.269C196.811 298.269 195.928 297.908 195.246 297.244C194.535 296.551 194.131 295.615 194.111 294.607L193.807 279.901C193.786 278.886 194.155 277.927 194.847 277.203C195.537 276.479 196.46 276.081 197.446 276.081C197.448 276.081 197.45 276.081 197.453 276.081L212.755 276.11C214.717 276.113 216.346 277.755 216.388 279.771L216.68 293.934C216.722 295.973 215.143 297.685 213.16 297.753L197.869 298.266C197.828 298.268 197.786 298.269 197.746 298.269ZM197.446 277.208C196.757 277.208 196.113 277.486 195.63 277.992C195.147 278.498 194.889 279.168 194.903 279.877L195.207 294.583C195.221 295.287 195.503 295.942 196 296.426C196.498 296.91 197.147 297.161 197.833 297.141L213.124 296.627C214.51 296.58 215.613 295.383 215.584 293.958L215.292 279.795C215.263 278.386 214.124 277.239 212.754 277.236L197.451 277.208C197.449 277.208 197.447 277.208 197.446 277.208Z" fill="url(#paint12_linear_574_847)"/>
<path d="M223.937 297.388C223.003 297.388 222.119 297.027 221.438 296.363C220.726 295.67 220.323 294.733 220.302 293.726L220.018 279.95C219.997 278.935 220.366 277.976 221.058 277.251C221.748 276.528 222.671 276.13 223.656 276.13C223.659 276.13 223.661 276.13 223.663 276.13L238.966 276.158C240.928 276.162 242.557 277.804 242.599 279.819L242.872 293.053C242.914 295.092 241.335 296.805 239.352 296.871L224.06 297.386C224.019 297.387 223.978 297.388 223.937 297.388ZM223.656 277.257C222.968 277.257 222.323 277.535 221.841 278.04C221.357 278.547 221.099 279.216 221.114 279.926L221.398 293.702C221.413 294.406 221.695 295.061 222.192 295.545C222.689 296.029 223.339 296.275 224.024 296.26L239.316 295.745C240.702 295.699 241.805 294.502 241.776 293.077L241.503 279.844C241.474 278.435 240.335 277.287 238.964 277.285L223.661 277.257C223.66 277.257 223.658 277.257 223.656 277.257Z" fill="url(#paint13_linear_574_847)"/>
<path d="M78.6549 301.278C78.6549 301.278 66.65 308.112 65.6568 319.679C64.6636 331.246 65.5741 379.256 89.647 391.072C113.72 402.888 145.584 400.165 157.781 398.873C169.978 397.582 176.741 389.063 178.252 383.197C179.762 377.332 182.202 355.482 169.371 348.434C156.54 341.386 143.064 330.589 129.598 320.075C116.132 309.56 93.0539 292.397 78.6549 301.278Z" fill="url(#paint14_linear_574_847)"/>
<path d="M165.588 352.422C165.588 352.422 162.348 352.598 161.95 359.449C161.95 359.449 169.464 366.37 179.612 368.018C180.374 368.141 178.547 362.673 178.273 361.932C176.966 358.407 172.85 356.137 165.588 352.422Z" fill="url(#paint15_linear_574_847)"/>
<path d="M129.098 344.367H135.935C135.935 344.367 156.921 320.548 170.685 318.145C170.685 318.145 180.266 330.714 170.174 354.199C169.363 356.088 167.092 356.927 165.399 355.815C164.892 355.483 164.528 355.037 164.307 354.479L165.119 334.427C165.119 334.427 147.218 350.517 144.106 353.622C140.995 356.727 125.179 354.834 129.098 344.367Z" fill="url(#paint16_linear_574_847)"/>
<path d="M195.201 394.375C192.335 391.795 187.77 388.899 181.18 388.069L178.951 389.47C178.951 389.47 180.372 391.625 182.968 393.901C185.355 395.325 189.039 397.254 192.094 397.672C195.064 398.079 195.502 396.235 195.201 394.375Z" fill="url(#paint17_linear_574_847)"/>
<path d="M178.273 361.932C176.507 362.519 175.731 365.089 171.252 363.39C166.919 361.745 163.697 359.625 162.04 358.402C162.003 358.733 161.972 359.08 161.95 359.449C161.95 359.449 169.872 367.192 180.021 368.84C180.783 368.964 181.387 368.182 181.112 367.441C180.619 366.112 179.731 364.096 178.273 361.932Z" fill="url(#paint18_linear_574_847)"/>
<path d="M197.359 396.579C196.794 395.919 196.073 395.161 195.201 394.375C195.502 396.235 195.064 398.079 192.094 397.673C189.04 397.255 185.355 395.325 182.968 393.901C185.959 396.522 190.51 399.305 196.253 399.141C197.529 399.105 198.202 397.563 197.359 396.579Z" fill="url(#paint19_linear_574_847)"/>
<path d="M129.348 349.451L161.367 349.807C161.367 349.807 179.652 365.355 182.968 389.062C182.968 389.062 183.519 390.805 180.214 391.104C180.214 391.104 169.159 383.683 161.95 370.564C153.112 354.478 135.601 361.719 135.601 361.719C129.848 357.457 121.718 356.588 115.594 355.168L129.348 349.451Z" fill="url(#paint20_linear_574_847)"/>
<path d="M130.104 322.944C130.104 322.944 133.551 340.697 150.44 347.72L156.447 346.992L157.865 349.315L143.773 349.776C143.773 349.776 131.727 344.873 125.345 331.513C125.135 331.072 121.62 323.614 130.104 322.944Z" fill="url(#paint21_linear_574_847)"/>
<path d="M131.951 349.161C131.951 349.161 128.031 338.211 127.189 327.571C127.189 327.571 130.056 325.039 131.849 323.946C132.429 323.592 132.648 322.843 132.355 322.219C131.037 319.413 123.068 308.398 122.471 308.245C119.227 307.412 105.92 300.91 96.5479 314.085C92.5258 319.739 97.3461 337.144 115.594 355.168L119.358 355.908L131.951 349.161Z" fill="url(#paint22_linear_574_847)"/>
<path d="M116.847 329.97C116.847 329.97 127.737 343.222 141.661 345.159C141.661 345.159 145.259 341.788 147.935 342.992C150.61 344.195 154.279 349.508 154.279 349.508H136.402C136.402 349.508 119.498 348.896 111.051 338.362C111.731 334.676 113.767 332.474 116.847 329.97Z" fill="url(#paint23_linear_574_847)"/>
<path d="M110.494 298.95L108.111 307.117C108.002 307.492 108.137 307.897 108.451 308.117C109.598 308.925 112.596 310.531 116.71 308.97C117.18 308.792 117.502 308.34 117.543 307.827L118.108 300.712L110.494 298.95Z" fill="url(#paint24_linear_574_847)"/>
<path d="M124.447 292.336C124.447 292.336 123.275 300.802 120.111 303.405C116.946 306.009 110.781 304.049 108.698 297.666L112.847 286.753L124.447 292.336Z" fill="url(#paint25_linear_574_847)"/>
<path d="M112.38 293.815C112.621 293.895 112.873 293.736 112.91 293.479C113.025 292.698 113.31 291.151 113.887 290.097C113.887 290.097 113.585 288.987 116.619 290.665C119.652 292.343 124.208 294.808 126.891 293.34C129.506 291.909 132.155 284.707 125.243 286.041C124.98 286.092 124.739 285.877 124.758 285.602C124.843 284.419 124.729 281.695 122.046 280.821C119.535 280.003 120.883 281.329 120.316 282.032C120.15 282.239 120.527 281.328 116.959 281.861C115.734 282.044 114.163 278.704 111.156 280.066C108.679 281.188 108.294 282.755 108.335 283.733C108.348 284.049 108.035 284.264 107.755 284.131C106.997 283.772 105.777 283.586 104.608 285.091C102.992 287.171 105.301 288.976 105.994 289.449C106.107 289.526 106.178 289.655 106.179 289.795C106.185 290.877 106.349 295.597 108.651 298.26C108.851 298.49 109.219 298.423 109.335 298.138L111.107 293.798C111.19 293.597 111.408 293.493 111.611 293.56L112.38 293.815Z" fill="url(#paint26_linear_574_847)"/>
<path d="M112.417 294.696C112.417 294.696 111.335 290.166 109.691 291.637C108.047 293.108 110.12 296.345 112.003 296.962L112.417 294.696Z" fill="url(#paint27_linear_574_847)"/>
<path d="M153.379 350.537L161.406 323.026C161.734 321.904 162.704 321.108 163.841 321.028L174.678 320.266C175.78 320.188 176.599 321.294 176.234 322.365L167.26 348.637C166.971 349.483 166.232 350.081 165.363 350.172L154.692 351.389L153.379 350.537Z" fill="url(#paint28_linear_574_847)"/>
<path d="M168.183 332.35C167.584 333.594 166.549 334.322 165.871 333.977C165.194 333.632 165.131 332.345 165.73 331.102C166.329 329.858 167.364 329.13 168.042 329.475C168.719 329.82 168.782 331.107 168.183 332.35Z" fill="#91B3FA"/>
<path d="M154.691 351.39C154.674 351.39 154.657 351.389 154.639 351.388L131.9 350.207C131.337 350.178 130.905 349.686 130.933 349.108C130.962 348.53 131.442 348.076 132.003 348.115L154.742 349.296C155.304 349.325 155.737 349.817 155.708 350.395C155.681 350.955 155.231 351.39 154.691 351.39Z" fill="url(#paint29_linear_574_847)"/>
<path d="M127.189 327.756C127.09 327.756 127.008 327.673 127.009 327.57C127.024 322.688 125.191 316.207 125.172 316.142C125.144 316.044 125.198 315.941 125.294 315.912C125.391 315.884 125.491 315.939 125.519 316.038C125.537 316.103 127.385 322.635 127.369 327.572C127.369 327.674 127.288 327.756 127.189 327.756Z" fill="url(#paint30_linear_574_847)"/>
<path d="M116.848 330.156C116.795 330.156 116.741 330.132 116.706 330.085C116.656 330.02 111.682 323.523 109.972 319.07C109.935 318.975 109.982 318.867 110.074 318.83C110.167 318.792 110.272 318.838 110.308 318.934C111.999 323.336 116.939 329.791 116.989 329.856C117.051 329.936 117.038 330.053 116.959 330.116C116.927 330.143 116.887 330.156 116.848 330.156Z" fill="url(#paint31_linear_574_847)"/>
<path d="M109.849 340.09L109.715 340.031C102.519 336.865 98.075 328.037 98.031 327.948C97.9856 327.856 98.0213 327.745 98.11 327.698C98.1967 327.652 98.3056 327.687 98.3524 327.779C98.3957 327.866 102.727 336.468 109.723 339.63L110.464 338.554C110.523 338.47 110.636 338.451 110.716 338.509C110.798 338.569 110.816 338.684 110.759 338.768L109.849 340.09Z" fill="url(#paint32_linear_574_847)"/>
</g>
<rect x="0.5" y="0.5" width="374" height="811" stroke="white"/>
<defs>
<linearGradient id="paint0_linear_574_847" x1="341.285" y1="449.63" x2="150.289" y2="251.791" gradientUnits="userSpaceOnUse">
<stop stop-color="#DAE3FE"/>
<stop offset="1" stop-color="#E9EFFD"/>
</linearGradient>
<linearGradient id="paint1_linear_574_847" x1="284.28" y1="185.401" x2="113.949" y2="274.258" gradientUnits="userSpaceOnUse">
<stop stop-color="#1F7774"/>
<stop offset="1" stop-color="#4042E2"/>
</linearGradient>
<linearGradient id="paint2_linear_574_847" x1="117.674" y1="321.769" x2="356.969" y2="225.116" gradientUnits="userSpaceOnUse">
<stop stop-color="#3BC4BF"/>
<stop offset="1" stop-color="#4042E2"/>
</linearGradient>
<linearGradient id="paint3_linear_574_847" x1="270.585" y1="211.301" x2="283.971" y2="236.57" gradientUnits="userSpaceOnUse">
<stop stop-color="#4F52FF"/>
<stop offset="1" stop-color="#4042E2"/>
</linearGradient>
<linearGradient id="paint4_linear_574_847" x1="227.007" y1="210.88" x2="240.393" y2="236.149" gradientUnits="userSpaceOnUse">
<stop stop-color="#4F52FF"/>
<stop offset="1" stop-color="#4042E2"/>
</linearGradient>
<linearGradient id="paint5_linear_574_847" x1="183.02" y1="209.408" x2="196.406" y2="234.678" gradientUnits="userSpaceOnUse">
<stop stop-color="#4F52FF"/>
<stop offset="1" stop-color="#4042E2"/>
</linearGradient>
<linearGradient id="paint6_linear_574_847" x1="139.443" y1="207.306" x2="152.829" y2="232.575" gradientUnits="userSpaceOnUse">
<stop stop-color="#4F52FF"/>
<stop offset="1" stop-color="#4042E2"/>
</linearGradient>
<linearGradient id="paint7_linear_574_847" x1="116.701" y1="151.628" x2="165.295" y2="243.36" gradientUnits="userSpaceOnUse">
<stop stop-color="#FF928E"/>
<stop offset="1" stop-color="#FE7062"/>
</linearGradient>
<linearGradient id="paint8_linear_574_847" x1="160.276" y1="152.859" x2="208.885" y2="244.618" gradientUnits="userSpaceOnUse">
<stop stop-color="#FF928E"/>
<stop offset="1" stop-color="#FE7062"/>
</linearGradient>
<linearGradient id="paint9_linear_574_847" x1="203.852" y1="154.101" x2="252.47" y2="245.878" gradientUnits="userSpaceOnUse">
<stop stop-color="#FF928E"/>
<stop offset="1" stop-color="#FE7062"/>
</linearGradient>
<linearGradient id="paint10_linear_574_847" x1="247.425" y1="155.526" x2="296.066" y2="247.346" gradientUnits="userSpaceOnUse">
<stop stop-color="#FF928E"/>
<stop offset="1" stop-color="#FE7062"/>
</linearGradient>
<linearGradient id="paint11_linear_574_847" x1="269.731" y1="243.399" x2="246.479" y2="321.187" gradientUnits="userSpaceOnUse">
<stop stop-color="#FF928E"/>
<stop offset="1" stop-color="#FE7062"/>
</linearGradient>
<linearGradient id="paint12_linear_574_847" x1="221.629" y1="229.02" x2="198.376" y2="306.808" gradientUnits="userSpaceOnUse">
<stop stop-color="#FF928E"/>
<stop offset="1" stop-color="#FE7062"/>
</linearGradient>
<linearGradient id="paint13_linear_574_847" x1="245.677" y1="236.209" x2="222.425" y2="313.996" gradientUnits="userSpaceOnUse">
<stop stop-color="#FF928E"/>
<stop offset="1" stop-color="#FE7062"/>
</linearGradient>
<linearGradient id="paint14_linear_574_847" x1="134.823" y1="325.597" x2="94.1021" y2="399.647" gradientUnits="userSpaceOnUse">
<stop stop-color="#27DEBF"/>
<stop offset="1" stop-color="#1A0F91"/>
</linearGradient>
<linearGradient id="paint15_linear_574_847" x1="168.862" y1="358.933" x2="180.943" y2="371.211" gradientUnits="userSpaceOnUse">
<stop stop-color="#7FB77E"/>
<stop offset="1" stop-color="#1A0F91"/>
</linearGradient>
<linearGradient id="paint16_linear_574_847" x1="150.732" y1="346.427" x2="163.602" y2="299.259" gradientUnits="userSpaceOnUse">
<stop stop-color="#4F52FF"/>
<stop offset="1" stop-color="#4042E2"/>
</linearGradient>
<linearGradient id="paint17_linear_574_847" x1="184.443" y1="390.579" x2="207.083" y2="406.747" gradientUnits="userSpaceOnUse">
<stop stop-color="#09005D"/>
<stop offset="1" stop-color="#1A0F91"/>
</linearGradient>
<linearGradient id="paint18_linear_574_847" x1="195.06" y1="381.666" x2="147.298" y2="343.702" gradientUnits="userSpaceOnUse">
<stop stop-color="#FEBBBA"/>
<stop offset="1" stop-color="#FF928E"/>
</linearGradient>
<linearGradient id="paint19_linear_574_847" x1="207.741" y1="409.804" x2="159.978" y2="371.84" gradientUnits="userSpaceOnUse">
<stop stop-color="#FEBBBA"/>
<stop offset="1" stop-color="#FF928E"/>
</linearGradient>
<linearGradient id="paint20_linear_574_847" x1="184.763" y1="358.793" x2="137.978" y2="375.964" gradientUnits="userSpaceOnUse">
<stop stop-color="#4F52FF"/>
<stop offset="1" stop-color="#4042E2"/>
</linearGradient>
<linearGradient id="paint21_linear_574_847" x1="148.548" y1="328.643" x2="132.979" y2="346.659" gradientUnits="userSpaceOnUse">
<stop stop-color="#FEBBBA"/>
<stop offset="1" stop-color="#FF928E"/>
</linearGradient>
<linearGradient id="paint22_linear_574_847" x1="145.394" y1="271.985" x2="102.007" y2="350.576" gradientUnits="userSpaceOnUse">
<stop stop-color="#FF928E"/>
<stop offset="1" stop-color="#FE7062"/>
</linearGradient>
<linearGradient id="paint23_linear_574_847" x1="133.211" y1="342.294" x2="163.056" y2="277.081" gradientUnits="userSpaceOnUse">
<stop stop-color="#FEBBBA"/>
<stop offset="1" stop-color="#FF928E"/>
</linearGradient>
<linearGradient id="paint24_linear_574_847" x1="106.296" y1="329.73" x2="114.369" y2="303.709" gradientUnits="userSpaceOnUse">
<stop stop-color="#FEBBBA"/>
<stop offset="1" stop-color="#FF928E"/>
</linearGradient>
<linearGradient id="paint25_linear_574_847" x1="119.978" y1="306.481" x2="111.57" y2="279.645" gradientUnits="userSpaceOnUse">
<stop stop-color="#FEBBBA"/>
<stop offset="1" stop-color="#FF928E"/>
</linearGradient>
<linearGradient id="paint26_linear_574_847" x1="114.032" y1="270.92" x2="118.82" y2="297.493" gradientUnits="userSpaceOnUse">
<stop stop-color="#7FB77E"/>
<stop offset="1" stop-color="#1A0F91"/>
</linearGradient>
<linearGradient id="paint27_linear_574_847" x1="114.914" y1="308.068" x2="106.506" y2="281.231" gradientUnits="userSpaceOnUse">
<stop stop-color="#FEBBBA"/>
<stop offset="1" stop-color="#FF928E"/>
</linearGradient>
<linearGradient id="paint28_linear_574_847" x1="153.379" y1="335.826" x2="176.322" y2="335.826" gradientUnits="userSpaceOnUse">
<stop stop-color="#09005D"/>
<stop offset="1" stop-color="#1A0F91"/>
</linearGradient>
<linearGradient id="paint29_linear_574_847" x1="156.164" y1="346.132" x2="137.75" y2="351.043" gradientUnits="userSpaceOnUse">
<stop stop-color="#09005D"/>
<stop offset="1" stop-color="#1A0F91"/>
</linearGradient>
<linearGradient id="paint30_linear_574_847" x1="113.614" y1="332.632" x2="55.8734" y2="379.305" gradientUnits="userSpaceOnUse">
<stop stop-color="#E1473D"/>
<stop offset="1" stop-color="#E9605A"/>
</linearGradient>
<linearGradient id="paint31_linear_574_847" x1="109.669" y1="327.751" x2="51.9281" y2="374.425" gradientUnits="userSpaceOnUse">
<stop stop-color="#E1473D"/>
<stop offset="1" stop-color="#E9605A"/>
</linearGradient>
<linearGradient id="paint32_linear_574_847" x1="110.282" y1="328.51" x2="52.5417" y2="375.183" gradientUnits="userSpaceOnUse">
<stop stop-color="#E1473D"/>
<stop offset="1" stop-color="#E9605A"/>
</linearGradient>
<clipPath id="clip0_574_847">
<rect width="375" height="812" fill="white"/>
</clipPath>
</defs>
</svg>
