<svg width="375" height="812" viewBox="0 0 375 812" fill="none" xmlns="http://www.w3.org/2000/svg">
<rect x="0.5" y="0.5" width="374" height="811" fill="white"/>
<rect x="0.5" y="0.5" width="374" height="811" stroke="white"/>
<path d="M48.2139 511.595L42.9038 527H39.6934L46.3828 509.227H48.4336L48.2139 511.595ZM52.6572 527L47.335 511.595L47.103 509.227H49.166L55.8799 527H52.6572ZM52.4009 520.408V522.837H42.7329V520.408H52.4009ZM65.377 523.887V513.792H68.3311V527H65.5479L65.377 523.887ZM65.792 521.141L66.7808 521.116C66.7808 522.003 66.6831 522.821 66.4878 523.57C66.2925 524.31 65.9914 524.957 65.5845 525.511C65.1776 526.056 64.6567 526.483 64.022 526.792C63.3872 527.094 62.6263 527.244 61.7393 527.244C61.0964 527.244 60.5063 527.151 59.9692 526.963C59.4321 526.776 58.9683 526.487 58.5776 526.097C58.1951 525.706 57.8981 525.197 57.6865 524.571C57.4749 523.944 57.3691 523.195 57.3691 522.325V513.792H60.311V522.349C60.311 522.829 60.368 523.232 60.4819 523.558C60.5959 523.875 60.7505 524.131 60.9458 524.327C61.1411 524.522 61.369 524.66 61.6294 524.742C61.8898 524.823 62.1665 524.864 62.4595 524.864C63.2977 524.864 63.9569 524.701 64.437 524.375C64.9253 524.042 65.2712 523.594 65.4746 523.033C65.6862 522.471 65.792 521.84 65.792 521.141ZM76.7417 524.9C77.2218 524.9 77.6532 524.807 78.0356 524.62C78.4263 524.424 78.7396 524.156 78.9756 523.814C79.2197 523.472 79.354 523.077 79.3784 522.63H82.1494C82.1331 523.484 81.8809 524.262 81.3926 524.961C80.9043 525.661 80.2573 526.219 79.4517 526.634C78.646 527.041 77.7549 527.244 76.7783 527.244C75.7692 527.244 74.8903 527.073 74.1416 526.731C73.3929 526.382 72.7703 525.901 72.2739 525.291C71.7775 524.681 71.4032 523.977 71.1509 523.179C70.9067 522.382 70.7847 521.527 70.7847 520.616V520.188C70.7847 519.277 70.9067 518.423 71.1509 517.625C71.4032 516.819 71.7775 516.111 72.2739 515.501C72.7703 514.891 73.3929 514.415 74.1416 514.073C74.8903 513.723 75.7651 513.548 76.7661 513.548C77.8241 513.548 78.7518 513.759 79.5493 514.183C80.3468 514.598 80.9735 515.18 81.4292 515.928C81.8931 516.669 82.1331 517.531 82.1494 518.516H79.3784C79.354 518.028 79.2319 517.588 79.0122 517.198C78.8006 516.799 78.4995 516.482 78.1089 516.246C77.7264 516.01 77.2666 515.892 76.7295 515.892C76.1354 515.892 75.6431 516.014 75.2524 516.258C74.8618 516.494 74.5566 516.819 74.3369 517.234C74.1172 517.641 73.9585 518.101 73.8608 518.614C73.7713 519.118 73.7266 519.643 73.7266 520.188V520.616C73.7266 521.161 73.7713 521.69 73.8608 522.203C73.9504 522.715 74.105 523.175 74.3247 523.582C74.5526 523.981 74.8618 524.302 75.2524 524.546C75.6431 524.782 76.1395 524.9 76.7417 524.9ZM92.3545 523.887V513.792H95.3086V527H92.5254L92.3545 523.887ZM92.7695 521.141L93.7583 521.116C93.7583 522.003 93.6606 522.821 93.4653 523.57C93.27 524.31 92.9689 524.957 92.562 525.511C92.1551 526.056 91.6343 526.483 90.9995 526.792C90.3647 527.094 89.6038 527.244 88.7168 527.244C88.0739 527.244 87.4839 527.151 86.9468 526.963C86.4097 526.776 85.9458 526.487 85.5552 526.097C85.1727 525.706 84.8757 525.197 84.6641 524.571C84.4525 523.944 84.3467 523.195 84.3467 522.325V513.792H87.2886V522.349C87.2886 522.829 87.3455 523.232 87.4595 523.558C87.5734 523.875 87.728 524.131 87.9233 524.327C88.1187 524.522 88.3465 524.66 88.6069 524.742C88.8674 524.823 89.144 524.864 89.437 524.864C90.2752 524.864 90.9344 524.701 91.4146 524.375C91.9028 524.042 92.2487 523.594 92.4521 523.033C92.6637 522.471 92.7695 521.84 92.7695 521.141ZM101.241 516.612V527H98.2993V513.792H101.07L101.241 516.612ZM100.716 519.908L99.7642 519.896C99.7723 518.96 99.9025 518.101 100.155 517.32C100.415 516.539 100.773 515.867 101.229 515.306C101.693 514.744 102.246 514.313 102.889 514.012C103.532 513.702 104.248 513.548 105.038 513.548C105.672 513.548 106.246 513.637 106.759 513.816C107.28 513.987 107.723 514.268 108.089 514.659C108.464 515.049 108.749 515.558 108.944 516.185C109.139 516.803 109.237 517.564 109.237 518.467V527H106.283V518.455C106.283 517.82 106.189 517.32 106.002 516.954C105.823 516.579 105.558 516.315 105.208 516.16C104.867 515.997 104.439 515.916 103.927 515.916C103.422 515.916 102.971 516.022 102.572 516.233C102.173 516.445 101.835 516.734 101.559 517.1C101.29 517.466 101.083 517.889 100.936 518.37C100.79 518.85 100.716 519.362 100.716 519.908ZM124.288 527.244C123.312 527.244 122.429 527.085 121.639 526.768C120.858 526.443 120.191 525.991 119.637 525.413C119.092 524.835 118.673 524.156 118.38 523.375C118.087 522.593 117.94 521.751 117.94 520.848V520.359C117.94 519.326 118.091 518.39 118.392 517.552C118.693 516.714 119.112 515.997 119.649 515.403C120.187 514.801 120.821 514.341 121.554 514.024C122.286 513.707 123.08 513.548 123.934 513.548C124.878 513.548 125.704 513.707 126.412 514.024C127.12 514.341 127.706 514.789 128.17 515.367C128.642 515.936 128.992 516.616 129.22 517.405C129.456 518.195 129.574 519.065 129.574 520.018V521.275H119.369V519.163H126.668V518.931C126.652 518.402 126.546 517.906 126.351 517.442C126.164 516.978 125.875 516.604 125.484 516.319C125.094 516.034 124.573 515.892 123.922 515.892C123.434 515.892 122.998 515.997 122.616 516.209C122.241 516.412 121.928 516.709 121.676 517.1C121.424 517.491 121.228 517.963 121.09 518.516C120.96 519.061 120.895 519.676 120.895 520.359V520.848C120.895 521.425 120.972 521.963 121.126 522.459C121.289 522.947 121.525 523.375 121.834 523.741C122.144 524.107 122.518 524.396 122.958 524.607C123.397 524.811 123.897 524.913 124.459 524.913C125.167 524.913 125.798 524.77 126.351 524.485C126.904 524.201 127.385 523.798 127.792 523.277L129.342 524.778C129.057 525.193 128.687 525.592 128.231 525.975C127.775 526.349 127.218 526.654 126.559 526.89C125.908 527.126 125.151 527.244 124.288 527.244ZM122.237 511.924L124.618 508.25H127.938L124.618 511.924H122.237ZM135.018 508.25V527H132.064V508.25H135.018ZM144.063 527.244C143.087 527.244 142.204 527.085 141.415 526.768C140.633 526.443 139.966 525.991 139.413 525.413C138.867 524.835 138.448 524.156 138.155 523.375C137.862 522.593 137.716 521.751 137.716 520.848V520.359C137.716 519.326 137.866 518.39 138.167 517.552C138.469 516.714 138.888 515.997 139.425 515.403C139.962 514.801 140.597 514.341 141.329 514.024C142.062 513.707 142.855 513.548 143.709 513.548C144.653 513.548 145.479 513.707 146.188 514.024C146.896 514.341 147.481 514.789 147.945 515.367C148.417 515.936 148.767 516.616 148.995 517.405C149.231 518.195 149.349 519.065 149.349 520.018V521.275H139.144V519.163H146.444V518.931C146.428 518.402 146.322 517.906 146.126 517.442C145.939 516.978 145.65 516.604 145.26 516.319C144.869 516.034 144.348 515.892 143.697 515.892C143.209 515.892 142.774 515.997 142.391 516.209C142.017 516.412 141.703 516.709 141.451 517.1C141.199 517.491 141.004 517.963 140.865 518.516C140.735 519.061 140.67 519.676 140.67 520.359V520.848C140.67 521.425 140.747 521.963 140.902 522.459C141.065 522.947 141.301 523.375 141.61 523.741C141.919 524.107 142.293 524.396 142.733 524.607C143.172 524.811 143.673 524.913 144.234 524.913C144.942 524.913 145.573 524.77 146.126 524.485C146.68 524.201 147.16 523.798 147.567 523.277L149.117 524.778C148.832 525.193 148.462 525.592 148.006 525.975C147.551 526.349 146.993 526.654 146.334 526.89C145.683 527.126 144.926 527.244 144.063 527.244ZM142.013 511.924L144.393 508.25H147.713L144.393 511.924H142.013ZM154.586 516.478V527H151.644V513.792H154.415L154.586 516.478ZM154.11 519.908L153.109 519.896C153.109 518.984 153.223 518.142 153.451 517.369C153.679 516.596 154.012 515.924 154.452 515.354C154.891 514.777 155.436 514.333 156.087 514.024C156.747 513.707 157.507 513.548 158.37 513.548C158.972 513.548 159.522 513.637 160.018 513.816C160.523 513.987 160.958 514.26 161.324 514.634C161.699 515.009 161.983 515.489 162.179 516.075C162.382 516.661 162.484 517.369 162.484 518.199V527H159.542V518.455C159.542 517.812 159.444 517.308 159.249 516.941C159.062 516.575 158.789 516.315 158.431 516.16C158.081 515.997 157.662 515.916 157.174 515.916C156.62 515.916 156.148 516.022 155.758 516.233C155.375 516.445 155.062 516.734 154.818 517.1C154.574 517.466 154.395 517.889 154.281 518.37C154.167 518.85 154.11 519.362 154.11 519.908ZM162.301 519.126L160.921 519.432C160.921 518.634 161.031 517.881 161.251 517.173C161.479 516.457 161.808 515.831 162.24 515.293C162.679 514.748 163.22 514.321 163.863 514.012C164.506 513.702 165.243 513.548 166.073 513.548C166.748 513.548 167.35 513.641 167.879 513.829C168.417 514.008 168.872 514.292 169.247 514.683C169.621 515.074 169.906 515.582 170.101 516.209C170.296 516.827 170.394 517.576 170.394 518.455V527H167.44V518.443C167.44 517.776 167.342 517.259 167.147 516.893C166.96 516.526 166.691 516.274 166.341 516.136C165.991 515.989 165.572 515.916 165.084 515.916C164.628 515.916 164.225 516.001 163.875 516.172C163.534 516.335 163.245 516.567 163.009 516.868C162.773 517.161 162.594 517.499 162.472 517.881C162.358 518.264 162.301 518.679 162.301 519.126ZM179.244 527.244C178.268 527.244 177.385 527.085 176.595 526.768C175.814 526.443 175.147 525.991 174.593 525.413C174.048 524.835 173.629 524.156 173.336 523.375C173.043 522.593 172.896 521.751 172.896 520.848V520.359C172.896 519.326 173.047 518.39 173.348 517.552C173.649 516.714 174.068 515.997 174.605 515.403C175.143 514.801 175.777 514.341 176.51 514.024C177.242 513.707 178.036 513.548 178.89 513.548C179.834 513.548 180.66 513.707 181.368 514.024C182.076 514.341 182.662 514.789 183.126 515.367C183.598 515.936 183.948 516.616 184.176 517.405C184.412 518.195 184.53 519.065 184.53 520.018V521.275H174.325V519.163H181.625V518.931C181.608 518.402 181.502 517.906 181.307 517.442C181.12 516.978 180.831 516.604 180.44 516.319C180.05 516.034 179.529 515.892 178.878 515.892C178.39 515.892 177.954 515.997 177.572 516.209C177.197 516.412 176.884 516.709 176.632 517.1C176.38 517.491 176.184 517.963 176.046 518.516C175.916 519.061 175.851 519.676 175.851 520.359V520.848C175.851 521.425 175.928 521.963 176.083 522.459C176.245 522.947 176.481 523.375 176.791 523.741C177.1 524.107 177.474 524.396 177.914 524.607C178.353 524.811 178.854 524.913 179.415 524.913C180.123 524.913 180.754 524.77 181.307 524.485C181.861 524.201 182.341 523.798 182.748 523.277L184.298 524.778C184.013 525.193 183.643 525.592 183.187 525.975C182.731 526.349 182.174 526.654 181.515 526.89C180.864 527.126 180.107 527.244 179.244 527.244ZM189.742 516.612V527H186.8V513.792H189.571L189.742 516.612ZM189.217 519.908L188.265 519.896C188.273 518.96 188.403 518.101 188.656 517.32C188.916 516.539 189.274 515.867 189.73 515.306C190.194 514.744 190.747 514.313 191.39 514.012C192.033 513.702 192.749 513.548 193.539 513.548C194.173 513.548 194.747 513.637 195.26 513.816C195.781 513.987 196.224 514.268 196.59 514.659C196.965 515.049 197.25 515.558 197.445 516.185C197.64 516.803 197.738 517.564 197.738 518.467V527H194.784V518.455C194.784 517.82 194.69 517.32 194.503 516.954C194.324 516.579 194.059 516.315 193.709 516.16C193.368 515.997 192.94 515.916 192.428 515.916C191.923 515.916 191.472 516.022 191.073 516.233C190.674 516.445 190.336 516.734 190.06 517.1C189.791 517.466 189.583 517.889 189.437 518.37C189.291 518.85 189.217 519.362 189.217 519.908ZM206.795 513.792V515.94H199.349V513.792H206.795ZM201.498 510.557H204.439V523.35C204.439 523.757 204.496 524.07 204.61 524.29C204.732 524.502 204.899 524.644 205.111 524.717C205.322 524.791 205.571 524.827 205.855 524.827C206.059 524.827 206.254 524.815 206.441 524.791C206.629 524.766 206.779 524.742 206.893 524.717L206.905 526.963C206.661 527.037 206.376 527.102 206.051 527.159C205.733 527.216 205.367 527.244 204.952 527.244C204.277 527.244 203.679 527.126 203.158 526.89C202.637 526.646 202.23 526.251 201.937 525.706C201.644 525.161 201.498 524.437 201.498 523.533V510.557ZM222.738 524.351V518.052C222.738 517.58 222.652 517.173 222.481 516.832C222.311 516.49 222.05 516.225 221.7 516.038C221.358 515.851 220.927 515.757 220.406 515.757C219.926 515.757 219.511 515.839 219.161 516.001C218.811 516.164 218.539 516.384 218.343 516.661C218.148 516.937 218.05 517.251 218.05 517.601H215.121C215.121 517.08 215.247 516.575 215.499 516.087C215.751 515.599 216.118 515.163 216.598 514.781C217.078 514.398 217.652 514.097 218.319 513.877C218.986 513.658 219.735 513.548 220.565 513.548C221.558 513.548 222.437 513.715 223.202 514.048C223.975 514.382 224.581 514.887 225.021 515.562C225.468 516.229 225.692 517.068 225.692 518.077V523.948C225.692 524.55 225.733 525.092 225.814 525.572C225.903 526.044 226.03 526.455 226.192 526.805V527H223.177C223.039 526.683 222.929 526.28 222.848 525.792C222.774 525.295 222.738 524.815 222.738 524.351ZM223.165 518.968L223.189 520.787H221.078C220.532 520.787 220.052 520.84 219.637 520.945C219.222 521.043 218.876 521.189 218.6 521.385C218.323 521.58 218.115 521.816 217.977 522.093C217.839 522.369 217.77 522.683 217.77 523.033C217.77 523.383 217.851 523.704 218.014 523.997C218.176 524.282 218.412 524.506 218.722 524.668C219.039 524.831 219.422 524.913 219.869 524.913C220.471 524.913 220.996 524.791 221.444 524.546C221.9 524.294 222.258 523.989 222.518 523.631C222.778 523.265 222.917 522.919 222.933 522.593L223.885 523.899C223.788 524.233 223.621 524.591 223.385 524.974C223.149 525.356 222.84 525.722 222.457 526.072C222.083 526.414 221.631 526.695 221.102 526.915C220.581 527.134 219.979 527.244 219.295 527.244C218.433 527.244 217.664 527.073 216.988 526.731C216.313 526.382 215.784 525.914 215.401 525.328C215.019 524.734 214.828 524.062 214.828 523.313C214.828 522.614 214.958 521.995 215.218 521.458C215.487 520.913 215.877 520.457 216.39 520.091C216.911 519.725 217.546 519.448 218.294 519.261C219.043 519.065 219.898 518.968 220.858 518.968H223.165ZM219.82 508.25L222.201 511.924H219.747L216.488 508.25H219.82ZM242.44 524.351V518.052C242.44 517.58 242.354 517.173 242.184 516.832C242.013 516.49 241.752 516.225 241.402 516.038C241.061 515.851 240.629 515.757 240.108 515.757C239.628 515.757 239.213 515.839 238.863 516.001C238.513 516.164 238.241 516.384 238.045 516.661C237.85 516.937 237.752 517.251 237.752 517.601H234.823C234.823 517.08 234.949 516.575 235.201 516.087C235.453 515.599 235.82 515.163 236.3 514.781C236.78 514.398 237.354 514.097 238.021 513.877C238.688 513.658 239.437 513.548 240.267 513.548C241.26 513.548 242.139 513.715 242.904 514.048C243.677 514.382 244.283 514.887 244.723 515.562C245.17 516.229 245.394 517.068 245.394 518.077V523.948C245.394 524.55 245.435 525.092 245.516 525.572C245.606 526.044 245.732 526.455 245.895 526.805V527H242.879C242.741 526.683 242.631 526.28 242.55 525.792C242.477 525.295 242.44 524.815 242.44 524.351ZM242.867 518.968L242.892 520.787H240.78C240.235 520.787 239.754 520.84 239.339 520.945C238.924 521.043 238.578 521.189 238.302 521.385C238.025 521.58 237.818 521.816 237.679 522.093C237.541 522.369 237.472 522.683 237.472 523.033C237.472 523.383 237.553 523.704 237.716 523.997C237.879 524.282 238.115 524.506 238.424 524.668C238.741 524.831 239.124 524.913 239.571 524.913C240.174 524.913 240.698 524.791 241.146 524.546C241.602 524.294 241.96 523.989 242.22 523.631C242.481 523.265 242.619 522.919 242.635 522.593L243.587 523.899C243.49 524.233 243.323 524.591 243.087 524.974C242.851 525.356 242.542 525.722 242.159 526.072C241.785 526.414 241.333 526.695 240.804 526.915C240.283 527.134 239.681 527.244 238.998 527.244C238.135 527.244 237.366 527.073 236.69 526.731C236.015 526.382 235.486 525.914 235.104 525.328C234.721 524.734 234.53 524.062 234.53 523.313C234.53 522.614 234.66 521.995 234.92 521.458C235.189 520.913 235.58 520.457 236.092 520.091C236.613 519.725 237.248 519.448 237.997 519.261C238.745 519.065 239.6 518.968 240.56 518.968H242.867ZM252.45 527H249.508V512.522C249.508 511.538 249.691 510.712 250.057 510.044C250.431 509.369 250.965 508.86 251.656 508.519C252.348 508.169 253.166 507.994 254.11 507.994C254.403 507.994 254.692 508.014 254.977 508.055C255.261 508.087 255.538 508.14 255.807 508.213L255.733 510.484C255.571 510.443 255.392 510.415 255.196 510.398C255.009 510.382 254.806 510.374 254.586 510.374C254.138 510.374 253.752 510.459 253.426 510.63C253.109 510.793 252.865 511.033 252.694 511.351C252.531 511.668 252.45 512.059 252.45 512.522V527ZM255.245 513.792V515.94H247.481V513.792H255.245ZM260.018 527H257.076V512.938C257.076 511.871 257.288 510.972 257.711 510.24C258.134 509.507 258.744 508.95 259.542 508.567C260.348 508.185 261.304 507.994 262.411 507.994C263.062 507.994 263.692 508.063 264.303 508.201C264.913 508.34 265.54 508.514 266.183 508.726L265.731 511.119C265.324 510.98 264.864 510.85 264.352 510.728C263.847 510.598 263.269 510.533 262.618 510.533C261.731 510.533 261.076 510.736 260.653 511.143C260.23 511.542 260.018 512.14 260.018 512.938V527ZM262.679 513.792V515.94H255.05V513.792H262.679ZM267.586 513.792V527H264.632V513.792H267.586ZM276.229 524.9C276.709 524.9 277.14 524.807 277.523 524.62C277.914 524.424 278.227 524.156 278.463 523.814C278.707 523.472 278.841 523.077 278.866 522.63H281.637C281.62 523.484 281.368 524.262 280.88 524.961C280.392 525.661 279.745 526.219 278.939 526.634C278.133 527.041 277.242 527.244 276.266 527.244C275.257 527.244 274.378 527.073 273.629 526.731C272.88 526.382 272.258 525.901 271.761 525.291C271.265 524.681 270.89 523.977 270.638 523.179C270.394 522.382 270.272 521.527 270.272 520.616V520.188C270.272 519.277 270.394 518.423 270.638 517.625C270.89 516.819 271.265 516.111 271.761 515.501C272.258 514.891 272.88 514.415 273.629 514.073C274.378 513.723 275.252 513.548 276.253 513.548C277.311 513.548 278.239 513.759 279.037 514.183C279.834 514.598 280.461 515.18 280.917 515.928C281.38 516.669 281.62 517.531 281.637 518.516H278.866C278.841 518.028 278.719 517.588 278.5 517.198C278.288 516.799 277.987 516.482 277.596 516.246C277.214 516.01 276.754 515.892 276.217 515.892C275.623 515.892 275.13 516.014 274.74 516.258C274.349 516.494 274.044 516.819 273.824 517.234C273.604 517.641 273.446 518.101 273.348 518.614C273.259 519.118 273.214 519.643 273.214 520.188V520.616C273.214 521.161 273.259 521.69 273.348 522.203C273.438 522.715 273.592 523.175 273.812 523.582C274.04 523.981 274.349 524.302 274.74 524.546C275.13 524.782 275.627 524.9 276.229 524.9ZM286.8 508.25V527H283.871V508.25H286.8ZM286.288 519.908L285.335 519.896C285.344 518.984 285.47 518.142 285.714 517.369C285.966 516.596 286.316 515.924 286.764 515.354C287.219 514.777 287.765 514.333 288.399 514.024C289.034 513.707 289.738 513.548 290.511 513.548C291.162 513.548 291.748 513.637 292.269 513.816C292.798 513.995 293.254 514.284 293.636 514.683C294.019 515.074 294.308 515.586 294.503 516.221C294.706 516.848 294.808 517.613 294.808 518.516V527H291.854V518.492C291.854 517.857 291.76 517.352 291.573 516.978C291.394 516.604 291.13 516.335 290.78 516.172C290.43 516.001 290.003 515.916 289.498 515.916C288.969 515.916 288.501 516.022 288.094 516.233C287.695 516.445 287.362 516.734 287.093 517.1C286.825 517.466 286.621 517.889 286.483 518.37C286.353 518.85 286.288 519.362 286.288 519.908ZM303.609 527.244C302.633 527.244 301.75 527.085 300.96 526.768C300.179 526.443 299.512 525.991 298.958 525.413C298.413 524.835 297.994 524.156 297.701 523.375C297.408 522.593 297.262 521.751 297.262 520.848V520.359C297.262 519.326 297.412 518.39 297.713 517.552C298.014 516.714 298.434 515.997 298.971 515.403C299.508 514.801 300.143 514.341 300.875 514.024C301.607 513.707 302.401 513.548 303.255 513.548C304.199 513.548 305.025 513.707 305.733 514.024C306.441 514.341 307.027 514.789 307.491 515.367C307.963 515.936 308.313 516.616 308.541 517.405C308.777 518.195 308.895 519.065 308.895 520.018V521.275H298.69V519.163H305.99V518.931C305.973 518.402 305.868 517.906 305.672 517.442C305.485 516.978 305.196 516.604 304.806 516.319C304.415 516.034 303.894 515.892 303.243 515.892C302.755 515.892 302.319 515.997 301.937 516.209C301.563 516.412 301.249 516.709 300.997 517.1C300.745 517.491 300.549 517.963 300.411 518.516C300.281 519.061 300.216 519.676 300.216 520.359V520.848C300.216 521.425 300.293 521.963 300.448 522.459C300.611 522.947 300.847 523.375 301.156 523.741C301.465 524.107 301.839 524.396 302.279 524.607C302.718 524.811 303.219 524.913 303.78 524.913C304.488 524.913 305.119 524.77 305.672 524.485C306.226 524.201 306.706 523.798 307.113 523.277L308.663 524.778C308.378 525.193 308.008 525.592 307.552 525.975C307.097 526.349 306.539 526.654 305.88 526.89C305.229 527.126 304.472 527.244 303.609 527.244ZM314.144 516.307V527H311.202V513.792H314.01L314.144 516.307ZM318.185 513.707L318.16 516.441C317.981 516.408 317.786 516.384 317.574 516.368C317.371 516.351 317.167 516.343 316.964 516.343C316.459 516.343 316.016 516.417 315.633 516.563C315.251 516.701 314.929 516.905 314.669 517.173C314.417 517.434 314.221 517.751 314.083 518.125C313.945 518.5 313.863 518.919 313.839 519.383L313.167 519.432C313.167 518.602 313.249 517.833 313.412 517.125C313.574 516.417 313.819 515.794 314.144 515.257C314.478 514.72 314.893 514.301 315.389 514C315.894 513.698 316.476 513.548 317.135 513.548C317.314 513.548 317.505 513.564 317.708 513.597C317.92 513.629 318.079 513.666 318.185 513.707Z" fill="#414141"/>
<g clip-path="url(#clip0_812_1576)">
<path d="M260.282 419.896H254.034L251.06 388.783H260.282V419.896Z" fill="#9E616A"/>
<path d="M263.579 433.872H259.099L258.299 428.41L256.251 433.872H244.367C243.798 433.872 243.243 433.637 242.784 433.201C242.325 432.765 241.987 432.151 241.817 431.449C241.647 430.747 241.656 429.994 241.842 429.298C242.028 428.603 242.381 428.003 242.85 427.585L252.339 419.123V413.602L262.321 414.371L263.579 433.872Z" fill="#2F2E41"/>
<path d="M297.4 409.716L292.386 414.529L275.62 391.853L283.02 384.749L297.4 409.716Z" fill="#9E616A"/>
<path d="M306.505 418.391L302.91 421.842L299.744 418.076L300.624 424.037L291.088 433.192C290.631 433.631 290.078 433.869 289.508 433.873C288.938 433.877 288.383 433.645 287.922 433.213C287.462 432.78 287.12 432.168 286.948 431.467C286.776 430.766 286.782 430.013 286.965 429.316L290.669 415.215L288.117 410.784L296.482 403.712L306.505 418.391Z" fill="#2F2E41"/>
<path d="M267.556 259.368C267.556 259.368 279.41 272.591 273.94 310.285L267.263 347.22L289.039 393.862L282.096 404.768L253.786 354.283L243.528 323.214L240.649 267.919L267.556 259.368Z" fill="#2F2E41"/>
<path d="M249.182 332.068L248.469 346.324L250.651 407.077L260.918 404.768L262.88 361.513L249.182 332.068Z" fill="#2F2E41"/>
<path d="M117.423 427.211L123.011 427.211L125.668 399.387L117.423 399.387L117.423 427.211Z" fill="#FFB6B6"/>
<path d="M115.998 424.856L117.571 424.856L123.711 421.632L127.001 424.855H127.002C128.862 424.855 130.645 425.809 131.96 427.507C133.275 429.205 134.014 431.507 134.014 433.908V434.202L115.999 434.203L115.998 424.856Z" fill="#2F2E41"/>
<path d="M139.075 422.666L144.525 424.254L151.865 397.87L143.821 395.525L139.075 422.666Z" fill="#FFB6B6"/>
<path d="M138.087 419.962L139.621 420.41L146.16 419.011L148.82 423.091L148.82 423.091C150.634 423.62 152.211 425.058 153.204 427.088C154.197 429.118 154.525 431.574 154.115 433.916L154.065 434.203L136.492 429.081L138.087 419.962Z" fill="#2F2E41"/>
<path d="M110.347 257.111C107.728 267.311 108.005 278.383 110.977 290.267L112.247 357.173C112.247 357.173 110.354 401.05 116.463 416.489H125.322L129.708 353.166L130.259 310.664L149.252 346.522L137.155 415.454L148.058 416.712L167.689 341.905L143.469 269.329L110.347 257.111Z" fill="#2F2E41"/>
<path d="M212.512 228.056C219.288 220.172 229.367 216.208 237.822 220.629C229.149 226.845 222.459 236.822 218.936 248.794C217.59 253.417 216.466 258.74 213.155 261.215C211.096 262.756 208.533 262.831 206.223 262.087C203.914 261.344 201.797 259.853 199.708 258.378L199.114 258.36C201.781 247.098 205.736 235.94 212.512 228.056Z" fill="#E6E6E6"/>
<path d="M237.774 220.868C230.287 222.118 223.294 226.381 217.79 233.054C216.585 234.463 215.56 236.108 214.753 237.93C214.01 239.737 213.656 241.768 213.727 243.811C213.764 245.718 213.972 247.664 213.649 249.549C213.473 250.511 213.141 251.414 212.675 252.198C212.209 252.983 211.62 253.632 210.947 254.102C209.292 255.33 207.395 255.717 205.529 256.012C203.457 256.34 201.301 256.638 199.508 258.139C199.29 258.32 199.085 257.874 199.302 257.693C202.422 255.083 206.37 256.032 209.725 254.29C211.29 253.477 212.675 252.051 213.166 249.893C213.594 248.007 213.381 246 213.331 244.07C213.239 242.078 213.526 240.087 214.168 238.271C214.901 236.402 215.875 234.708 217.049 233.262C219.65 229.951 222.639 227.188 225.905 225.076C229.623 222.638 233.636 221.04 237.771 220.349C238.027 220.307 238.029 220.826 237.774 220.868Z" fill="white"/>
<path d="M219.464 230.77C218.723 229.426 218.375 227.785 218.484 226.141C218.593 224.496 219.151 222.955 220.059 221.793C220.243 221.559 220.534 221.917 220.349 222.152C219.502 223.232 218.983 224.668 218.884 226.2C218.785 227.731 219.113 229.258 219.81 230.504C219.961 230.776 219.615 231.04 219.464 230.77Z" fill="white"/>
<path d="M213.61 242.847C216.183 243.436 218.833 242.751 221.033 240.929C221.25 240.748 221.456 241.194 221.239 241.374C218.947 243.265 216.188 243.971 213.512 243.351C213.256 243.291 213.356 242.788 213.61 242.847Z" fill="white"/>
<path d="M229.655 223.325C229.858 223.923 230.173 224.445 230.571 224.847C230.97 225.248 231.439 225.516 231.937 225.625C232.193 225.68 232.093 226.183 231.839 226.129C231.289 226.004 230.771 225.708 230.33 225.266C229.889 224.824 229.539 224.249 229.31 223.591C229.285 223.532 229.278 223.462 229.29 223.396C229.303 223.33 229.335 223.272 229.38 223.235C229.426 223.201 229.48 223.19 229.532 223.207C229.583 223.224 229.628 223.266 229.655 223.325Z" fill="white"/>
<path d="M247.131 258.648C246.971 258.619 246.811 258.591 246.648 258.565C244.491 258.196 242.314 258.053 240.139 258.139C239.971 258.142 239.801 258.148 239.633 258.158C234.395 258.436 229.242 259.967 224.437 262.674C222.526 263.753 220.681 265.018 218.918 266.459C216.484 268.449 213.967 270.856 211.246 271.668C210.963 271.757 210.676 271.823 210.387 271.866L199.144 259.297C199.13 259.252 199.113 259.21 199.098 259.165L198.632 258.69C198.718 258.607 198.81 258.524 198.897 258.442C198.947 258.393 199 258.348 199.05 258.3C199.084 258.269 199.119 258.238 199.148 258.207C199.16 258.197 199.171 258.186 199.18 258.179C199.21 258.148 199.24 258.124 199.267 258.097C199.778 257.63 200.292 257.167 200.809 256.708C200.811 256.705 200.811 256.705 200.816 256.704C204.731 253.158 208.959 250.224 213.41 247.964C213.543 247.899 213.679 247.83 213.817 247.771C215.822 246.809 217.884 246.06 219.983 245.531C221.133 245.246 222.293 245.037 223.46 244.904C226.474 244.568 229.511 244.845 232.458 245.727C238.334 247.486 243.709 251.652 246.892 258.148C246.973 258.315 247.052 258.478 247.131 258.648Z" fill="#E6E6E6"/>
<path d="M246.983 258.804C240.421 253.981 232.85 251.95 225.344 252.999C223.725 253.188 222.139 253.705 220.645 254.531C219.209 255.397 217.979 256.743 217.083 258.43C216.223 259.981 215.482 261.696 214.345 262.951C213.756 263.581 213.07 264.044 212.332 264.309C211.594 264.573 210.821 264.633 210.064 264.485C208.171 264.179 206.475 263.013 204.848 261.799C203.041 260.45 201.18 259.012 199.049 258.816C198.79 258.793 198.834 258.277 199.092 258.3C202.8 258.641 205.51 262.469 209.001 263.686C210.63 264.254 212.401 264.191 213.799 262.85C215.021 261.677 215.786 259.909 216.646 258.328C217.502 256.666 218.66 255.3 220.019 254.349C221.475 253.427 223.043 252.832 224.655 252.589C228.276 251.967 231.951 252.085 235.544 252.937C239.648 253.881 243.598 255.724 247.222 258.387C247.446 258.551 247.205 258.968 246.983 258.804Z" fill="white"/>
<path d="M227.745 252.477C227.78 250.827 228.268 249.247 229.122 248.019C229.975 246.79 231.139 245.994 232.406 245.771C232.663 245.727 232.727 246.24 232.471 246.284C231.291 246.488 230.206 247.23 229.413 248.376C228.62 249.522 228.17 250.997 228.145 252.533C228.139 252.867 227.74 252.809 227.745 252.477Z" fill="white"/>
<path d="M217.439 257.569C219.219 260.039 221.655 261.553 224.261 261.807C224.519 261.832 224.475 262.348 224.217 262.323C221.506 262.052 218.974 260.47 217.126 257.895C216.95 257.649 217.264 257.325 217.439 257.569Z" fill="white"/>
<path d="M239.354 254.454C239.238 255.089 239.245 255.751 239.376 256.381C239.507 257.012 239.757 257.59 240.103 258.064C240.282 258.307 239.967 258.631 239.79 258.39C239.409 257.863 239.134 257.224 238.988 256.528C238.842 255.833 238.831 255.101 238.955 254.399C238.962 254.331 238.989 254.27 239.03 254.227C239.071 254.184 239.123 254.163 239.176 254.168C239.229 254.176 239.277 254.211 239.311 254.264C239.344 254.318 239.36 254.386 239.354 254.454Z" fill="white"/>
<path d="M49.662 426.706C49.1343 429.262 47.7475 431.391 46.0733 432.942C45.8003 433.195 45.52 433.43 45.2361 433.651C45.1488 433.717 45.0614 433.787 44.9704 433.849C44.8721 433.924 44.7739 433.994 44.6756 434.06H36.8029C36.6609 433.689 36.5226 433.313 36.3843 432.942C33.0103 423.788 30.6408 413.91 31.0448 403.849C31.2051 399.946 31.8401 396.101 32.9266 392.453C35.0886 385.183 39.034 378.891 44.4609 375.724C44.5955 375.644 44.7375 375.564 44.8758 375.489C44.8321 375.691 44.7884 375.888 44.7448 376.09C44.1626 378.798 43.7511 381.563 43.5145 384.356C43.4927 384.572 43.4745 384.789 43.4599 385.009C42.9429 391.747 43.402 398.55 44.8139 405.07C44.8176 405.085 44.8212 405.103 44.8248 405.117C45.1342 406.56 45.4933 407.981 45.9022 409.38C46.2225 410.484 46.5683 411.574 46.9468 412.646C48.5264 417.143 50.6447 421.936 49.662 426.706Z" fill="#7FB77E"/>
<path d="M44.9741 375.7C44.8976 375.832 44.8212 375.959 44.7448 376.09C43.1461 378.826 41.7886 381.782 40.6974 384.906C40.6392 385.061 40.5846 385.216 40.5372 385.376C39.042 389.738 38.0818 394.373 37.691 399.117C37.6868 399.149 37.6843 399.182 37.6837 399.215C37.5927 400.324 37.5381 401.443 37.5163 402.561C37.4353 404.657 37.611 406.757 38.0368 408.783C38.425 410.437 39.1052 411.952 40.024 413.21C40.115 413.336 40.206 413.463 40.3043 413.586C40.3771 413.684 40.4572 413.783 40.5336 413.877C41.2688 414.784 42.0732 415.625 42.7648 416.598C43.0817 417.034 43.368 417.506 43.6201 418.007C44.0225 418.849 44.2824 419.79 44.3828 420.77C44.4831 421.75 44.4217 422.746 44.2024 423.694C43.7074 426.071 42.5755 428.078 41.4181 429.991C40.8393 430.949 40.2424 431.917 39.7256 432.942C39.5363 433.308 39.3616 433.679 39.2015 434.06H38.7429C38.8958 433.679 39.0632 433.308 39.2452 432.942C40.5737 430.24 42.4627 427.918 43.4418 424.944C44.1042 422.937 44.3044 420.663 43.4672 418.694C43.2219 418.121 42.925 417.588 42.5828 417.105C41.9167 416.132 41.1196 415.301 40.3953 414.422C40.2133 414.201 40.035 413.976 39.8639 413.741C38.957 412.551 38.2571 411.125 37.8111 409.558C37.306 407.568 37.0672 405.482 37.105 403.388C37.105 402.054 37.1596 400.71 37.2615 399.375C37.2724 399.206 37.287 399.032 37.3016 398.858C38.0459 390.46 40.5179 382.472 44.4609 375.724C44.5337 375.592 44.6101 375.465 44.6865 375.338C44.843 375.075 45.1306 375.442 44.9741 375.7Z" fill="white"/>
<path d="M37.4484 399.42C36.1878 399.146 35.0434 398.303 34.2197 397.041C33.396 395.779 32.9466 394.18 32.9519 392.529C32.9526 392.462 32.9735 392.398 33.0102 392.35C33.0469 392.302 33.0965 392.274 33.1486 392.273C33.2007 392.272 33.2513 392.296 33.2896 392.342C33.3278 392.388 33.3509 392.451 33.3539 392.518C33.3468 394.055 33.7655 395.544 34.5344 396.718C35.3033 397.891 36.3717 398.671 37.5468 398.916C37.8021 398.97 37.7023 399.473 37.4484 399.42Z" fill="white"/>
<path d="M39.923 413.304C42.0648 411.371 43.5637 408.467 44.1207 405.171C44.1757 404.844 44.5655 404.971 44.5106 405.298C43.9259 408.726 42.3614 411.745 40.1291 413.75C39.9162 413.941 39.7113 413.494 39.923 413.304Z" fill="white"/>
<path d="M40.577 384.851C41.0477 385.088 41.5566 385.171 42.0581 385.091C42.5595 385.011 43.0378 384.772 43.45 384.395C43.6609 384.2 43.8656 384.647 43.6561 384.84C43.1992 385.254 42.6707 385.518 42.1169 385.607C41.563 385.697 41.0005 385.61 40.4786 385.354C40.4279 385.336 40.3845 385.293 40.3575 385.234C40.3304 385.176 40.3216 385.106 40.3329 385.039C40.3462 384.973 40.3793 384.916 40.425 384.88C40.4707 384.845 40.5253 384.835 40.577 384.851Z" fill="white"/>
<path d="M72.2793 393.872C72.1519 393.999 72.0208 394.126 71.8935 394.258C70.1654 395.965 68.5477 397.851 67.0563 399.897C66.9398 400.052 66.8233 400.212 66.7105 400.371L66.7069 400.376C63.1705 405.332 60.3743 411.09 58.4592 417.359L58.4483 417.401C58.4447 417.415 58.441 417.425 58.4374 417.439C57.6783 419.948 57.0663 422.528 56.6066 425.155C56.1626 427.721 55.7986 430.47 55.1034 432.942C54.9979 433.322 54.8814 433.698 54.7576 434.06H38.5754C38.63 433.689 38.6883 433.313 38.7465 432.942C39.5697 427.497 40.8562 422.186 42.5828 417.105C42.641 416.936 42.6992 416.767 42.7648 416.598C43.6561 414.088 44.7041 411.675 45.8986 409.385L45.8988 409.383L45.8996 409.381L45.9008 409.38L45.9022 409.38C46.5581 408.13 47.2627 406.924 48.0132 405.766C49.9598 402.776 52.2592 400.2 54.8268 398.135C54.8414 398.12 54.8596 398.111 54.8741 398.097C59.9843 394.004 66.0408 392.054 71.8316 393.741H71.8352C71.9844 393.783 72.13 393.825 72.2793 393.872Z" fill="#7FB77E"/>
<path d="M72.2611 394.121C72.1373 394.164 72.0136 394.211 71.8935 394.258C69.3426 395.199 66.8805 396.502 64.5521 398.144C64.4357 398.224 64.3192 398.308 64.2027 398.393C60.9851 400.711 58.0643 403.658 55.5438 407.129C55.5418 407.131 55.5406 407.135 55.5402 407.138C55.5111 407.176 55.4783 407.218 55.4528 407.256C54.8705 408.064 54.31 408.905 53.7786 409.77C52.7391 411.382 51.9015 413.194 51.2963 415.141C50.8338 416.763 50.6705 418.503 50.8195 420.221C50.8304 420.395 50.8486 420.564 50.8668 420.738C50.8813 420.874 50.8959 421.01 50.9141 421.151C51.1543 423.036 51.5692 424.925 51.4528 426.847C51.3819 427.832 51.1504 428.786 50.7733 429.647C50.3963 430.508 49.8824 431.256 49.2653 431.842C48.8458 432.261 48.3975 432.629 47.9259 432.942C47.2516 433.39 46.549 433.765 45.8258 434.06H44.3954C44.5883 433.99 44.7775 433.919 44.9704 433.849C45.655 433.599 46.3271 433.296 46.9832 432.942C47.358 432.739 47.7227 432.507 48.0751 432.246C49.5383 431.161 50.7576 429.497 51.0124 427.274C51.2344 425.329 50.8049 423.383 50.5501 421.48C50.5065 421.151 50.4664 420.827 50.4446 420.503C50.2708 418.855 50.3763 417.178 50.754 415.587C51.2777 413.604 52.0606 411.751 53.0688 410.108C53.6925 409.039 54.3582 408.011 55.0634 407.03C55.1507 406.903 55.2417 406.776 55.3364 406.649C57.9098 403.154 60.8813 400.186 64.1481 397.848H64.1518C66.5808 396.102 69.1578 394.724 71.8316 393.741H71.8352C71.9553 393.694 72.0791 393.647 72.1992 393.604C72.4503 393.52 72.5086 394.032 72.2611 394.121Z" fill="white"/>
<path d="M55.1924 407.208C54.3133 406.01 53.7927 404.448 53.7236 402.799C53.6545 401.151 54.0414 399.525 54.8152 398.212C54.9725 397.946 55.299 398.25 55.1415 398.515C54.4192 399.737 54.0589 401.251 54.1257 402.786C54.1924 404.32 54.6818 405.774 55.5056 406.883C55.6844 407.124 55.3701 407.448 55.1924 407.208Z" fill="white"/>
<path d="M50.6935 420.218C53.305 420.34 55.856 419.186 57.838 416.987C58.0342 416.769 58.286 417.173 58.09 417.391C56.0242 419.675 53.3676 420.868 50.6502 420.734C50.3912 420.721 50.4359 420.205 50.6935 420.218Z" fill="white"/>
<path d="M64.4839 398.008C64.7492 398.564 65.1172 399.025 65.5547 399.351C65.9923 399.677 66.4857 399.858 66.9907 399.877C67.2497 399.886 67.2048 400.402 66.9475 400.393C66.3896 400.369 65.8448 400.168 65.3607 399.809C64.8767 399.45 64.4681 398.944 64.1707 398.334C64.1389 398.279 64.1244 398.211 64.1301 398.144C64.1357 398.076 64.1612 398.013 64.2013 397.969C64.2429 397.926 64.2959 397.906 64.3489 397.914C64.4018 397.921 64.4503 397.955 64.4839 398.008Z" fill="white"/>
<path d="M197.11 213.358C196.737 213.992 196.26 214.513 195.714 214.884C195.168 215.254 194.565 215.466 193.948 215.504C193.332 215.541 192.716 215.404 192.146 215.101C191.575 214.798 191.062 214.337 190.644 213.751L176.886 221.477L178.226 211.561L191.085 205.745C191.895 204.903 192.915 204.474 193.953 204.539C194.991 204.603 195.974 205.157 196.717 206.096C197.46 207.034 197.91 208.292 197.982 209.63C198.055 210.969 197.745 212.295 197.11 213.358Z" fill="#FFB8B8"/>
<path d="M187.929 216.454L155.973 234.832L155.905 234.8L119.483 218.043C116.77 216.212 114.702 213.112 113.702 209.377C112.702 205.642 112.845 201.554 114.103 197.951C114.8 195.96 115.816 194.183 117.084 192.736C118.352 191.289 119.842 190.204 121.458 189.555C123.074 188.905 124.778 188.704 126.458 188.966C128.138 189.228 129.756 189.946 131.205 191.073L158.31 212.153L184.592 207.755L187.929 216.454Z" fill="#E6E6E6"/>
<path d="M345 434.441C345 434.514 344.989 434.587 344.968 434.655C344.946 434.723 344.914 434.785 344.874 434.837C344.834 434.889 344.786 434.93 344.733 434.958C344.68 434.986 344.624 435 344.567 435H31.4455C31.3306 435 31.2204 434.941 31.1392 434.836C31.058 434.731 31.0124 434.589 31.0124 434.441C31.0124 434.292 31.058 434.15 31.1392 434.045C31.2204 433.941 31.3306 433.882 31.4455 433.882H344.567C344.624 433.881 344.68 433.896 344.733 433.924C344.786 433.952 344.834 433.993 344.874 434.045C344.914 434.097 344.946 434.159 344.968 434.227C344.989 434.294 345 434.367 345 434.441Z" fill="#CCCCCC"/>
<path d="M145.048 271.472L112.835 264.819C111.99 264.47 111.213 263.888 110.559 263.115C109.905 262.342 109.387 261.395 109.043 260.339C108.699 259.284 108.536 258.144 108.565 256.999C108.594 255.855 108.814 254.732 109.211 253.707L110.672 249.934L110.105 210.298C110.036 205.142 111.021 200.054 112.959 195.546C114.897 191.037 117.721 187.267 121.146 184.615L124.288 182.19L125.875 176.985L140.514 177.446L140.557 184.272L145.799 195.066L145.799 195.11L145.47 253.857L144.025 259.92L146.21 266.972L145.048 271.472Z" fill="#E6E6E6"/>
<path d="M134.535 170.512C141.881 170.512 147.836 162.824 147.836 153.339C147.836 143.855 141.881 136.166 134.535 136.166C127.189 136.166 121.234 143.855 121.234 153.339C121.234 162.824 127.189 170.512 134.535 170.512Z" fill="#FFB8B8"/>
<path d="M120.685 157.083C120.288 154.925 120.47 151.888 120.694 149.716C121.282 144.02 123.732 138.605 127.455 135.397C128.16 134.705 128.999 134.275 129.88 134.152C130.761 134.105 131.715 134.714 131.986 135.797C132.208 135.082 132.54 134.433 132.964 133.891C133.388 133.349 133.893 132.924 134.448 132.644C135.564 132.092 136.764 131.883 137.953 132.034C140.259 132.28 142.469 133.326 144.351 135.063C146.233 136.799 147.715 139.161 148.641 141.898C148.996 142.987 149.988 138.962 150.439 139.992C150.852 141.062 151.574 141.881 152.449 142.273C153.331 142.591 153.689 147.282 154.036 146.188C154.306 146.997 154.412 147.88 154.346 148.756C154.28 149.632 154.043 150.472 153.657 151.198C153.272 151.924 152.75 152.512 152.141 152.908C151.532 153.303 150.856 153.493 150.174 153.46C149.277 153.417 148.418 152.991 147.531 152.807C144.359 152.151 140.994 155.121 140.316 159.175C140.073 158.003 139.686 156.888 139.168 155.876C138.905 155.372 138.553 154.957 138.14 154.664C137.728 154.372 137.267 154.21 136.797 154.194C135.895 154.238 135.101 154.999 134.516 155.887C133.93 156.775 133.49 157.81 132.9 158.693C131.17 161.284 128.829 167.326 126.362 166.885C124.415 166.537 121.226 160.029 120.685 157.083Z" fill="#2F2E41"/>
<path d="M214.938 232.818C215.032 232.035 214.907 231.235 214.587 230.559C214.266 229.883 213.771 229.376 213.189 229.127L177.369 213.724C177.026 213.576 176.662 213.522 176.302 213.566L167.324 214.662L162.172 215.293L152.666 216.453C152.092 216.524 151.552 216.839 151.132 217.348C150.711 217.858 150.433 218.533 150.342 219.268L145.515 258.195C145.424 258.954 145.536 259.731 145.833 260.397C146.129 261.063 146.593 261.579 147.147 261.859L183.341 279.896C183.511 279.982 183.687 280.043 183.867 280.079C184.13 280.134 184.397 280.136 184.659 280.087L208.047 275.611C208.598 275.508 209.109 275.178 209.504 274.67C209.899 274.163 210.157 273.504 210.239 272.792L214.938 232.818Z" fill="white"/>
<path d="M147.968 259.116L184.161 277.153C184.214 277.179 184.272 277.188 184.328 277.178L207.712 272.703C207.781 272.691 207.846 272.65 207.895 272.586C207.945 272.522 207.977 272.439 207.987 272.35L212.689 232.375C212.7 232.277 212.684 232.178 212.644 232.094C212.604 232.01 212.543 231.946 212.471 231.914L212.23 231.808L176.649 216.514C176.633 216.507 176.616 216.502 176.599 216.499C176.571 216.492 176.543 216.49 176.515 216.493L154.617 219.169L152.879 219.379C152.808 219.389 152.741 219.429 152.689 219.492C152.637 219.555 152.602 219.639 152.59 219.731L147.764 258.656C147.753 258.751 147.766 258.849 147.803 258.932C147.84 259.016 147.898 259.081 147.968 259.116Z" fill="#7FB77E"/>
<path d="M154.617 219.169L176.515 216.493C176.543 216.49 176.571 216.492 176.599 216.499C176.616 216.502 176.633 216.507 176.649 216.514L212.23 231.808L202.844 233.091L199.332 233.569L189.337 234.932C189.308 234.934 189.279 234.934 189.249 234.931C189.232 234.924 189.214 234.917 189.193 234.91L154.617 219.169Z" fill="#2F2E41"/>
<path d="M147.147 261.861L183.34 279.898C183.511 279.983 183.688 280.042 183.868 280.076C184.13 280.132 184.398 280.137 184.661 280.089L208.045 275.614C208.597 275.511 209.108 275.18 209.503 274.672C209.898 274.164 210.156 273.505 210.239 272.793L214.938 232.818C215.007 232.228 214.955 231.626 214.786 231.071C214.762 230.997 214.738 230.924 214.71 230.854C214.524 230.348 214.24 229.911 213.886 229.586C213.673 229.389 213.438 229.234 213.189 229.128L213.147 229.108L177.371 213.724C177.225 213.664 177.076 213.617 176.924 213.584C176.718 213.546 176.508 213.541 176.3 213.568L167.324 214.661L162.173 215.295L152.664 216.454C152.276 216.501 151.9 216.661 151.566 216.923C151.54 216.939 151.515 216.958 151.492 216.98C151.476 216.994 151.46 217.009 151.445 217.026C151.153 217.283 150.905 217.614 150.716 217.999C150.526 218.384 150.4 218.814 150.343 219.265L145.513 258.195C145.422 258.955 145.534 259.732 145.831 260.398C146.128 261.065 146.592 261.581 147.147 261.861ZM150.984 219.4C151.043 218.934 151.203 218.498 151.446 218.145C151.52 218.031 151.602 217.928 151.692 217.835C151.938 217.579 152.228 217.404 152.538 217.326C152.599 217.31 152.661 217.298 152.723 217.292L168.732 215.34L176.363 214.402C176.415 214.394 176.462 214.395 176.51 214.392C176.625 214.389 176.741 214.4 176.855 214.425C176.96 214.443 177.063 214.474 177.162 214.52L212.98 229.923C213.008 229.936 213.033 229.949 213.061 229.961C213.387 230.118 213.673 230.387 213.889 230.739C214.059 231.008 214.183 231.321 214.254 231.656C214.324 231.992 214.339 232.343 214.297 232.687L209.594 272.666C209.532 273.199 209.339 273.693 209.044 274.074C208.748 274.455 208.366 274.703 207.953 274.782L184.565 279.256C184.231 279.318 183.889 279.268 183.574 279.11L147.38 261.078C146.965 260.867 146.619 260.48 146.396 259.981C146.174 259.482 146.09 258.9 146.158 258.331L150.984 219.4Z" fill="#3F3D56"/>
<path d="M151.367 217.238C151.386 217.167 151.42 217.105 151.465 217.057C151.479 217.041 151.495 217.028 151.511 217.015C151.527 217.008 151.542 216.995 151.557 216.988C151.63 216.95 151.711 216.948 151.784 216.983L152.538 217.326L189.341 234.088L197.955 232.913L202.775 232.257L212.977 230.862L213.889 230.739L214.066 230.713C214.143 230.704 214.219 230.73 214.282 230.786C214.346 230.842 214.392 230.925 214.413 231.02C214.418 231.042 214.421 231.065 214.422 231.088C214.43 231.178 214.414 231.269 214.378 231.347C214.342 231.426 214.287 231.486 214.222 231.521C214.193 231.536 214.163 231.547 214.132 231.552L212.891 231.72L202.844 233.091L199.332 233.569L189.337 234.932C189.308 234.934 189.279 234.934 189.25 234.931C189.232 234.924 189.214 234.917 189.193 234.91L151.692 217.835L151.565 217.777C151.536 217.765 151.509 217.745 151.485 217.72C151.428 217.666 151.386 217.591 151.365 217.504C151.344 217.417 151.344 217.324 151.367 217.238Z" fill="#3F3D56"/>
<path d="M183.967 280.199C183.882 280.181 183.806 280.121 183.756 280.032C183.705 279.942 183.684 279.831 183.697 279.721L188.98 234.452C188.993 234.341 189.039 234.242 189.109 234.176C189.178 234.11 189.265 234.082 189.35 234.099L189.353 234.1C189.438 234.117 189.514 234.177 189.565 234.266C189.615 234.356 189.636 234.467 189.624 234.577L184.34 279.847C184.327 279.957 184.281 280.056 184.211 280.122C184.142 280.188 184.055 280.216 183.97 280.199L183.967 280.199Z" fill="#3F3D56"/>
<path d="M197.36 277.327L193.846 277.806L197.956 232.912C197.956 232.912 202.65 231.815 202.775 232.254C202.852 232.517 197.393 277.039 197.36 277.327Z" fill="#3F3D56"/>
<path d="M151.566 217.777L151.471 238.25L179.543 252.06L189.624 234.577L151.566 217.777Z" fill="#3F3D56"/>
<path d="M213.89 230.739C213.655 230.358 213.339 230.075 212.981 229.923L177.164 214.52C177.064 214.476 176.96 214.444 176.855 214.423C176.741 214.398 176.625 214.387 176.509 214.39L176.567 213.921L176.926 213.586L185.431 205.635L213.836 216.874L213.885 229.587L213.89 230.739Z" fill="#3F3D56"/>
<path d="M152.996 250.643C153.037 250.648 153.077 250.659 153.115 250.675L164.105 255.335C164.242 255.393 164.356 255.52 164.422 255.687C164.487 255.854 164.498 256.047 164.453 256.225C164.408 256.402 164.31 256.55 164.181 256.634C164.052 256.718 163.902 256.733 163.764 256.675L152.775 252.015C152.647 251.96 152.539 251.847 152.472 251.697C152.405 251.547 152.383 251.37 152.411 251.201C152.438 251.031 152.513 250.88 152.621 250.777C152.729 250.674 152.863 250.626 152.996 250.643Z" fill="white"/>
<path d="M197.336 336.528C199.749 336.528 201.704 334.003 201.704 330.889C201.704 327.774 199.749 325.25 197.336 325.25C194.924 325.25 192.969 327.774 192.969 330.889C192.969 334.003 194.924 336.528 197.336 336.528Z" fill="#F2F2F2"/>
<path d="M85.961 357.204C88.3732 357.204 90.3287 354.679 90.3287 351.565C90.3287 348.451 88.3732 345.926 85.961 345.926C83.5488 345.926 81.5933 348.451 81.5933 351.565C81.5933 354.679 83.5488 357.204 85.961 357.204Z" fill="#F2F2F2"/>
<path d="M176.954 170.645C179.366 170.645 181.322 168.12 181.322 165.006C181.322 161.891 179.366 159.366 176.954 159.366C174.542 159.366 172.586 161.891 172.586 165.006C172.586 168.12 174.542 170.645 176.954 170.645Z" fill="#F2F2F2"/>
<path d="M184.12 258.936C183.554 259.254 182.941 259.407 182.324 259.386C181.707 259.364 181.101 259.168 180.549 258.812C179.997 258.455 179.512 257.947 179.129 257.322C178.746 256.698 178.473 255.972 178.33 255.197L163.403 253.25L168.328 245.446L181.748 248.492C182.773 248.269 183.825 248.538 184.706 249.25C185.587 249.962 186.235 251.066 186.527 252.354C186.82 253.641 186.736 255.022 186.292 256.235C185.849 257.449 185.076 258.41 184.12 258.936Z" fill="#FFB8B8"/>
<path d="M174.939 255.841L140.104 251.697L140.056 251.626L114.632 214.015C112.959 210.705 112.329 206.695 112.871 202.805C113.413 198.916 115.087 195.441 117.549 193.092C118.911 191.796 120.47 190.887 122.124 190.425C123.778 189.963 125.489 189.958 127.144 190.411C128.8 190.864 130.362 191.765 131.728 193.054C133.095 194.343 134.234 195.991 135.072 197.89L150.731 233.39L175.323 246.147L174.939 255.841Z" fill="#E6E6E6"/>
<path d="M262.374 183.512C261.508 175.319 260.423 166.523 255.948 160.609C254.528 158.732 252.828 157.247 250.951 156.241C249.074 155.236 247.059 154.731 245.027 154.758C242.995 154.786 240.989 155.344 239.128 156.399C237.268 157.455 235.593 158.985 234.203 160.9C230.945 165.387 229.506 171.687 229.375 177.835C229.243 183.984 230.303 190.063 231.48 196.023C237.706 196.184 243.886 194.613 249.601 191.418C251.03 190.617 252.436 189.712 253.945 189.216C255.455 188.72 256.531 189.968 257.936 190.839L258.706 188.933C259.337 190.449 261.292 190 262 188.542C262.709 187.084 262.554 185.217 262.374 183.512Z" fill="#2F2E41"/>
<path d="M237.694 229.239L212.261 229.941C211.87 229.07 211.292 228.363 210.596 227.908C209.9 227.453 209.117 227.269 208.342 227.378C207.566 227.487 206.832 227.885 206.229 228.523C205.625 229.161 205.179 230.012 204.943 230.972C204.707 231.932 204.692 232.959 204.901 233.93C205.109 234.9 205.531 235.772 206.116 236.438C206.701 237.104 207.423 237.536 208.195 237.682C208.967 237.828 209.755 237.681 210.463 237.26C213.836 237.507 240.226 242.343 241.8 239.227C243.398 236.064 251.927 224.9 251.927 224.9L245.371 212.85L237.694 229.239Z" fill="#9E616A"/>
<path d="M243.891 191.617C250.491 191.617 255.841 184.71 255.841 176.189C255.841 167.669 250.491 160.762 243.891 160.762C237.292 160.762 231.942 167.669 231.942 176.189C231.942 184.71 237.292 191.617 243.891 191.617Z" fill="#9E616A"/>
<path d="M263.03 205.874C261.622 202.255 260.938 197.785 257.936 196.612C255.908 195.82 247.709 197.007 245.861 198.344C242.788 200.569 245.573 204.737 243.76 208.637C241.789 212.877 236.433 221.386 234.462 225.626C233.107 228.54 237.671 237.096 236.938 240.361C236.206 243.627 236.17 247.292 237.418 250.285C238.535 252.964 236.919 255.334 238.043 258.009C239.211 260.791 240.645 271.192 239.557 274.028L238.829 276.847C246.053 277.395 252.127 266.253 259.306 265.08C261.089 264.788 262.94 264.407 264.409 263.071C266.574 261.103 267.429 257.531 267.964 254.183C270.538 237.82 268.801 220.816 263.03 205.874Z" fill="#7FB77E"/>
<path d="M273.86 244.079C272.854 240.533 271.033 225.03 271.033 225.03L259.631 224.599L265.206 242.349L249.995 269.84C249.995 269.84 250.023 269.901 250.074 270.009C249.275 269.843 248.455 269.993 247.722 270.439C246.99 270.884 246.378 271.605 245.968 272.507C245.558 273.409 245.368 274.45 245.424 275.493C245.479 276.536 245.778 277.533 246.279 278.354C246.781 279.175 247.463 279.781 248.236 280.093C249.009 280.406 249.837 280.409 250.612 280.104C251.387 279.798 252.072 279.198 252.578 278.382C253.084 277.565 253.387 276.57 253.448 275.528C253.504 275.569 253.57 275.584 253.633 275.57C253.697 275.556 253.755 275.514 253.797 275.45C255.489 272.708 274.866 247.625 273.86 244.079Z" fill="#9E616A"/>
<path d="M275.019 234.288C273.973 228.586 272.919 222.853 271.154 217.453C269.39 212.054 266.864 206.954 263.312 203.306C262.176 202.14 260.907 201.11 259.483 200.748C258.059 200.385 256.455 200.791 255.455 202.149C253.855 204.321 254.336 207.809 254.923 210.71C256.653 219.262 258.384 227.815 260.114 236.368C265.111 235.684 270.108 235 275.106 234.316L275.019 234.288Z" fill="#7FB77E"/>
<path d="M258.533 178.329C258.093 174.597 257.633 170.834 256.6 167.32C255.566 163.805 253.899 160.514 251.509 158.523C247.724 155.371 242.824 155.979 238.58 157.792C235.299 159.194 232.095 161.325 229.781 164.752C227.467 168.178 226.167 173.066 227.028 177.546C231.554 176.165 236.081 174.784 240.607 173.404L240.112 173.856C241.598 174.813 242.896 176.194 243.907 177.895C244.918 179.596 245.615 181.573 245.946 183.674C246.27 185.8 246.224 187.993 245.81 190.094C245.397 192.195 244.627 194.151 243.557 195.82C246.644 194.406 249.731 192.992 252.818 191.578C254.724 190.706 256.763 189.7 257.893 187.462C259.203 184.866 258.898 181.426 258.533 178.329Z" fill="#2F2E41"/>
</g>
<defs>
<clipPath id="clip0_812_1576">
<rect width="314" height="303" fill="white" transform="translate(31 132)"/>
</clipPath>
</defs>
</svg>
